<?xml version="1.0" standalone="no"?>
<!DOCTYPE svg PUBLIC "-//W3C//DTD SVG 20010904//EN"
 "http://www.w3.org/TR/2001/REC-SVG-20010904/DTD/svg10.dtd">
<svg version="1.0" xmlns="http://www.w3.org/2000/svg"
 width="384.000000pt" height="512.000000pt" viewBox="0 0 384.000000 512.000000"
 preserveAspectRatio="xMidYMid meet">

<g transform="translate(0.000000,512.000000) scale(0.100000,-0.100000)"
fill="#000000" stroke="none">
<path d="M446 4991 c-58 -72 -139 -181 -178 -242 -40 -61 -73 -107 -75 -103
-1 5 -9 41 -16 80 -13 69 -12 73 20 190 18 65 33 125 33 132 0 36 -29 -7 -102
-146 l-79 -151 -20 -268 c-29 -385 -31 -345 30 -536 l54 -167 157 -153 157
-152 289 -129 c159 -71 359 -154 444 -185 174 -63 275 -117 247 -133 -9 -5
-17 -20 -17 -33 0 -14 -5 -25 -10 -25 -6 0 -72 25 -148 56 -136 55 -139 56
-402 93 -146 21 -269 35 -273 31 -11 -10 169 -379 201 -413 15 -16 52 -51 83
-78 l56 -49 149 -20 c82 -12 177 -26 211 -31 l62 -11 12 -60 c7 -33 23 -76 37
-96 l25 -37 -47 -350 -47 -349 -56 -89 c-31 -49 -59 -107 -63 -130 -5 -23 -16
-144 -26 -268 l-18 -226 50 -122 51 -122 244 -252 c135 -139 287 -296 339
-350 51 -54 99 -96 105 -95 7 2 162 157 346 346 l334 343 52 127 53 127 -21
260 -21 260 -52 85 c-29 47 -57 92 -62 100 -4 8 -29 170 -54 360 l-46 345 22
30 c12 17 29 58 37 93 8 35 17 65 20 68 3 3 99 19 214 35 l208 30 40 38 c22
21 58 53 79 72 38 33 48 51 177 327 21 46 39 87 39 93 0 15 -50 10 -300 -25
-231 -33 -238 -35 -382 -93 l-148 -60 0 25 c0 14 -8 31 -17 38 -10 7 -16 14
-13 16 48 36 120 69 253 117 89 32 292 117 450 187 l288 129 157 155 158 155
53 175 54 175 -22 309 -22 309 -80 154 c-72 137 -99 176 -99 142 0 -6 14 -66
31 -133 31 -120 32 -124 18 -201 l-14 -79 -74 113 c-90 140 -281 375 -293 363
-6 -6 28 -80 82 -183 77 -146 100 -201 142 -338 27 -90 47 -165 45 -167 -2 -2
-36 3 -76 12 -71 16 -72 17 -151 102 -43 48 -82 83 -86 79 -4 -4 14 -60 40
-125 l48 -117 139 -80 139 -80 0 -130 0 -130 -114 -161 -115 -160 -233 -93
c-128 -51 -240 -95 -248 -98 -8 -3 2 12 22 33 46 49 73 135 65 208 -11 106
-39 237 -51 233 -6 -1 -23 -28 -37 -58 -24 -50 -26 -58 -16 -108 11 -51 10
-56 -22 -115 -29 -53 -45 -69 -129 -128 -54 -36 -131 -90 -172 -119 -41 -29
-68 -44 -59 -33 9 10 51 59 93 108 74 87 101 139 127 240 9 34 7 59 -13 143
l-23 103 -140 159 c-122 139 -165 179 -165 155 0 -4 54 -107 120 -229 l120
-223 -48 -103 c-44 -93 -62 -118 -169 -235 -81 -89 -138 -161 -174 -222 -47
-81 -55 -91 -76 -86 -16 4 -34 -2 -57 -20 -34 -25 -39 -26 -175 -26 -135 0
-140 1 -170 25 -21 18 -37 24 -53 20 -21 -6 -30 3 -78 86 -52 89 -90 135 -227
281 -49 52 -75 91 -114 173 l-50 107 121 223 c66 123 120 226 120 229 0 25
-44 -17 -167 -158 l-142 -163 -21 -94 c-11 -51 -20 -103 -20 -114 0 -12 15
-61 34 -109 27 -69 49 -103 102 -164 37 -42 75 -86 83 -96 16 -20 16 -20 -15
0 -17 10 -92 62 -167 114 -129 90 -138 99 -170 160 -26 49 -32 71 -27 90 15
47 10 91 -15 140 -14 28 -30 50 -35 50 -5 0 -12 -15 -15 -32 -3 -18 -14 -80
-24 -138 -19 -103 -19 -105 1 -170 13 -43 32 -78 56 -104 21 -22 30 -36 20
-33 -10 4 -122 47 -248 97 l-230 92 -115 160 -115 161 0 131 0 131 134 78 c73
42 138 82 143 89 19 25 95 229 88 236 -3 4 -43 -32 -88 -81 -80 -85 -84 -87
-151 -103 -37 -8 -71 -13 -73 -10 -3 3 16 76 42 163 40 132 63 188 141 337 53
101 91 183 86 188 -5 5 -56 -48 -116 -121z m3082 -211 c119 -174 120 -177 152
-326 16 -76 28 -140 26 -141 -1 -2 -28 21 -59 49 l-57 53 -50 169 c-36 121
-67 202 -110 285 l-60 116 40 -45 c22 -25 75 -97 118 -160z m-3112 84 c-38
-73 -68 -149 -105 -275 l-52 -174 -57 -52 c-31 -29 -57 -51 -59 -50 -1 2 11
67 27 145 l30 142 90 136 c82 123 170 238 177 230 2 -1 -21 -48 -51 -102z
m-261 -9 c-15 -53 -15 -64 1 -155 17 -98 17 -99 -7 -215 -27 -137 -29 -135
-54 93 l-18 163 43 89 c24 49 46 88 48 85 2 -2 -4 -29 -13 -60z m3600 -280
c-10 -93 -21 -178 -24 -188 -4 -11 -16 27 -30 97 -24 116 -24 117 -7 215 17
92 17 104 2 154 -24 83 -19 80 31 -18 l46 -90 -18 -170z m-3666 -172 c14 -115
21 -228 20 -340 l0 -168 -39 120 -39 120 14 195 c8 107 15 208 15 224 0 61 9
15 29 -151z m3715 -64 l15 -205 -39 -120 -40 -119 1 190 c1 119 8 242 20 330
10 77 19 147 20 155 3 28 9 -24 23 -231z m-3279 120 l-25 -64 -151 -43 c-83
-24 -153 -41 -155 -39 -3 3 14 20 38 40 33 27 63 39 133 55 85 20 93 24 135
70 25 27 46 48 48 47 2 -1 -9 -31 -23 -66z m2965 -53 c74 -15 92 -24 135 -61
l50 -44 -163 48 -164 48 -24 59 c-13 32 -24 62 -24 66 0 4 24 -16 53 -45 49
-50 57 -54 137 -71z m-3100 -70 c0 -2 -37 -26 -82 -52 -46 -26 -85 -49 -87
-51 -2 -2 -21 -74 -41 -161 l-37 -157 -8 135 c-4 74 -5 153 -3 175 l3 39 125
37 c69 20 126 37 128 38 1 1 2 -1 2 -3z m3325 -78 c4 -3 3 -82 -1 -175 l-7
-168 -37 150 c-19 83 -39 155 -43 162 -4 6 -43 32 -87 58 -44 26 -80 48 -80
50 0 5 248 -70 255 -77z m-2424 -280 c-89 -164 -89 -165 -96 -257 -4 -50 -10
-89 -13 -86 -4 3 -14 26 -23 50 -16 42 -16 49 5 146 l22 102 94 108 c52 59 96
107 97 105 2 -1 -37 -77 -86 -168z m1281 60 l94 -108 18 -95 c18 -97 18 -125
-5 -180 -11 -28 -13 -24 -24 70 -12 98 -15 104 -99 260 -77 142 -95 178 -82
164 2 -2 46 -52 98 -111z m-2271 -286 c44 -101 79 -186 77 -188 -2 -2 -56 49
-120 114 l-117 117 37 150 37 150 3 -79 c3 -74 8 -91 83 -264z m3374 187 l33
-144 -116 -117 c-64 -65 -118 -116 -120 -114 -2 3 33 87 77 187 79 179 81 185
81 263 0 44 2 77 5 74 3 -3 21 -70 40 -149z m-2749 -252 c-22 -111 -22 -112
-34 -76 -12 33 -4 103 24 229 6 25 6 25 19 -8 13 -29 12 -45 -9 -145z m2029
46 c13 -77 14 -96 2 -124 -13 -32 -13 -31 -35 77 -18 93 -20 115 -10 142 16
42 21 31 43 -95z m-2571 -23 c71 -99 74 -102 277 -246 112 -80 208 -149 214
-155 5 -5 -87 34 -205 87 -118 53 -220 101 -226 107 -10 10 -62 124 -131 287
-20 46 -14 39 71 -80z m3152 78 c-75 -177 -120 -275 -129 -285 -13 -12 -418
-195 -423 -190 -1 1 91 70 206 152 l209 149 72 103 c40 57 74 103 76 103 2 0
-3 -15 -11 -32z m-2185 -317 c27 -69 48 -126 46 -127 -3 -3 -181 205 -186 218
-2 5 0 53 4 106 l8 97 39 -85 c22 -47 62 -141 89 -209z m1288 129 c0 -43 -4
-50 -92 -151 -51 -59 -93 -106 -95 -105 -1 2 13 41 32 87 18 46 37 94 41 107
4 13 27 67 53 120 l46 97 7 -55 c4 -30 7 -75 8 -100z m-1665 8 c16 -27 27 -67
31 -108 l7 -65 -46 45 -46 45 12 63 c6 34 13 62 14 62 2 0 14 -19 28 -42z
m1911 -128 l-45 -45 0 45 c1 50 18 105 46 147 l18 28 13 -65 13 -64 -45 -46z
m-2130 12 c283 -112 267 -103 367 -200 51 -49 107 -102 123 -117 22 -20 25
-25 10 -20 -216 74 -231 81 -438 229 -217 155 -251 181 -227 173 8 -3 83 -32
165 -65z m2515 64 c0 -3 -98 -74 -219 -160 -207 -147 -225 -158 -342 -200 -68
-25 -124 -44 -125 -43 -1 1 53 54 120 117 l123 115 214 86 c216 88 229 92 229
85z m-1853 -289 c14 -14 30 -197 17 -197 -25 0 -135 88 -257 205 l-135 130 -7
68 -7 68 188 -132 c104 -72 194 -136 201 -142z m1398 199 c-7 -62 -10 -68 -54
-107 -25 -24 -89 -84 -142 -135 -87 -83 -179 -154 -201 -154 -10 0 -10 100 0
154 7 38 15 45 202 176 107 75 197 136 198 134 2 -1 1 -32 -3 -68z m-1307 -97
l32 -37 0 -121 0 -122 -35 -15 c-19 -7 -37 -14 -40 -14 -3 0 -5 46 -5 102 0
98 -2 106 -50 230 -27 70 -50 131 -50 133 0 6 92 -91 148 -156z m933 23 c-50
-125 -51 -132 -51 -230 0 -56 -2 -102 -5 -102 -3 0 -21 7 -40 14 l-35 15 0
123 1 123 87 96 c48 53 89 95 91 93 2 -2 -20 -61 -48 -132z m-791 -251 c0 -6
-58 -31 -73 -31 -4 0 -7 39 -7 88 l0 87 40 -68 c22 -38 40 -72 40 -76z m625
-29 c-7 -8 -77 27 -73 36 2 4 19 36 38 70 l35 63 3 -82 c2 -45 0 -84 -3 -87z
m-527 5 c19 -20 21 -37 28 -212 l6 -190 -47 -60 c-26 -33 -53 -68 -60 -78 -12
-18 -19 -14 -103 55 -80 65 -91 78 -97 113 -15 90 -8 103 119 254 66 78 122
141 126 141 3 0 16 -10 28 -23z m511 -121 c115 -137 121 -146 121 -189 0 -86
-7 -98 -100 -174 l-89 -72 -62 77 -61 77 7 190 c6 174 8 192 27 213 12 12 25
22 29 22 4 0 62 -65 128 -144z m-1364 89 c169 -23 190 -29 337 -87 142 -55
160 -65 179 -96 l20 -35 -169 6 -168 5 -155 82 c-85 46 -184 98 -221 117 -38
19 -68 37 -68 39 0 3 15 2 33 -1 17 -3 113 -16 212 -30z m2304 31 c-2 -2 -102
-56 -222 -120 l-218 -116 -170 -7 -170 -6 20 35 c19 32 37 41 190 101 93 37
182 67 197 67 16 1 101 11 189 24 173 26 191 28 184 22z m-2276 -176 l158 -83
108 -136 c60 -75 106 -137 103 -138 -4 -1 -92 10 -195 25 l-188 27 -70 60
c-67 58 -73 66 -154 232 -47 95 -85 175 -85 178 0 4 37 -13 83 -38 45 -24 153
-81 240 -127z m715 153 c-8 -10 -52 -62 -98 -116 l-83 -99 -18 24 c-10 12 -19
30 -20 38 -2 20 2 64 6 68 3 4 218 101 224 102 2 0 -2 -8 -11 -17z m755 -69
c32 -15 37 -22 37 -51 0 -30 -23 -93 -34 -93 -4 0 -86 96 -185 213 -14 17 69
-14 182 -69z m779 -85 c-75 -158 -81 -167 -155 -234 l-76 -71 -193 -26 c-106
-15 -193 -26 -195 -25 -1 1 47 63 106 138 l108 136 239 126 c131 69 240 124
242 123 1 -2 -33 -77 -76 -167z m-1129 -97 c-6 -136 -12 -276 -13 -312 l-1
-65 -50 -39 -50 -38 -39 27 c-70 49 -67 32 -81 356 -7 163 -10 302 -7 310 4
11 30 13 129 11 l124 -3 -12 -247z m-606 -6 c1 -1 5 -31 8 -66 l6 -65 -60 -62
-59 -61 -107 135 -107 136 159 -8 c87 -4 159 -8 160 -9z m1231 -63 c-34 -43
-81 -104 -106 -135 l-44 -56 -59 61 c-61 65 -66 79 -53 159 l6 37 67 4 c36 2
108 4 159 5 l92 2 -62 -77z m-1205 -200 c-18 -14 -85 -18 -97 -6 -3 4 15 29
41 55 l48 49 13 -43 c11 -38 10 -44 -5 -55z m331 -143 c-3 -30 -11 -95 -18
-145 l-12 -90 -73 143 -72 144 43 46 c24 26 61 69 83 96 l40 49 7 -94 c4 -52
5 -119 2 -149z m309 200 c15 -21 50 -64 78 -94 l50 -55 -68 -135 c-37 -75 -70
-136 -74 -136 -6 0 -34 217 -33 265 1 134 5 195 12 195 4 0 20 -18 35 -40z
m379 -62 c-26 -26 -117 -1 -108 30 3 9 8 30 12 45 l7 29 48 -48 c27 -27 45
-52 41 -56z m-920 40 c35 -28 67 -55 72 -59 6 -5 2 -17 -9 -29 -17 -19 -18
-19 -44 0 -62 45 -79 66 -85 103 -4 20 -5 37 -2 37 3 0 33 -23 68 -52z m791 8
c-6 -27 -20 -46 -58 -76 -46 -36 -51 -38 -67 -23 -10 9 -17 20 -16 24 4 11
140 120 144 116 3 -2 1 -21 -3 -41z m-809 -126 c-21 -4 -38 1 -62 19 l-33 25
22 12 c20 10 28 8 62 -20 l39 -31 -28 -5z m826 20 c-24 -19 -40 -25 -62 -22
l-31 5 39 32 c33 28 42 31 62 22 l24 -11 -32 -26z m-931 2 c49 -36 49 -48 5
-93 l-41 -41 -21 44 c-11 23 -23 61 -27 82 l-6 39 33 -7 c18 -3 44 -14 57 -24z
m1055 -9 c-7 -39 -25 -87 -42 -111 -7 -11 -19 -4 -50 30 l-41 43 22 24 c24 26
72 50 100 51 15 0 17 -6 11 -37z m-819 -192 c87 -175 85 -159 23 -227 -23 -25
-30 -43 -35 -97 -3 -37 -9 -67 -12 -67 -3 1 -38 49 -78 108 -54 80 -82 134
-111 217 l-39 110 46 52 c41 46 62 57 111 62 10 1 42 -52 95 -158z m705 96
c25 -28 44 -56 42 -62 -28 -102 -84 -225 -146 -317 -39 -59 -74 -107 -77 -108
-3 0 -9 27 -12 60 -5 61 -8 68 -61 135 l-30 37 80 159 79 160 40 -7 c32 -5 49
-17 85 -57z m-499 -19 c20 -15 41 -28 45 -28 5 0 29 16 53 35 24 19 46 34 48
31 2 -2 12 -64 22 -139 l18 -135 -23 -43 c-35 -70 -52 -80 -125 -77 l-64 3
-33 50 c-32 48 -33 53 -28 120 10 128 28 225 40 218 6 -3 27 -19 47 -35z
m-426 -199 l24 -70 -60 -156 c-61 -160 -84 -210 -74 -163 6 26 65 465 65 484
1 19 21 -23 45 -95z m1014 -134 c17 -127 31 -239 31 -250 -1 -11 -30 56 -66
149 l-64 168 25 72 c14 39 28 77 31 85 2 8 6 12 8 10 3 -2 18 -108 35 -234z
m-683 40 c16 -25 16 -27 -6 -50 -19 -20 -26 -22 -46 -13 -13 6 -24 15 -24 19
0 8 49 69 56 69 2 0 11 -11 20 -25z m354 -43 c0 -4 -10 -13 -21 -21 -19 -11
-24 -10 -46 12 -25 24 -25 25 -7 52 l18 27 28 -31 c15 -17 28 -35 28 -39z
m-584 -48 l18 -32 -121 -284 c-67 -155 -156 -365 -199 -466 -42 -100 -78 -181
-80 -180 -1 2 6 95 15 208 l17 205 66 110 c47 80 87 167 144 318 l79 207 22
-27 c12 -15 30 -42 39 -59z m1016 -430 c25 -39 52 -82 59 -95 10 -20 52 -428
44 -437 -2 -2 -353 817 -383 895 l-16 42 38 57 38 57 87 -224 c56 -144 103
-249 133 -295z m-727 446 c14 -16 31 -20 80 -20 49 0 66 4 80 20 22 24 33 25
57 3 13 -12 18 -31 18 -74 l0 -58 -47 -3 c-47 -3 -48 -3 -56 -44 -8 -41 -8
-42 -50 -40 -39 1 -42 3 -53 41 -10 39 -12 40 -57 43 l-47 3 0 56 c0 82 36
117 75 73z m-124 -10 c15 -9 19 -22 19 -65 0 -54 0 -55 -30 -55 -33 0 -34 4
-24 84 7 51 7 50 35 36z m443 -36 c10 -80 9 -84 -24 -84 -30 0 -30 1 -30 55 0
41 4 56 18 64 27 16 29 14 36 -35z m-520 -145 c-6 -46 -6 -47 40 -79 25 -18
46 -36 45 -39 0 -3 -51 -109 -112 -235 l-112 -229 -48 137 -48 137 92 215 91
215 29 -38 c25 -33 28 -44 23 -84z m711 -108 l85 -200 -45 -127 c-24 -70 -47
-129 -50 -132 -4 -4 -225 440 -225 452 0 2 20 17 45 35 45 32 46 34 40 76 -6
36 -3 49 21 84 22 33 29 39 36 27 5 -8 46 -105 93 -215z m-545 99 c49 -37 59
-40 116 -40 57 0 66 3 113 40 42 33 58 40 96 40 45 0 45 0 45 -34 0 -29 -7
-39 -42 -65 l-42 -31 -169 0 -168 0 -45 30 c-38 27 -44 36 -44 65 0 35 1 35
43 35 35 0 54 -8 97 -40z m40 25 c0 -8 -4 -15 -9 -15 -5 0 -14 7 -21 15 -10
13 -9 15 9 15 12 0 21 -6 21 -15z m182 -1 c-24 -17 -39 -14 -27 5 3 6 16 11
28 11 l21 0 -22 -16z m40 -139 c3 -3 -9 -32 -26 -65 l-31 -60 -90 0 -91 0 -27
55 c-15 31 -27 60 -27 65 0 10 282 15 292 5z m-284 -90 l32 -65 105 0 105 0
32 65 c18 36 35 65 38 65 7 0 230 -455 230 -469 0 -7 -354 -1021 -387 -1109
-11 -30 -19 -39 -24 -30 -4 7 -58 157 -119 333 -61 176 -150 430 -197 564
l-86 244 25 51 c14 28 65 133 113 234 49 100 91 182 94 182 4 0 21 -29 39 -65z
m-344 -270 l46 -129 -112 -231 c-61 -126 -115 -234 -119 -238 -6 -8 -73 139
-85 187 -3 15 33 112 107 284 61 145 113 261 115 260 1 -2 23 -62 48 -133z
m1132 -141 c57 -135 104 -250 104 -257 0 -14 -74 -194 -83 -203 -4 -4 -18 17
-31 47 -13 30 -65 137 -115 238 l-91 184 45 130 c25 71 45 132 45 136 1 14 26
-41 126 -275z m-939 -412 c73 -207 160 -456 193 -552 l60 -175 -122 125 c-298
303 -499 513 -496 520 15 37 224 460 228 460 3 0 64 -170 137 -378z m827 150
c61 -125 111 -230 113 -234 3 -6 -145 -161 -506 -528 -62 -63 -111 -110 -109
-104 18 64 384 1094 388 1094 3 0 54 -103 114 -228z"/>
</g>
</svg>
