<?xml version="1.0" standalone="no"?>
<!DOCTYPE svg PUBLIC "-//W3C//DTD SVG 20010904//EN"
 "http://www.w3.org/TR/2001/REC-SVG-20010904/DTD/svg10.dtd">
<svg version="1.0" xmlns="http://www.w3.org/2000/svg"
 width="1089.000000pt" height="1259.000000pt" viewBox="0 0 1089.000000 1259.000000"
 preserveAspectRatio="xMidYMid meet">

<g transform="translate(0.000000,1259.000000) scale(0.100000,-0.100000)"
fill="#000000" stroke="none">
<path d="M3988 11458 c-32 -4 -66 -11 -75 -16 -10 -6 -61 -24 -113 -41 -52
-18 -103 -36 -112 -41 -10 -6 -26 -10 -36 -10 -10 0 -24 -6 -30 -12 -7 -7 -16
-13 -20 -14 -17 -2 -69 -16 -87 -24 -11 -5 -38 -14 -60 -21 -22 -7 -44 -16
-50 -19 -5 -4 -30 -12 -55 -19 -25 -7 -56 -18 -68 -24 -22 -10 -28 -7 -65 33
-140 155 -166 180 -185 180 -12 0 -24 4 -27 10 -7 11 -94 8 -113 -4 -7 -4 -21
-4 -33 -1 -11 4 -25 2 -32 -3 -7 -6 -23 -10 -37 -11 -14 0 -38 -3 -55 -6 -16
-3 -50 -8 -75 -10 -58 -6 -199 -34 -225 -45 -11 -5 -27 -9 -35 -9 -16 -1 -162
-27 -170 -31 -3 -1 -13 -1 -23 0 -10 1 -24 -4 -32 -10 -8 -6 -23 -9 -34 -5
-10 3 -22 1 -26 -5 -3 -5 -22 -10 -41 -10 -19 0 -34 -5 -34 -11 0 -6 -9 -8
-20 -4 -12 4 -27 1 -35 -5 -8 -6 -23 -9 -33 -6 -11 4 -24 0 -32 -9 -7 -8 -20
-15 -29 -15 -9 0 -32 -18 -51 -41 -19 -22 -44 -51 -55 -64 -11 -13 -29 -35
-40 -50 -11 -15 -30 -37 -42 -50 -13 -12 -23 -27 -23 -33 0 -6 -9 -16 -20 -22
-11 -6 -20 -16 -20 -22 0 -11 -10 -23 -57 -72 -13 -13 -23 -28 -23 -33 0 -5
-9 -18 -20 -28 -11 -10 -20 -23 -20 -29 0 -6 -9 -17 -20 -24 -11 -7 -20 -18
-20 -26 0 -8 -7 -16 -15 -20 -8 -3 -20 -17 -25 -31 -5 -14 -14 -25 -20 -25 -5
0 -10 -7 -10 -15 0 -8 -12 -27 -26 -42 -50 -55 -54 -60 -54 -68 0 -5 -7 -15
-15 -24 -67 -70 -255 -328 -255 -350 0 -6 -9 -15 -20 -21 -11 -6 -20 -17 -20
-26 0 -8 -7 -17 -15 -20 -8 -3 -17 -15 -21 -26 -3 -11 -13 -29 -22 -39 -10
-10 -25 -28 -34 -39 -10 -11 -18 -27 -18 -35 0 -8 -9 -19 -20 -25 -11 -6 -20
-17 -20 -24 0 -7 -9 -21 -20 -31 -11 -10 -20 -23 -20 -29 0 -6 -9 -17 -20 -24
-11 -7 -20 -19 -20 -27 0 -8 -9 -19 -20 -25 -11 -6 -20 -17 -20 -26 0 -8 -7
-17 -15 -20 -8 -4 -15 -12 -15 -19 0 -8 -8 -21 -17 -31 -25 -24 -50 -69 -73
-129 -5 -11 -19 -49 -33 -85 -14 -36 -31 -83 -38 -105 -6 -22 -15 -49 -19 -60
-33 -88 -90 -278 -86 -283 3 -3 0 -12 -6 -20 -21 -25 -58 -144 -58 -188 0 -26
14 -74 35 -125 19 -46 35 -89 35 -95 0 -6 7 -17 15 -24 8 -7 15 -20 15 -30 0
-10 11 -40 24 -67 13 -26 34 -70 46 -98 12 -27 38 -84 57 -125 19 -41 45 -97
58 -125 61 -134 282 -593 296 -615 5 -8 12 -22 15 -30 3 -8 10 -22 15 -30 5
-8 12 -22 15 -30 12 -29 115 -245 125 -260 5 -8 12 -22 15 -30 3 -8 10 -22 15
-30 5 -8 12 -22 15 -30 13 -31 86 -186 95 -200 5 -8 12 -22 15 -30 3 -8 9 -24
14 -35 4 -11 13 -33 19 -50 7 -16 20 -41 30 -54 l18 -24 29 38 c35 46 173 185
183 185 4 0 15 -6 24 -12 16 -13 40 -164 53 -325 2 -33 8 -83 13 -109 5 -27 8
-51 5 -55 -2 -3 21 -156 52 -340 57 -346 61 -397 29 -464 -27 -59 -55 -126
-81 -192 -14 -38 -32 -81 -40 -98 -34 -73 -84 -201 -84 -216 0 -9 -7 -33 -15
-52 -8 -20 -15 -48 -15 -62 0 -34 33 -33 130 5 41 17 81 30 88 30 7 0 20 4 30
10 34 18 138 49 190 56 l52 7 -4 -49 c-2 -27 -6 -56 -9 -64 -3 -8 -11 -49 -17
-90 -6 -41 -14 -82 -17 -90 -4 -8 -8 -24 -9 -35 -2 -11 -6 -33 -9 -50 -7 -43
-75 -406 -80 -430 -9 -42 -86 -471 -88 -490 -1 -11 -5 -25 -10 -31 -4 -7 -7
-23 -7 -35 0 -30 -6 -70 -13 -89 -6 -17 -23 -123 -31 -193 -8 -70 -37 -76 448
85 151 50 248 77 262 74 12 -3 26 -2 29 4 12 19 33 10 38 -18 3 -15 13 -61 22
-102 9 -41 16 -86 15 -99 0 -12 3 -28 7 -34 3 -6 8 -33 10 -61 3 -28 9 -56 14
-62 5 -6 7 -19 3 -28 -3 -9 -1 -22 5 -30 6 -7 9 -21 5 -30 -3 -9 -2 -22 4 -29
6 -6 11 -25 11 -42 0 -16 1 -42 1 -57 1 -15 5 -30 10 -33 6 -4 7 -17 4 -30 -3
-12 -1 -26 6 -30 6 -4 8 -16 5 -26 -4 -11 -1 -26 5 -34 7 -8 9 -22 6 -31 -4
-9 -2 -22 3 -28 5 -6 10 -22 10 -36 1 -30 7 -83 11 -90 2 -3 5 -16 6 -30 2
-14 6 -41 9 -60 4 -19 8 -46 10 -60 3 -14 9 -47 15 -74 5 -26 7 -52 4 -58 -3
-5 -1 -15 5 -22 6 -7 13 -37 16 -67 17 -168 32 -249 46 -249 13 0 83 45 116
75 35 31 74 64 108 90 14 11 37 29 50 40 12 11 35 29 50 40 14 11 34 28 43 38
9 9 20 17 25 17 5 0 22 13 39 30 36 37 41 37 57 3 8 -16 17 -36 22 -45 5 -10
9 -27 9 -37 0 -11 5 -23 10 -26 5 -3 10 -14 10 -24 0 -10 7 -24 15 -31 8 -7
15 -23 15 -36 0 -12 5 -26 10 -29 6 -3 10 -14 10 -24 0 -10 7 -24 15 -31 8 -7
15 -23 15 -36 0 -13 5 -24 10 -24 6 0 10 -11 10 -24 0 -14 5 -28 10 -31 6 -3
10 -14 10 -24 0 -10 7 -24 15 -31 8 -7 15 -21 15 -31 0 -20 3 -27 36 -89 10
-19 17 -36 15 -38 -4 -4 40 -114 49 -125 13 -15 68 21 102 67 18 24 56 79 83
121 28 43 57 88 65 100 8 12 24 35 35 51 11 16 27 38 37 49 10 11 24 29 32 40
14 20 15 19 38 -5 13 -14 48 -47 76 -73 29 -27 52 -52 52 -57 0 -4 9 -10 20
-13 11 -3 20 -12 20 -20 0 -9 9 -18 19 -22 11 -3 23 -15 26 -25 3 -10 15 -22
25 -25 10 -3 22 -15 25 -26 4 -10 12 -19 20 -19 7 0 20 -11 29 -25 9 -14 23
-25 31 -25 8 0 15 -5 15 -11 0 -15 114 -129 129 -129 6 0 11 -7 11 -16 0 -9 9
-18 20 -21 11 -3 20 -9 20 -13 0 -13 75 -90 88 -90 7 0 12 -4 12 -10 0 -13
117 -130 129 -130 5 0 12 -9 16 -19 3 -11 15 -23 25 -26 10 -3 22 -15 25 -26
4 -10 13 -19 21 -19 8 0 19 -11 24 -25 5 -14 16 -25 24 -25 8 0 18 -9 21 -20
3 -11 11 -20 16 -20 6 0 86 -77 179 -171 l169 -172 43 7 c36 6 55 19 113 76
70 68 113 109 246 230 39 36 94 88 123 115 29 28 69 65 89 83 21 18 37 37 37
42 0 6 5 10 12 10 7 0 34 23 60 50 26 28 52 50 58 50 5 0 10 7 10 15 0 8 4 15
10 15 5 0 42 31 82 70 167 160 221 210 224 210 2 0 35 30 73 68 104 100 207
194 224 204 18 9 67 -38 142 -138 24 -32 53 -71 65 -86 11 -14 20 -31 20 -37
0 -5 6 -14 13 -18 7 -4 28 -33 47 -63 51 -81 89 -120 115 -120 20 0 26 10 45
72 13 40 31 98 41 128 10 30 25 84 34 120 9 36 20 74 25 85 7 20 33 105 65
215 34 120 39 135 47 144 9 12 57 -12 76 -36 7 -10 17 -18 22 -18 5 0 28 -18
50 -40 22 -22 45 -40 50 -40 5 0 14 -9 20 -19 5 -11 19 -23 30 -26 11 -3 20
-12 20 -20 0 -8 9 -17 20 -20 11 -3 25 -15 30 -26 6 -10 17 -19 25 -19 8 0 19
-9 25 -20 6 -11 14 -20 18 -20 4 0 38 -30 76 -66 l70 -67 17 22 c23 29 51 123
56 191 2 30 8 80 14 110 13 66 16 85 23 125 3 17 9 53 14 80 5 28 10 57 11 65
0 8 19 116 41 240 22 124 43 245 45 270 3 25 14 95 25 155 11 61 23 124 25
140 3 17 7 44 10 60 3 17 8 46 10 64 7 54 36 76 99 75 33 0 63 -7 79 -17 15
-9 31 -17 37 -17 6 0 18 -7 26 -15 9 -8 24 -15 35 -15 10 0 19 -4 19 -9 0 -5
12 -14 28 -20 15 -6 34 -15 42 -20 8 -5 51 -27 95 -49 44 -21 110 -56 146 -76
59 -32 69 -35 82 -22 12 13 12 24 1 83 -22 113 -33 184 -39 263 -4 41 -10 95
-15 120 -5 24 -7 47 -4 51 2 3 -1 33 -6 65 -6 32 -15 109 -21 169 -6 61 -12
126 -14 145 -7 70 -15 136 -20 170 -3 19 -7 60 -10 90 -3 30 -7 71 -10 90 -3
19 -7 58 -10 85 -10 98 -16 151 -21 195 -8 61 -10 211 -4 215 7 4 159 -44 180
-56 8 -5 22 -12 30 -15 8 -3 23 -10 32 -15 10 -5 25 -9 33 -9 9 0 27 -7 40
-16 14 -9 25 -13 25 -9 0 4 6 3 13 -3 11 -9 203 -92 213 -92 13 0 0 48 -26 93
-17 30 -30 59 -30 65 0 6 -18 50 -41 99 -22 48 -47 102 -54 118 -19 45 -58
131 -95 210 -18 39 -37 81 -42 95 -6 14 -17 37 -24 51 -31 60 -26 250 12 489
9 52 18 115 20 140 3 25 7 61 10 80 2 19 5 42 5 50 1 8 7 57 15 107 8 51 17
114 19 140 22 224 46 342 73 351 11 3 52 -30 113 -90 15 -16 32 -28 38 -28 6
0 11 -4 11 -9 0 -5 26 -34 57 -64 66 -64 73 -63 99 16 9 29 32 86 51 127 19
41 46 100 60 130 13 30 29 62 34 70 5 8 12 22 15 30 3 8 10 23 15 32 5 10 9
25 9 33 0 8 4 15 8 15 5 0 16 19 26 43 9 23 21 49 27 57 5 8 12 22 15 30 3 8
10 23 15 32 5 10 9 23 9 29 0 6 7 17 15 25 8 9 15 24 15 35 0 10 5 19 10 19 6
0 10 5 10 12 0 11 60 141 98 213 21 41 26 51 57 120 15 33 31 67 36 75 5 8 12
22 15 30 16 41 27 66 35 80 5 8 12 22 15 30 9 21 33 72 43 90 5 8 14 29 21 45
7 17 16 37 21 45 5 8 12 22 15 30 6 16 26 59 89 195 20 44 48 105 62 135 14
30 29 62 34 70 5 8 12 22 15 30 4 8 22 47 40 85 18 39 40 97 49 129 17 59 15
84 -15 161 -4 11 -13 36 -20 55 -7 19 -16 44 -20 55 -4 11 -13 36 -20 55 -7
19 -16 44 -20 55 -4 11 -18 47 -30 80 -21 59 -44 113 -61 147 -5 10 -9 25 -9
33 0 8 -4 23 -9 33 -5 9 -23 47 -40 83 -17 37 -38 72 -46 79 -8 7 -15 16 -15
21 0 8 -8 18 -55 70 -8 9 -15 20 -15 25 0 5 -8 17 -17 26 -10 9 -27 29 -38 44
-11 14 -28 35 -37 45 -10 11 -18 23 -18 29 0 5 -6 13 -13 17 -7 4 -20 19 -29
33 -8 14 -26 37 -39 51 -13 14 -28 33 -34 41 -47 70 -71 103 -125 168 -162
199 -390 491 -390 500 0 5 -4 10 -9 10 -5 0 -23 19 -40 43 -49 68 -65 87 -83
105 -10 9 -18 22 -18 28 0 7 -7 14 -15 18 -8 3 -15 12 -15 20 0 9 -9 20 -20
26 -11 6 -20 16 -20 22 0 6 -7 18 -15 27 -48 53 -55 62 -55 71 0 5 -9 15 -20
22 -11 7 -20 17 -20 23 0 9 -37 50 -90 99 -18 17 -137 46 -290 71 -61 9 -76
12 -96 19 -11 3 -38 8 -60 11 -21 2 -73 12 -114 20 -97 20 -291 56 -310 57 -8
0 -51 7 -95 14 -44 8 -98 14 -121 14 -40 0 -124 -33 -124 -49 0 -4 -8 -18 -17
-29 -10 -12 -32 -41 -49 -64 -87 -123 -82 -118 -126 -118 -23 0 -66 11 -97 26
-31 14 -80 37 -108 50 -29 13 -76 35 -105 49 -29 13 -93 43 -143 67 -87 41
-93 42 -183 41 -53 -1 -100 -7 -107 -13 -8 -7 -18 -9 -23 -6 -5 3 -124 -15
-263 -39 -140 -25 -267 -47 -284 -49 -171 -23 -278 -39 -315 -47 -126 -29
-371 -66 -415 -63 -27 2 -111 15 -185 29 -74 13 -147 27 -163 29 -15 3 -31 7
-35 10 -4 2 -66 14 -137 26 -72 12 -135 26 -140 31 -6 4 -20 8 -30 8 -11 -1
-47 6 -80 15 -33 9 -103 25 -155 37 -52 12 -133 30 -180 41 -47 10 -92 20
-100 22 -34 7 -76 18 -95 25 -11 4 -46 4 -77 -1z m-968 -95 c14 -10 34 -29 45
-43 11 -13 39 -46 63 -73 23 -26 42 -57 42 -68 0 -21 -75 -137 -97 -152 -7 -4
-13 -13 -13 -19 0 -6 -7 -18 -15 -27 -31 -33 -95 -121 -95 -131 0 -5 -5 -10
-10 -10 -6 0 -15 -11 -20 -25 -5 -14 -14 -25 -20 -25 -5 0 -10 -6 -10 -13 0
-8 -9 -22 -20 -32 -11 -10 -20 -22 -20 -27 0 -7 -8 -17 -55 -69 -8 -9 -15 -19
-15 -24 0 -4 -16 -27 -35 -51 -19 -23 -35 -47 -35 -52 0 -5 -7 -12 -15 -16 -8
-3 -15 -11 -15 -17 0 -7 -7 -19 -15 -28 -45 -48 -65 -75 -65 -87 0 -8 -5 -14
-10 -14 -6 0 -14 -8 -17 -17 -6 -15 -15 -26 -58 -74 -8 -9 -15 -21 -15 -27 0
-6 -6 -15 -12 -19 -14 -8 -58 -68 -58 -78 0 -5 -10 -18 -50 -62 -11 -13 -20
-26 -20 -29 0 -3 -16 -25 -35 -48 -19 -24 -35 -46 -35 -50 0 -5 -8 -15 -55
-67 -8 -9 -15 -21 -15 -27 0 -6 -6 -15 -13 -19 -6 -4 -25 -27 -41 -50 -16 -24
-33 -43 -37 -43 -5 0 -11 -11 -15 -24 -3 -14 -12 -27 -20 -30 -8 -3 -14 -11
-14 -18 0 -7 -9 -19 -20 -26 -11 -7 -20 -18 -20 -26 0 -8 -7 -16 -15 -20 -8
-3 -15 -10 -15 -16 0 -6 -25 -42 -55 -80 -30 -38 -55 -73 -55 -78 0 -6 -7 -12
-15 -16 -8 -3 -15 -11 -15 -18 0 -7 -9 -19 -20 -26 -11 -7 -20 -19 -20 -27 0
-8 -6 -18 -13 -22 -6 -4 -25 -27 -41 -50 -16 -24 -32 -43 -37 -43 -4 0 -10 -9
-14 -19 -3 -11 -12 -22 -21 -25 -23 -9 -11 34 41 149 15 33 31 69 35 80 5 11
17 40 28 65 11 25 28 63 37 85 9 22 22 54 29 70 7 17 18 41 23 55 6 14 23 52
38 85 15 33 31 69 35 80 7 19 17 39 85 190 15 33 31 69 35 80 4 11 20 47 35
80 16 33 39 84 51 113 23 50 42 93 100 220 15 31 32 69 40 83 7 14 11 28 8 31
-2 3 2 11 11 18 8 7 15 21 15 31 0 11 4 19 9 19 5 0 12 14 16 30 4 17 11 30
16 30 5 0 9 8 9 18 0 10 5 23 11 29 6 6 11 17 13 24 1 8 18 48 38 89 20 41 39
82 42 90 3 8 10 22 15 30 5 8 15 29 22 45 7 17 18 37 24 45 7 8 24 45 40 82
15 37 36 75 47 85 13 11 65 24 156 39 172 27 182 28 212 7z m955 -12 c-4 -9
-10 -36 -15 -61 -5 -25 -14 -63 -20 -85 -6 -22 -13 -48 -14 -57 -1 -10 -5 -21
-9 -24 -4 -4 -7 -18 -7 -31 0 -13 -4 -31 -9 -41 -5 -9 -15 -37 -21 -62 -7 -25
-16 -54 -20 -65 -10 -24 -24 -76 -25 -92 0 -6 -4 -15 -8 -19 -4 -4 -7 -20 -7
-35 0 -15 -4 -31 -10 -34 -5 -3 -10 -15 -10 -26 0 -10 -4 -27 -9 -37 -5 -9
-15 -37 -21 -62 -7 -25 -16 -54 -20 -65 -4 -11 -13 -38 -19 -60 -5 -22 -14
-51 -18 -65 -4 -14 -7 -29 -8 -35 -1 -5 -4 -17 -7 -25 -3 -8 -18 -69 -32 -135
-15 -65 -33 -126 -41 -135 -8 -9 -15 -22 -15 -28 0 -7 -5 -12 -10 -12 -6 0
-16 -12 -23 -27 -6 -16 -17 -32 -24 -36 -7 -4 -13 -14 -13 -21 0 -7 -9 -21
-20 -31 -11 -10 -20 -26 -20 -35 0 -10 -7 -20 -15 -24 -8 -3 -15 -12 -15 -19
0 -8 -9 -22 -20 -32 -11 -10 -20 -22 -20 -27 0 -4 -16 -31 -35 -58 -19 -27
-35 -53 -35 -58 0 -4 -9 -15 -20 -25 -11 -9 -20 -23 -20 -31 0 -8 -7 -16 -15
-20 -8 -3 -15 -14 -15 -23 0 -10 -9 -26 -20 -36 -11 -9 -20 -23 -20 -31 0 -8
-7 -16 -15 -20 -8 -3 -15 -12 -15 -19 0 -8 -9 -22 -20 -32 -11 -10 -20 -26
-20 -37 0 -10 -4 -18 -8 -18 -9 0 -62 -77 -62 -89 0 -5 -9 -16 -20 -26 -11
-10 -20 -24 -20 -32 0 -7 -7 -16 -15 -19 -8 -4 -15 -12 -15 -20 0 -8 -9 -22
-20 -31 -11 -10 -20 -25 -20 -35 0 -10 -4 -18 -8 -18 -11 0 -62 -78 -62 -93 0
-7 -9 -18 -20 -25 -11 -7 -20 -17 -20 -22 0 -6 -23 -41 -51 -77 -28 -37 -60
-88 -71 -113 -12 -25 -27 -57 -35 -72 -8 -16 -11 -28 -8 -28 3 0 -2 -15 -11
-32 -31 -60 -34 -68 -34 -87 0 -10 -7 -24 -15 -31 -8 -7 -15 -21 -15 -31 0
-10 -4 -21 -10 -24 -5 -3 -10 -17 -10 -29 0 -13 -7 -29 -15 -36 -8 -7 -15 -21
-15 -31 0 -10 -4 -21 -10 -24 -5 -3 -10 -14 -10 -24 0 -10 -11 -39 -25 -65
-14 -26 -25 -53 -25 -61 0 -7 -8 -28 -17 -47 -30 -61 -33 -68 -33 -85 0 -10
-7 -27 -15 -37 -8 -10 -12 -22 -10 -26 3 -4 -2 -13 -10 -20 -8 -7 -15 -21 -15
-32 0 -11 -7 -26 -15 -34 -8 -8 -12 -20 -9 -28 3 -7 -2 -19 -11 -26 -8 -7 -15
-21 -15 -31 0 -11 -4 -27 -9 -37 -5 -9 -17 -35 -26 -57 -10 -22 -22 -48 -26
-57 -5 -10 -9 -25 -9 -34 0 -8 -7 -22 -15 -30 -8 -9 -15 -24 -15 -34 0 -10 -4
-22 -10 -25 -6 -3 -10 -17 -10 -31 0 -13 -4 -24 -10 -24 -5 0 -13 -12 -16 -27
-4 -16 -13 -37 -20 -48 -20 -33 -26 -81 -15 -122 9 -34 41 -84 109 -173 10
-14 26 -47 36 -75 l16 -50 -31 -80 c-18 -44 -43 -103 -56 -132 -13 -28 -23
-57 -23 -63 0 -10 -4 -20 -33 -76 -9 -17 -14 -34 -11 -37 4 -3 -1 -13 -10 -22
-9 -9 -16 -23 -16 -31 0 -8 -4 -22 -9 -32 -21 -38 -61 -131 -61 -142 0 -5 -4
-18 -9 -28 -10 -19 -33 -72 -50 -114 -11 -29 -24 -61 -46 -113 -7 -16 -18 -41
-23 -55 -6 -14 -22 -51 -36 -82 -14 -31 -26 -64 -26 -72 0 -9 -4 -16 -9 -16
-5 0 -14 -13 -20 -30 -5 -16 -17 -30 -25 -30 -16 0 -38 32 -42 65 -2 11 -14
85 -28 165 -25 144 -32 195 -40 278 -3 24 -7 55 -10 70 -3 15 -8 59 -11 97 -3
39 -8 88 -10 110 -3 22 -7 69 -10 105 -3 36 -10 89 -15 119 -19 104 -18 108
71 199 45 45 85 82 90 82 5 0 12 12 15 28 4 15 14 37 21 49 8 12 12 27 8 33
-4 6 -1 17 5 25 7 8 10 24 7 35 -3 11 -1 23 5 26 5 3 8 16 7 27 -1 12 1 29 4
37 3 8 15 71 26 140 22 132 26 219 10 235 -5 5 -9 19 -9 31 0 13 -4 26 -10 29
-5 3 -10 17 -10 30 0 13 -4 26 -9 29 -8 5 -13 25 -25 94 -3 13 -9 29 -15 36
-6 7 -8 16 -4 19 3 4 2 17 -4 30 -13 26 -22 54 -53 157 -12 41 -26 84 -30 95
-4 11 -13 40 -20 65 -6 25 -16 53 -21 62 -5 10 -9 25 -9 33 0 8 -4 23 -9 33
-5 9 -15 37 -21 62 -7 25 -15 52 -18 60 -3 8 -6 20 -7 25 -1 13 -34 124 -45
151 -5 12 -11 42 -15 67 -7 45 -5 49 44 112 28 35 51 69 51 75 0 5 5 10 10 10
6 0 14 8 17 18 4 9 31 47 60 84 29 37 53 69 53 72 0 4 8 14 18 24 9 10 24 29
32 42 8 12 23 32 32 44 40 48 128 167 128 171 0 3 8 13 18 23 9 10 24 29 32
41 33 49 75 101 82 101 4 0 8 8 8 18 0 9 9 23 20 30 11 7 20 19 20 27 0 8 5
15 10 15 6 0 13 8 17 18 3 9 12 24 20 32 14 16 118 154 143 190 40 59 91 127
105 141 8 9 15 21 15 27 0 6 9 16 20 22 11 6 20 17 20 26 0 8 7 17 15 20 8 4
15 12 15 19 0 6 9 20 20 30 11 10 20 22 20 27 0 4 8 16 18 26 9 10 24 29 32
42 8 13 23 32 33 42 9 10 17 22 17 26 0 5 9 17 20 27 11 10 20 24 20 30 0 7 7
15 15 19 8 3 15 12 15 20 0 8 6 19 13 23 13 8 57 68 57 78 0 4 9 15 55 66 8 9
15 21 15 27 0 6 6 15 13 19 13 8 57 68 57 78 0 4 9 15 55 66 8 9 15 21 15 27
0 6 6 15 13 19 7 4 30 30 52 56 42 52 75 73 175 106 36 12 74 26 85 31 11 5
38 14 60 21 22 7 45 16 50 19 6 4 30 13 55 20 25 7 50 16 55 20 6 4 30 12 55
20 25 7 49 17 55 22 5 4 18 8 30 8 12 0 25 4 31 8 7 7 63 26 109 37 18 4 27
-7 20 -24z m223 4 c29 -4 55 -12 58 -16 3 -5 14 -9 25 -9 18 0 53 -15 88 -39
14 -9 13 -12 -74 -161 -6 -10 -17 -26 -25 -35 -17 -20 -35 -51 -49 -82 -6 -13
-15 -23 -20 -23 -5 0 -13 -9 -16 -21 -4 -12 -16 -30 -26 -40 -10 -10 -19 -25
-19 -33 0 -8 -7 -16 -15 -20 -8 -3 -15 -12 -15 -21 0 -8 -9 -24 -20 -35 -11
-11 -20 -27 -20 -35 0 -8 -4 -15 -9 -15 -9 0 -21 -18 -53 -80 -7 -14 -16 -27
-20 -30 -8 -7 -58 -79 -58 -86 0 -2 -16 -27 -35 -54 -19 -27 -35 -54 -35 -58
0 -5 -9 -17 -20 -27 -11 -10 -20 -23 -20 -29 0 -6 -10 -17 -21 -24 -20 -13
-21 -12 -16 20 3 18 10 51 17 73 6 22 11 48 11 57 0 10 4 20 10 23 5 4 9 17 9
31 0 13 4 32 9 42 5 9 15 37 21 62 7 25 16 54 20 65 10 24 24 76 25 92 0 6 4
15 8 19 4 4 7 20 7 35 0 15 5 31 10 34 6 3 10 17 10 30 0 13 5 27 10 30 6 3
10 19 10 35 0 16 4 31 9 34 8 5 13 26 24 86 2 9 6 20 9 25 3 6 16 44 28 85 35
120 28 115 168 95z m3662 -10 c133 -31 139 -35 174 -104 35 -69 60 -115 66
-121 5 -5 15 -23 77 -140 19 -36 50 -92 68 -125 35 -62 65 -119 129 -243 21
-39 42 -75 47 -78 5 -3 9 -14 9 -25 0 -10 3 -19 8 -19 4 0 18 -24 32 -52 13
-29 27 -55 30 -58 3 -3 15 -26 28 -52 13 -26 27 -50 33 -53 5 -4 9 -15 9 -26
0 -11 7 -22 15 -25 8 -4 15 -11 15 -18 0 -6 16 -41 35 -76 19 -36 40 -77 46
-92 6 -16 15 -28 20 -28 5 0 9 -9 9 -19 0 -11 5 -23 11 -26 5 -4 14 -17 20
-28 5 -12 13 -29 18 -37 6 -8 18 -34 27 -57 10 -24 21 -43 26 -43 4 0 8 -9 8
-19 0 -11 5 -23 11 -26 5 -4 14 -17 20 -28 5 -12 13 -30 19 -39 18 -33 29 -53
67 -130 21 -43 41 -78 45 -78 5 0 8 -9 8 -19 0 -11 4 -22 9 -26 12 -7 71 -124
71 -140 0 -7 7 -18 15 -25 8 -7 15 -16 15 -21 0 -14 -18 -10 -32 6 -7 9 -30
34 -50 56 -21 22 -38 45 -38 50 0 5 -9 14 -20 21 -11 7 -20 17 -20 22 0 5 -10
18 -22 30 -21 19 -47 51 -113 133 -11 13 -30 36 -42 50 -13 14 -23 30 -23 34
0 5 -7 9 -15 9 -8 0 -15 7 -15 15 0 8 -9 20 -20 27 -11 7 -20 18 -20 25 0 7
-9 17 -20 23 -11 6 -20 16 -20 22 0 6 -10 20 -22 32 -13 12 -39 41 -58 64 -19
24 -44 54 -55 67 -11 12 -36 42 -55 66 -19 24 -45 53 -57 65 -13 12 -23 25
-23 29 0 5 -7 15 -15 24 -67 70 -95 102 -95 109 0 5 -10 18 -22 29 -13 11 -39
40 -58 64 -19 23 -44 53 -55 66 -11 13 -29 35 -40 49 -11 14 -27 33 -35 41 -8
9 -35 41 -60 72 -53 67 -63 79 -112 131 -21 22 -38 43 -38 47 0 4 -9 16 -20
28 -52 53 -100 107 -100 113 0 4 -20 30 -45 57 -54 60 -59 66 -100 119 -58 76
-57 71 -6 155 25 42 52 80 58 84 7 4 13 13 13 19 0 5 10 21 23 34 21 23 27 24
102 20 44 -3 91 -8 105 -11z m-1087 -130 c15 -55 32 -118 38 -140 6 -22 15
-49 19 -60 13 -37 28 -90 35 -125 3 -19 10 -46 14 -60 5 -14 14 -45 21 -70 6
-25 16 -52 20 -61 5 -9 12 -38 15 -65 4 -27 11 -53 15 -59 4 -5 10 -21 13 -35
3 -14 14 -61 26 -104 12 -44 19 -81 16 -84 -9 -10 -36 9 -45 32 -5 13 -14 27
-20 31 -6 4 -16 17 -21 28 -5 12 -18 36 -29 52 -11 17 -25 42 -31 58 -6 15
-15 27 -19 27 -9 0 -31 36 -50 82 -6 14 -18 29 -26 32 -8 3 -14 14 -14 25 0
11 -6 24 -12 28 -20 13 -58 71 -58 88 0 9 -7 18 -15 21 -8 4 -15 12 -15 20 0
8 -9 22 -20 31 -11 10 -20 26 -20 36 0 9 -7 20 -15 23 -8 4 -15 12 -15 20 0 8
-9 22 -20 31 -11 10 -20 26 -20 36 0 9 -7 20 -15 23 -8 4 -15 12 -15 20 0 8
-8 22 -17 32 -27 27 -53 83 -56 116 -2 27 2 30 37 38 22 5 45 13 51 18 6 5 20
7 32 4 11 -3 23 -2 26 3 3 5 41 9 84 8 l78 0 28 -100z m157 74 c30 -12 64 -25
75 -30 44 -17 51 -19 65 -27 40 -23 61 -32 74 -32 7 0 19 -7 26 -15 7 -8 21
-15 31 -15 11 0 19 -3 19 -7 0 -5 21 -17 48 -27 143 -57 191 -88 259 -164 38
-41 76 -83 86 -93 9 -11 17 -23 17 -27 0 -5 10 -18 23 -29 12 -11 38 -40 57
-64 19 -24 45 -54 58 -67 12 -12 22 -26 22 -29 0 -4 7 -13 15 -22 16 -18 42
-48 95 -112 19 -24 46 -54 60 -69 14 -15 41 -46 60 -69 19 -24 44 -54 55 -67
11 -13 29 -36 40 -50 11 -14 37 -44 58 -66 20 -22 37 -44 37 -48 0 -5 9 -14
20 -20 11 -6 20 -16 20 -22 0 -6 10 -20 23 -32 12 -12 38 -41 57 -65 60 -74
74 -91 95 -115 11 -12 36 -42 55 -65 19 -24 44 -54 55 -67 11 -12 29 -35 40
-49 11 -14 37 -44 58 -66 20 -22 37 -45 37 -49 0 -5 9 -14 20 -20 11 -6 20
-16 20 -23 0 -7 9 -18 20 -25 11 -7 20 -17 20 -22 0 -9 26 -38 95 -111 8 -9
15 -19 15 -24 0 -4 10 -17 23 -29 12 -12 38 -41 57 -65 19 -24 45 -54 58 -66
12 -12 22 -27 22 -33 0 -6 4 -12 9 -14 13 -4 110 -127 128 -162 16 -30 15 -32
-17 -136 -23 -72 -44 -147 -45 -160 -1 -8 -5 -22 -7 -30 -3 -8 -11 -35 -18
-60 -6 -25 -16 -53 -21 -62 -5 -10 -9 -27 -9 -38 0 -11 -4 -28 -9 -38 -5 -9
-14 -35 -20 -57 -6 -22 -18 -65 -26 -95 -9 -30 -21 -73 -27 -95 -5 -22 -14
-48 -19 -57 -5 -10 -9 -29 -9 -42 0 -14 -4 -28 -10 -31 -5 -3 -10 -15 -10 -26
0 -10 -4 -27 -9 -37 -5 -9 -19 -51 -32 -92 -46 -155 -81 -266 -89 -281 -12
-23 -5 -132 19 -284 11 -71 23 -150 26 -175 11 -97 18 -125 31 -133 8 -4 14
-16 14 -26 0 -10 9 -26 21 -37 12 -10 30 -36 41 -57 18 -36 18 -46 7 -135 -6
-53 -13 -113 -15 -132 -5 -56 -13 -120 -25 -198 -6 -40 -13 -94 -15 -120 -3
-26 -6 -58 -9 -72 -6 -37 -15 -119 -19 -167 -2 -23 -7 -46 -10 -51 -3 -6 -8
-36 -11 -69 -3 -32 -9 -80 -14 -108 -5 -27 -7 -53 -5 -56 7 -12 -18 -69 -29
-69 -15 0 -75 118 -129 250 -5 14 -16 38 -24 53 -8 16 -14 34 -14 42 0 7 -7
18 -15 25 -8 7 -15 20 -15 30 0 10 -12 42 -26 72 -15 29 -30 62 -35 73 -25 62
-44 105 -65 148 -13 27 -24 57 -24 67 0 10 -7 23 -15 30 -8 7 -15 19 -15 26 0
8 -4 22 -10 32 -13 24 -60 131 -60 138 0 3 -11 29 -25 59 l-26 54 47 83 c26
46 55 89 66 96 10 7 18 19 18 25 0 7 9 18 20 25 11 7 20 16 20 21 0 5 17 27
38 50 41 45 68 119 53 149 -4 9 -15 33 -23 52 -9 19 -22 51 -31 70 -27 62 -36
85 -42 108 -4 12 -11 22 -16 22 -5 0 -9 9 -9 20 0 11 -4 28 -9 38 -4 9 -16 35
-26 57 -9 22 -21 48 -26 57 -5 10 -9 25 -9 33 0 8 -4 23 -9 33 -22 45 -41 91
-52 127 -7 22 -19 47 -26 56 -7 8 -13 23 -13 32 0 10 -4 25 -9 35 -4 9 -16 35
-26 57 -9 22 -21 48 -26 57 -5 10 -9 25 -9 33 0 15 -3 23 -33 83 -9 19 -17 40
-17 48 0 8 -4 22 -9 32 -4 9 -16 35 -26 57 -9 22 -21 48 -26 57 -5 10 -9 27
-9 37 0 11 -4 22 -9 26 -5 3 -12 19 -16 35 -4 17 -11 30 -16 30 -5 0 -9 9 -9
20 0 11 -4 28 -9 38 -5 9 -23 47 -41 85 -17 37 -46 86 -63 110 -54 71 -87 123
-87 134 0 6 -7 13 -15 17 -8 3 -15 14 -15 25 0 11 -6 24 -13 28 -7 4 -18 20
-24 36 -7 15 -17 27 -23 27 -5 0 -10 9 -10 20 0 10 -6 23 -13 27 -7 4 -18 20
-24 36 -7 15 -17 27 -23 27 -5 0 -10 6 -10 14 0 8 -6 21 -13 28 -7 7 -18 24
-25 38 -7 14 -21 39 -32 55 -11 17 -23 37 -28 45 -23 44 -55 90 -63 90 -5 0
-9 7 -9 15 0 8 -15 37 -33 63 -18 26 -37 54 -41 62 -13 27 -32 58 -46 75 -19
22 -37 54 -50 87 -6 14 -18 29 -26 32 -8 3 -14 14 -14 25 0 10 -7 21 -15 25
-8 3 -15 15 -15 26 0 11 -6 23 -14 26 -8 3 -17 16 -20 30 -4 13 -11 24 -16 24
-20 0 -57 101 -74 205 -10 61 -24 124 -31 140 -7 17 -18 50 -25 75 -7 25 -15
52 -18 60 -3 8 -6 22 -7 30 -2 20 -15 70 -25 95 -4 11 -13 40 -20 65 -7 25
-15 52 -18 60 -3 8 -7 24 -8 35 -8 52 -17 86 -25 91 -5 3 -9 18 -9 34 0 16 -4
32 -10 35 -5 3 -10 17 -10 30 0 13 -5 27 -11 30 -6 4 -8 14 -5 22 3 8 1 24 -6
36 -6 12 -13 31 -14 42 -3 26 -21 101 -33 144 -11 37 2 76 22 68 7 -3 37 -15
67 -28z m-4406 -6 c8 -21 -7 -69 -56 -173 -53 -113 -85 -182 -92 -200 -3 -8
-10 -22 -15 -30 -8 -14 -19 -39 -35 -80 -3 -8 -10 -22 -15 -30 -13 -21 -151
-316 -171 -365 -13 -33 -61 -138 -76 -166 -7 -14 -11 -28 -8 -31 2 -3 -2 -11
-11 -18 -8 -7 -15 -19 -15 -26 0 -8 -4 -22 -9 -32 -5 -9 -19 -37 -29 -62 -11
-25 -34 -76 -52 -115 -32 -71 -41 -92 -68 -155 -8 -19 -19 -43 -23 -52 -5 -10
-9 -25 -9 -33 0 -8 -4 -15 -9 -15 -5 0 -12 -10 -16 -22 -8 -28 -15 -45 -50
-123 -15 -33 -31 -69 -35 -80 -7 -19 -21 -50 -85 -190 -45 -99 -52 -110 -77
-110 -13 0 -22 5 -20 13 1 7 -3 23 -10 35 -6 12 -13 29 -15 37 -12 67 -16 81
-24 86 -5 3 -9 18 -9 34 0 16 -4 32 -10 35 -5 3 -10 15 -10 26 0 10 -4 27 -9
37 -5 9 -14 37 -21 62 -7 25 -16 53 -22 63 -5 11 -7 21 -4 24 3 3 0 15 -5 26
-6 11 -12 29 -14 41 -1 11 -9 41 -17 66 -8 25 -21 65 -28 90 -6 25 -16 53 -21
62 -5 10 -9 27 -9 37 0 11 -5 23 -11 26 -6 4 -8 14 -5 22 3 8 0 24 -8 35 -8
11 -12 27 -9 34 3 8 1 20 -5 27 -5 6 -18 56 -28 110 l-18 99 21 16 c11 10 24
28 28 42 4 14 16 31 26 38 11 7 19 19 19 27 0 8 6 18 13 22 6 4 26 28 42 53
16 25 36 49 42 53 7 4 13 14 13 22 0 8 9 19 20 25 11 6 20 17 20 24 0 7 9 21
20 31 11 10 20 22 20 27 0 4 8 17 18 27 9 11 25 30 34 43 9 13 29 37 43 54 14
18 25 36 25 42 0 5 9 12 20 15 11 3 20 12 20 21 0 15 11 30 60 81 11 12 20 24
20 27 0 4 10 18 23 30 12 13 38 43 57 67 51 64 92 101 112 101 9 0 20 5 23 10
4 6 15 8 25 5 10 -3 27 -1 37 4 16 9 176 41 213 42 8 0 22 3 30 7 18 7 186 38
216 41 12 0 25 -6 28 -16z m5806 -28 c91 -15 172 -29 180 -32 14 -5 37 -9 85
-16 11 -1 26 -6 33 -10 7 -5 21 -6 31 -2 11 3 22 1 26 -5 3 -5 15 -10 26 -10
41 0 79 -32 153 -127 42 -54 83 -105 91 -114 8 -9 15 -19 15 -24 0 -5 7 -15
15 -24 46 -51 55 -62 55 -66 0 -5 305 -397 372 -477 36 -44 98 -139 98 -150 0
-4 -12 -47 -26 -95 -14 -49 -32 -113 -39 -143 -20 -82 -31 -120 -48 -170 -9
-25 -18 -63 -22 -85 -4 -22 -10 -49 -15 -60 -4 -11 -13 -40 -20 -65 -7 -25
-16 -54 -20 -65 -4 -11 -13 -38 -19 -60 -5 -22 -14 -51 -17 -65 -4 -14 -9 -32
-10 -40 -12 -66 -21 -84 -48 -93 -33 -11 -48 3 -84 73 -12 25 -27 52 -32 60
-5 8 -11 22 -14 30 -4 8 -15 29 -26 45 -11 17 -22 37 -26 45 -3 8 -9 22 -14
30 -5 8 -25 47 -45 85 -71 137 -93 177 -104 188 -6 6 -11 19 -11 28 0 10 -3
19 -7 21 -5 2 -18 23 -31 48 -23 46 -34 66 -52 98 -6 9 -14 27 -19 39 -6 11
-15 24 -20 28 -6 3 -11 14 -11 24 0 10 -7 24 -15 31 -8 7 -15 21 -15 30 0 10
-3 20 -7 22 -5 2 -18 23 -31 48 -13 25 -39 72 -57 105 -19 33 -37 67 -40 75
-4 8 -10 22 -15 30 -5 8 -26 48 -47 89 -60 117 -66 126 -75 129 -4 2 -8 12 -8
22 0 10 -4 21 -9 24 -5 3 -26 39 -46 78 -63 122 -103 197 -125 236 -6 9 -14
27 -19 39 -6 11 -15 24 -20 28 -6 3 -11 15 -11 26 0 10 -4 19 -10 19 -5 0 -10
6 -10 13 0 6 -13 40 -29 74 -31 65 -31 75 3 68 12 -2 95 -16 186 -30z m-3603
-21 c93 -15 106 -20 120 -43 44 -72 82 -120 188 -235 22 -24 67 -74 100 -111
92 -104 177 -185 195 -185 9 0 21 5 26 10 6 6 20 12 32 15 22 4 212 189 212
206 0 5 7 9 15 9 9 0 18 7 22 17 3 9 31 41 62 72 31 31 84 88 119 128 58 66
67 72 110 78 26 4 54 9 62 12 18 8 55 13 90 14 14 0 30 5 36 10 6 5 19 7 28 3
9 -3 22 -2 29 4 7 6 27 7 47 3 43 -8 50 -33 21 -72 -12 -15 -21 -32 -21 -37 0
-5 -9 -17 -20 -27 -11 -10 -20 -22 -20 -27 0 -4 -16 -31 -35 -58 -19 -27 -35
-54 -35 -58 0 -5 -9 -17 -20 -27 -11 -10 -20 -24 -20 -32 0 -7 -4 -13 -9 -13
-5 0 -13 -9 -16 -20 -3 -11 -12 -26 -18 -32 -22 -24 -67 -94 -67 -105 0 -6 -7
-13 -15 -17 -8 -3 -15 -15 -15 -26 0 -11 -5 -20 -10 -20 -6 0 -16 -12 -23 -27
-6 -16 -17 -32 -24 -36 -7 -4 -13 -16 -13 -25 0 -9 -9 -23 -20 -30 -11 -7 -20
-21 -20 -32 0 -11 -4 -20 -8 -20 -5 0 -24 -24 -42 -52 -19 -29 -63 -98 -99
-153 -74 -112 -86 -131 -100 -160 -5 -12 -16 -27 -25 -34 -9 -7 -16 -19 -16
-26 0 -7 -7 -19 -16 -26 -9 -7 -20 -22 -25 -34 -16 -34 -35 -64 -52 -83 -10
-10 -17 -22 -17 -26 0 -8 -79 -107 -95 -118 -11 -8 -24 9 -65 90 -17 34 -35
64 -40 67 -6 4 -10 15 -10 26 0 10 -4 19 -10 19 -5 0 -10 6 -10 14 0 7 -9 25
-20 39 -11 14 -20 32 -20 41 0 9 -7 19 -15 22 -8 4 -15 14 -15 24 0 10 -7 23
-15 30 -8 7 -15 20 -15 29 0 9 -4 21 -9 26 -5 6 -35 59 -65 119 -31 60 -59
112 -63 115 -5 3 -21 32 -36 63 -15 31 -32 60 -37 63 -6 3 -10 14 -10 25 0 10
-7 20 -15 24 -8 3 -15 14 -15 24 0 11 -7 25 -15 32 -8 7 -15 21 -15 32 0 10
-7 21 -15 24 -8 4 -15 14 -15 24 0 10 -6 25 -13 32 -6 7 -24 39 -40 70 -15 31
-32 60 -37 63 -6 3 -10 14 -10 25 0 10 -7 20 -15 24 -8 3 -15 14 -15 24 0 11
-7 25 -15 32 -8 7 -15 21 -15 32 0 10 -7 21 -15 24 -8 4 -15 12 -15 20 0 7 -9
30 -20 51 -11 21 -22 53 -26 70 l-6 32 42 -4 c24 -2 90 -12 147 -21z m-266
-40 c17 -20 57 -88 99 -169 17 -33 40 -73 51 -90 10 -16 21 -36 24 -42 3 -7 7
-19 10 -25 3 -7 14 -26 25 -43 10 -16 33 -57 50 -90 17 -33 46 -87 65 -120 89
-160 108 -203 101 -231 -7 -26 -97 -124 -115 -124 -4 0 -20 -10 -34 -22 -14
-13 -37 -32 -52 -43 -14 -11 -35 -27 -45 -37 -10 -9 -27 -19 -38 -22 -11 -4
-23 -13 -26 -21 -3 -8 -12 -15 -20 -15 -9 0 -20 -9 -26 -20 -6 -11 -17 -20
-25 -20 -8 0 -19 -9 -25 -20 -6 -11 -17 -20 -25 -20 -8 0 -20 -9 -27 -20 -7
-11 -16 -20 -21 -20 -9 0 -46 -26 -147 -103 -41 -31 -85 -65 -98 -75 -13 -9
-32 -25 -43 -34 -10 -10 -23 -18 -29 -18 -5 0 -15 -9 -22 -20 -7 -11 -17 -20
-21 -20 -5 0 -23 -11 -41 -25 -17 -14 -41 -34 -54 -43 -13 -9 -31 -25 -40 -34
-9 -10 -22 -18 -29 -18 -7 0 -17 -9 -23 -20 -6 -11 -17 -20 -24 -20 -7 0 -21
-9 -31 -20 -10 -11 -22 -20 -27 -20 -8 0 -18 -8 -65 -50 -13 -11 -26 -20 -29
-20 -3 0 -27 -17 -53 -37 -25 -21 -62 -49 -81 -62 -34 -24 -44 -31 -85 -68
-12 -10 -41 -31 -65 -48 -25 -16 -49 -36 -53 -42 -4 -7 -14 -13 -22 -13 -8 0
-20 -9 -27 -20 -7 -11 -18 -20 -24 -20 -6 0 -19 -9 -29 -20 -10 -11 -23 -20
-29 -20 -6 0 -17 -9 -24 -20 -7 -11 -17 -20 -24 -20 -6 0 -18 -7 -27 -15 -52
-47 -62 -55 -69 -55 -5 0 -17 -9 -26 -19 -10 -11 -32 -23 -50 -26 -17 -4 -41
-18 -53 -33 -42 -50 -34 -14 12 52 25 36 45 69 45 73 0 3 7 15 17 25 17 19 36
49 52 83 5 12 16 27 25 34 9 7 16 19 16 26 0 6 9 20 20 30 11 10 20 24 20 30
0 7 7 15 15 19 8 3 15 12 15 19 0 8 9 24 20 37 11 13 20 29 20 37 0 7 4 13 8
13 11 0 62 78 62 96 0 8 4 14 9 14 8 0 42 48 61 85 10 21 85 130 97 143 7 7
13 19 13 27 0 7 7 15 15 19 8 3 15 14 15 25 0 11 9 25 20 31 11 6 20 20 20 30
0 11 5 20 10 20 6 0 16 12 23 28 6 15 17 31 24 35 7 4 13 15 13 22 0 8 9 24
20 35 11 11 20 27 20 35 0 8 4 15 9 15 8 0 47 56 60 84 2 5 19 29 37 54 19 24
34 50 34 58 0 8 7 17 15 20 8 4 15 12 15 20 0 8 9 22 20 31 11 10 20 24 20 33
0 9 9 23 20 33 11 9 20 23 20 31 0 8 7 16 15 20 8 3 15 12 15 19 0 8 9 24 20
37 11 13 20 29 20 35 0 7 7 15 15 19 8 3 15 14 15 25 0 11 9 25 20 31 11 6 20
20 20 30 0 11 5 20 11 20 5 0 15 13 20 29 6 16 17 32 25 35 8 3 14 10 14 16 0
6 16 33 35 60 19 27 35 56 35 64 0 8 7 16 15 20 8 3 20 16 26 28 15 34 34 66
51 85 8 10 18 26 21 36 4 9 11 17 17 17 5 0 10 7 10 15 0 8 9 23 20 32 11 10
20 26 20 36 0 9 7 20 15 23 8 3 23 21 34 40 23 38 32 41 52 18z m758 -54 l165
-29 148 25 c141 23 198 29 198 20 0 -28 -49 -93 -135 -179 -58 -59 -105 -111
-105 -117 0 -5 -4 -10 -9 -10 -5 0 -25 -17 -45 -37 -20 -21 -44 -46 -53 -56
-27 -28 -61 -13 -130 60 -35 36 -63 68 -63 70 0 3 -19 24 -42 48 -79 81 -188
214 -188 229 0 7 53 14 75 9 11 -2 94 -17 184 -33z m1173 3 c21 -20 38 -41 38
-45 0 -5 16 -31 35 -58 19 -27 35 -52 35 -55 0 -3 15 -27 33 -53 51 -76 57
-85 68 -114 6 -16 14 -28 19 -28 4 0 13 -13 20 -30 7 -16 16 -30 21 -30 4 0
11 -10 15 -22 4 -13 9 -25 13 -28 14 -11 61 -87 61 -98 0 -6 6 -15 13 -19 6
-4 23 -30 37 -57 14 -26 31 -50 38 -53 6 -3 12 -13 12 -24 0 -10 6 -22 13 -26
7 -4 18 -19 25 -33 7 -14 20 -37 30 -52 9 -15 41 -67 71 -115 30 -48 80 -126
110 -173 66 -100 76 -117 93 -150 7 -14 18 -29 25 -33 7 -4 13 -17 13 -28 0
-11 7 -22 15 -25 8 -4 15 -12 15 -20 0 -8 9 -22 20 -31 11 -10 20 -25 20 -35
0 -9 6 -21 13 -25 7 -4 18 -19 25 -33 13 -27 21 -41 68 -110 16 -25 34 -52 38
-60 9 -19 23 -43 61 -100 41 -62 53 -82 64 -105 5 -12 16 -27 25 -34 9 -7 16
-22 16 -32 0 -11 5 -19 11 -19 5 0 15 -13 20 -30 6 -16 15 -30 19 -30 4 0 13
-13 19 -30 5 -16 15 -30 20 -30 6 0 11 -9 11 -20 0 -10 6 -23 13 -27 17 -10
48 -73 42 -84 -7 -10 -34 -1 -58 19 -19 17 -51 36 -84 51 -13 6 -23 15 -23 21
0 6 -8 14 -17 17 -10 4 -39 22 -65 40 -26 18 -51 33 -56 33 -4 0 -15 9 -25 20
-9 11 -24 20 -32 20 -8 0 -15 4 -15 8 0 9 -77 62 -90 62 -5 0 -13 6 -17 13 -7
11 -107 81 -138 97 -37 19 -85 53 -85 61 0 5 -6 9 -14 9 -8 0 -21 6 -28 13
-12 12 -38 30 -97 69 -14 10 -36 22 -48 28 -13 5 -23 14 -23 20 0 5 -11 12
-25 16 -14 3 -25 9 -25 13 0 8 -78 61 -89 61 -5 0 -16 9 -26 20 -10 11 -24 20
-32 20 -7 0 -16 6 -19 14 -3 8 -16 17 -30 20 -13 4 -24 11 -24 16 0 6 -10 15
-22 20 -13 5 -50 30 -83 55 -33 25 -67 48 -75 52 -8 4 -36 22 -62 40 -26 18
-54 33 -62 33 -8 0 -16 7 -20 15 -3 8 -16 20 -28 26 -34 15 -66 34 -85 51 -10
9 -22 17 -28 19 -26 11 -85 52 -85 60 0 5 -9 9 -20 9 -10 0 -24 9 -30 20 -6
11 -20 20 -30 20 -11 0 -20 4 -20 8 0 8 -31 29 -138 96 l-43 27 38 72 c21 39
46 80 56 91 9 11 17 25 17 32 0 6 7 14 15 18 8 3 15 15 15 26 0 11 5 20 11 20
5 0 17 16 25 35 8 19 19 35 24 35 6 0 10 7 10 15 0 8 9 23 20 32 11 10 20 24
20 33 0 8 9 21 20 28 11 7 20 21 20 32 0 11 4 20 8 20 9 0 62 77 62 89 0 5 9
16 20 26 11 10 20 22 20 27 0 4 16 31 35 58 19 27 35 53 35 58 0 4 9 15 20 25
11 9 20 24 20 32 0 8 5 15 10 15 6 0 13 8 17 18 6 18 53 72 62 72 3 0 22 -17
43 -37z m-1430 -856 c9 -7 20 -25 23 -40 4 -15 10 -27 14 -27 3 0 17 -24 31
-52 13 -29 37 -75 52 -101 15 -26 28 -55 28 -63 0 -8 7 -17 15 -20 8 -4 15
-14 15 -24 0 -11 4 -21 9 -24 5 -4 19 -27 32 -54 12 -26 28 -54 34 -62 7 -8
25 -49 40 -90 30 -85 31 -94 40 -615 15 -905 16 -1164 5 -1186 -14 -26 -188
-199 -200 -199 -5 0 -12 -9 -15 -20 -3 -11 -13 -20 -21 -20 -8 0 -14 -4 -14
-10 0 -9 -66 -80 -76 -80 -9 0 -74 -69 -74 -80 0 -5 -7 -10 -16 -10 -9 0 -18
-9 -21 -20 -3 -11 -10 -20 -17 -20 -6 0 -24 -17 -41 -36 -16 -20 -36 -41 -43
-48 -45 -40 -82 -79 -82 -86 0 -5 -9 -11 -19 -15 -10 -3 -21 -15 -24 -25 -3
-11 -13 -20 -22 -20 -12 0 -15 -5 -11 -16 3 -9 6 -24 6 -35 0 -10 7 -19 15
-19 15 0 215 196 215 211 0 5 4 9 8 9 12 0 82 69 82 80 0 6 4 10 9 10 11 0
131 120 131 131 0 5 7 9 16 9 9 0 18 9 21 20 3 11 9 20 13 20 4 0 42 34 85 75
43 41 82 75 86 75 17 0 21 -67 25 -422 5 -430 4 -437 -63 -458 -21 -7 -42 -16
-47 -21 -6 -5 -18 -9 -28 -9 -10 0 -26 -4 -36 -9 -25 -13 -121 -41 -143 -41
-10 0 -21 -4 -24 -10 -3 -5 -17 -10 -30 -10 -13 0 -27 -5 -30 -10 -4 -6 -12
-10 -18 -9 -14 3 -63 -9 -92 -21 -11 -5 -33 -12 -50 -16 -16 -4 -32 -8 -35 -9
-3 -1 -18 -5 -35 -9 -16 -4 -39 -11 -50 -16 -39 -15 -127 -40 -146 -40 -10 0
-21 -4 -24 -10 -3 -5 -15 -10 -26 -10 -10 0 -27 -4 -37 -9 -9 -5 -44 -17 -77
-25 -108 -29 -129 -38 -169 -64 -21 -14 -42 -35 -47 -47 -5 -11 -13 -27 -19
-35 -11 -18 -57 -120 -84 -190 -3 -8 -10 -22 -15 -30 -11 -18 -25 -53 -41
-100 -6 -19 -19 -48 -28 -65 -9 -16 -15 -31 -14 -32 2 -4 -8 -34 -23 -68 -7
-16 -23 -57 -35 -90 -26 -71 -39 -104 -51 -127 -5 -10 -9 -25 -9 -33 0 -8 -4
-24 -10 -35 -5 -11 -14 -29 -20 -40 -5 -11 -10 -27 -10 -35 0 -8 -4 -23 -9
-33 -5 -9 -14 -30 -21 -47 -20 -48 -42 -99 -51 -117 -5 -10 -9 -25 -9 -33 0
-8 -4 -24 -10 -35 -5 -11 -14 -29 -20 -40 -5 -11 -10 -27 -10 -35 0 -8 -4 -24
-10 -35 -6 -11 -15 -29 -20 -40 -5 -11 -10 -27 -10 -35 0 -8 -4 -23 -9 -33
-22 -44 -36 -75 -36 -86 -1 -11 -8 -31 -30 -81 -8 -16 -17 -42 -20 -58 -7 -27
-121 -149 -150 -161 -8 -3 -15 -12 -15 -21 0 -8 -7 -15 -15 -15 -8 0 -20 -9
-27 -20 -7 -11 -18 -20 -24 -20 -6 0 -20 -10 -32 -23 -11 -12 -32 -31 -47 -42
-14 -11 -42 -35 -61 -52 -20 -18 -47 -33 -60 -33 -13 0 -27 -1 -31 -2 -4 -2
-20 69 -35 157 -16 88 -31 171 -33 185 -3 14 -7 39 -10 55 -2 17 -7 46 -11 65
-13 77 -7 106 40 206 26 54 51 106 56 114 11 20 96 191 104 210 3 8 10 22 15
30 5 8 57 114 116 235 58 121 112 233 120 248 8 16 15 35 15 43 0 8 4 14 8 14
7 0 16 18 46 90 3 8 10 22 15 30 5 8 27 53 49 100 47 100 164 344 198 413 13
27 24 55 24 62 0 7 7 18 15 25 8 7 15 20 15 30 0 10 7 23 15 30 8 7 15 21 15
31 0 11 5 19 10 19 6 0 10 8 10 19 0 10 7 24 15 31 8 7 15 18 15 24 0 6 18 47
40 90 22 43 40 84 40 92 0 8 4 14 8 14 7 0 16 18 46 90 3 8 10 22 15 30 5 8
12 22 15 30 3 8 10 22 15 30 5 8 39 78 77 155 87 179 85 176 131 265 21 42 46
94 55 116 11 25 49 69 100 116 46 41 120 111 166 154 45 44 109 104 142 134
38 35 60 63 60 77 0 12 5 25 11 29 16 10 -4 120 -32 176 -5 10 -9 25 -9 33 0
8 -4 23 -9 33 -5 9 -14 35 -20 57 -10 36 -54 182 -84 275 -6 19 -15 39 -19 45
-4 5 -8 19 -8 31 0 13 -4 26 -10 29 -5 3 -10 19 -10 35 0 16 -5 32 -10 35 -6
4 -8 11 -4 16 3 5 -1 21 -10 34 -9 13 -16 33 -16 44 0 11 -5 23 -10 26 -6 4
-8 10 -5 16 5 7 -19 95 -45 164 -4 11 -13 40 -20 65 -6 25 -16 53 -21 62 -5
10 -9 27 -9 37 0 11 -4 22 -9 25 -5 3 -11 20 -14 38 -3 18 -10 51 -16 73 -15
54 -1 83 60 129 27 21 49 42 49 47 0 5 6 9 14 9 12 0 39 20 87 65 9 8 21 15
27 15 7 0 17 9 24 20 7 11 18 20 24 20 6 0 19 9 29 20 10 11 24 20 31 20 7 0
18 9 24 20 6 11 17 20 25 20 8 0 20 8 27 19 7 10 22 21 34 25 11 3 35 22 54
41 37 38 46 41 72 22z m783 -87 c9 -14 140 -100 153 -100 5 0 12 -7 16 -15 3
-8 16 -20 28 -26 36 -16 66 -34 86 -52 10 -10 23 -17 29 -17 5 0 18 -9 28 -20
10 -11 24 -20 30 -20 7 0 15 -7 19 -15 3 -8 14 -15 25 -15 11 0 21 -4 23 -9 2
-5 46 -38 98 -73 57 -39 96 -72 98 -84 1 -11 -10 -49 -26 -84 -16 -36 -39 -99
-51 -140 -13 -41 -27 -84 -32 -95 -4 -11 -13 -38 -20 -60 -7 -22 -18 -53 -24
-70 -12 -28 -25 -67 -31 -90 -2 -5 -24 -68 -49 -140 -25 -71 -53 -152 -61
-180 -9 -27 -20 -58 -25 -67 -5 -10 -9 -27 -9 -37 0 -11 -4 -23 -10 -26 -5 -3
-10 -17 -10 -30 0 -13 -4 -27 -10 -30 -5 -3 -10 -17 -10 -30 0 -13 -4 -26 -9
-29 -5 -3 -23 -51 -41 -106 -26 -82 -31 -109 -25 -147 7 -49 5 -46 132 -175
18 -18 39 -39 45 -46 7 -7 28 -27 47 -45 19 -18 39 -38 45 -45 6 -7 19 -21 29
-30 43 -39 111 -152 218 -362 32 -63 63 -123 69 -132 17 -30 25 -47 126 -248
54 -107 102 -196 106 -198 4 -2 8 -12 8 -22 0 -9 7 -23 15 -30 8 -7 15 -20 15
-30 0 -10 7 -23 15 -30 8 -7 15 -20 15 -30 0 -10 7 -23 15 -30 8 -7 15 -20 15
-30 0 -10 7 -23 15 -30 8 -7 15 -20 15 -30 0 -10 7 -23 15 -30 8 -7 15 -18 15
-25 0 -13 30 -75 41 -85 3 -3 27 -50 53 -105 26 -55 52 -107 57 -115 5 -8 14
-27 20 -42 6 -16 15 -28 20 -28 5 0 9 -8 9 -19 0 -10 7 -24 15 -31 8 -7 15
-20 15 -30 0 -10 7 -23 15 -30 8 -7 15 -20 15 -30 0 -10 7 -23 15 -30 8 -7 15
-20 15 -30 0 -10 7 -23 15 -30 8 -7 15 -18 15 -25 0 -10 205 -426 249 -505 28
-50 121 -248 121 -257 0 -6 7 -16 15 -23 8 -7 15 -20 15 -30 0 -10 7 -23 15
-30 8 -7 15 -20 15 -30 0 -10 7 -23 15 -30 8 -7 15 -21 15 -32 0 -10 7 -21 15
-24 8 -4 15 -17 15 -30 0 -12 7 -27 16 -32 13 -7 16 -24 16 -73 0 -71 -4 -109
-13 -124 -4 -5 -10 -35 -14 -65 -4 -30 -12 -60 -17 -67 -5 -7 -7 -21 -3 -32 3
-10 2 -22 -4 -25 -5 -3 -12 -33 -16 -66 -4 -33 -11 -63 -16 -66 -5 -3 -9 -15
-9 -27 0 -32 -37 -87 -58 -87 -19 0 -78 40 -118 79 -12 12 -25 21 -31 21 -5 0
-19 10 -31 23 -11 12 -33 31 -47 42 -39 30 -116 97 -143 125 -22 22 -82 177
-114 295 -6 22 -15 45 -20 52 -5 7 -16 34 -23 60 -7 26 -25 80 -40 118 -33 89
-65 185 -70 209 -2 10 -8 23 -13 30 -5 6 -14 31 -22 56 -7 25 -17 49 -22 55
-4 5 -8 17 -8 27 0 10 -4 26 -9 36 -5 9 -20 49 -32 87 -13 39 -26 74 -31 80
-4 5 -8 19 -8 31 0 13 -4 26 -10 29 -5 3 -10 16 -10 29 0 12 -3 26 -7 29 -7 8
-59 153 -78 221 -8 27 -19 54 -24 59 -6 6 -11 19 -11 30 0 35 -71 185 -101
211 -16 15 -50 33 -77 42 -26 8 -56 19 -67 24 -11 5 -49 18 -85 30 -36 11 -73
25 -82 30 -10 6 -26 10 -36 10 -10 0 -22 4 -28 8 -5 4 -27 14 -49 21 -22 7
-49 16 -60 21 -11 5 -63 23 -115 40 -52 17 -104 35 -115 40 -11 5 -38 14 -60
21 -22 7 -44 17 -49 21 -6 4 -18 8 -28 8 -10 0 -26 4 -36 10 -9 5 -58 23 -108
40 -137 45 -181 67 -188 92 -9 31 -19 702 -11 755 l6 43 40 -21 c22 -11 48
-28 58 -37 9 -9 48 -44 86 -77 37 -33 90 -80 116 -105 27 -25 69 -63 94 -85
25 -22 65 -59 90 -82 24 -24 48 -43 54 -43 5 0 13 -9 16 -20 3 -11 12 -20 18
-20 6 0 20 -9 32 -20 86 -87 117 -110 135 -100 44 24 42 26 -115 165 -37 33
-89 80 -115 105 -27 25 -61 56 -77 69 -46 39 -152 133 -204 181 -26 25 -85 79
-130 120 -44 41 -88 88 -96 104 -12 22 -16 82 -19 275 -2 135 -6 415 -10 621
-3 206 -7 479 -8 605 -3 257 -8 235 79 370 25 39 49 79 54 90 5 12 16 27 25
34 9 7 16 20 16 28 0 7 6 16 14 19 8 3 19 18 25 32 12 29 22 44 89 141 41 58
71 76 87 51z m-4551 -67 c10 -32 22 -71 27 -88 4 -16 17 -59 27 -95 11 -36 28
-92 37 -125 9 -33 21 -69 25 -80 4 -11 13 -40 20 -65 7 -25 16 -54 20 -65 4
-11 13 -40 20 -65 6 -25 22 -79 34 -120 13 -41 29 -95 35 -120 7 -25 17 -53
22 -62 5 -10 9 -29 9 -42 0 -14 5 -28 10 -31 6 -3 10 -15 10 -26 0 -10 4 -27
9 -37 5 -9 21 -64 37 -122 15 -58 31 -112 35 -120 4 -8 13 -35 19 -60 7 -25
16 -54 20 -65 4 -11 13 -40 20 -65 7 -25 16 -54 20 -65 4 -11 15 -47 24 -80
23 -84 57 -196 66 -220 4 -11 13 -40 20 -65 6 -25 16 -53 21 -62 5 -10 9 -27
9 -37 0 -11 5 -23 10 -26 6 -3 10 -19 10 -34 0 -15 4 -31 8 -37 5 -5 14 -29
21 -54 7 -25 17 -53 22 -62 5 -10 9 -27 9 -37 0 -11 5 -23 10 -26 6 -3 10 -19
10 -35 0 -16 4 -31 9 -34 18 -11 17 -70 -1 -174 -20 -112 -27 -154 -31 -187
-1 -11 -6 -26 -10 -33 -5 -7 -6 -20 -3 -28 3 -8 1 -22 -4 -32 -5 -9 -12 -38
-15 -63 -5 -40 -14 -55 -60 -100 -89 -89 -112 -104 -140 -89 -12 7 -28 22 -34
34 -22 41 -37 64 -51 81 -17 20 -35 51 -49 83 -6 12 -15 22 -21 22 -5 0 -10 9
-10 20 0 11 -7 23 -15 26 -8 4 -15 15 -15 25 0 11 -7 22 -15 25 -8 4 -15 10
-15 15 0 5 -15 31 -32 57 -45 65 -56 84 -68 107 -6 11 -19 34 -30 50 -11 17
-24 40 -30 53 -5 12 -14 22 -20 22 -5 0 -12 11 -16 25 -3 14 -10 25 -15 25 -5
0 -14 10 -19 23 -6 12 -19 36 -30 52 -11 17 -23 37 -27 45 -4 8 -22 36 -40 62
-18 26 -33 52 -33 58 0 6 -7 13 -15 16 -8 4 -15 14 -15 25 0 10 -6 22 -13 26
-8 4 -17 15 -21 23 -12 26 -31 57 -46 75 -17 20 -35 51 -49 83 -6 12 -15 22
-21 22 -5 0 -10 9 -10 20 0 11 -7 23 -15 26 -8 4 -15 12 -15 19 0 6 -9 20 -20
30 -11 10 -20 24 -20 32 0 7 -7 16 -15 19 -8 4 -15 15 -15 25 0 11 -7 22 -15
25 -8 4 -15 12 -15 19 0 6 -9 20 -20 30 -11 10 -20 22 -20 27 0 6 -8 20 -17
33 -10 12 -25 33 -33 45 -8 12 -45 60 -83 107 -37 46 -65 87 -63 91 2 4 7 41
11 82 6 66 51 233 76 282 5 10 9 27 9 37 0 11 5 23 10 26 6 3 10 17 10 30 0
13 5 27 10 30 6 3 10 17 10 30 0 13 5 27 10 30 6 3 10 17 10 30 0 13 5 27 10
30 6 3 10 14 10 24 0 10 11 39 25 65 14 26 25 53 25 60 0 7 9 21 20 31 11 10
20 22 20 27 0 8 8 18 50 66 11 12 20 28 20 36 0 8 7 16 15 20 8 3 20 17 25 31
5 14 14 25 19 25 5 0 13 9 16 21 7 20 14 30 55 77 11 12 20 26 20 30 0 5 9 17
20 27 11 10 20 24 20 31 0 7 9 18 20 24 11 6 20 17 20 26 0 8 7 17 15 20 8 3
17 14 20 25 7 20 64 89 75 89 3 0 14 -26 24 -57z m-102 15 c-7 -7 -12 -8 -12
-2 0 14 12 26 19 19 2 -3 -1 -11 -7 -17z m8557 -103 c33 -41 61 -77 61 -79 0
-3 16 -22 35 -43 19 -21 35 -43 35 -48 0 -6 8 -18 18 -27 9 -8 26 -28 37 -42
11 -15 28 -35 38 -44 9 -9 17 -21 17 -26 0 -5 7 -16 15 -25 47 -52 55 -62 55
-69 0 -5 9 -17 20 -27 11 -10 20 -24 20 -31 0 -7 3 -14 8 -16 7 -3 28 -44 49
-98 6 -14 15 -36 21 -50 5 -14 20 -52 32 -85 12 -33 26 -69 30 -80 4 -11 18
-47 30 -80 12 -33 27 -73 34 -90 19 -43 47 -124 59 -168 13 -49 -1 -80 -75
-168 -30 -35 -74 -93 -97 -128 -24 -35 -51 -71 -60 -80 -9 -10 -25 -31 -37
-47 -73 -103 -94 -135 -94 -144 0 -5 -5 -10 -10 -10 -6 0 -14 -8 -17 -17 -4
-10 -22 -39 -40 -65 -18 -26 -33 -52 -33 -58 0 -5 -4 -10 -8 -10 -8 0 -60 -72
-88 -121 -6 -10 -18 -27 -27 -37 -10 -10 -17 -23 -17 -29 0 -6 -3 -13 -7 -15
-5 -1 -21 -23 -38 -48 -16 -25 -32 -47 -35 -50 -11 -11 -50 -70 -50 -75 0 -4
-15 -25 -33 -48 -19 -23 -37 -49 -40 -57 -11 -24 -31 -54 -45 -65 -7 -6 -18
-20 -25 -32 -7 -13 -30 -48 -53 -80 -22 -32 -57 -82 -77 -110 -20 -29 -37 -57
-37 -63 0 -5 -4 -10 -9 -10 -9 0 -48 -58 -63 -92 -4 -10 -12 -18 -18 -18 -5 0
-10 -4 -10 -10 0 -5 -16 -31 -36 -57 -20 -27 -46 -67 -57 -90 -12 -24 -27 -43
-34 -43 -20 0 -69 54 -78 86 -9 30 -12 44 -20 107 -2 20 -7 54 -10 75 -3 20
-5 49 -5 64 0 15 -5 30 -10 33 -6 4 -9 14 -6 23 3 10 -1 54 -8 100 -9 56 -10
96 -4 125 5 23 12 54 15 70 3 15 9 27 14 27 5 0 9 13 9 29 0 17 5 33 10 36 6
3 10 17 10 30 0 13 5 27 10 30 6 3 10 19 10 35 0 16 5 32 10 35 6 3 10 15 10
26 0 10 4 27 9 37 5 9 15 37 21 62 7 25 17 54 22 66 5 11 8 24 7 30 -2 5 3 19
10 32 7 13 10 29 8 36 -3 6 1 20 8 29 7 10 11 27 8 37 -3 11 0 20 6 20 6 0 11
11 11 25 0 14 4 33 9 43 5 9 15 37 21 62 7 25 17 54 22 66 5 11 8 24 7 30 -2
5 3 19 10 32 7 13 10 30 7 37 -2 7 2 19 9 25 9 8 13 21 9 36 -4 15 -2 24 5 24
6 0 11 13 11 29 0 17 5 33 10 36 6 3 10 19 10 35 0 16 5 32 10 35 6 3 10 17
10 30 0 13 5 27 10 30 6 3 10 17 10 31 0 13 4 32 9 42 14 27 53 161 58 204 3
21 10 41 14 44 5 3 9 18 9 34 0 16 4 31 9 34 5 3 12 20 15 38 3 18 9 42 11 53
3 11 8 35 11 53 4 18 10 35 15 38 5 3 9 16 9 30 0 13 4 32 9 42 5 9 14 37 21
62 7 25 16 55 21 67 5 13 6 29 3 37 -3 8 -1 17 5 21 6 3 11 17 11 30 0 13 5
27 10 30 6 3 10 19 10 35 0 16 4 31 9 34 8 5 12 22 25 92 2 12 11 35 20 52 9
17 16 38 16 47 0 15 27 75 34 75 2 0 31 -34 65 -75z m-5338 -276 c3 -14 13
-41 21 -60 9 -19 25 -68 38 -109 12 -41 26 -84 30 -95 8 -18 21 -73 22 -85 0
-3 4 -13 10 -24 6 -10 11 -28 13 -40 1 -11 14 -55 27 -96 14 -41 31 -95 38
-120 6 -25 16 -55 21 -67 5 -13 6 -30 3 -38 -8 -20 -60 -19 -98 0 -16 9 -35
14 -42 11 -7 -3 -18 2 -24 10 -7 8 -23 14 -36 14 -12 0 -26 5 -29 10 -3 6 -17
10 -30 10 -13 0 -27 5 -30 10 -3 6 -17 10 -30 10 -13 0 -27 5 -30 10 -3 6 -17
10 -30 10 -13 0 -27 5 -30 10 -3 6 -17 10 -30 10 -13 0 -27 5 -30 10 -3 6 -17
10 -30 10 -13 0 -27 5 -30 10 -3 6 -17 10 -30 10 -13 0 -27 5 -30 10 -3 6 -17
10 -29 10 -13 0 -29 7 -36 15 -7 8 -23 15 -36 15 -12 0 -26 5 -29 10 -3 6 -17
10 -30 10 -13 0 -27 5 -30 10 -3 6 -15 10 -27 10 -25 0 -72 36 -58 45 6 3 8
11 5 16 -4 5 5 13 18 18 13 5 27 17 30 25 4 9 12 16 18 16 12 0 24 10 73 58
13 12 28 22 33 22 5 0 18 9 28 20 10 11 24 20 30 20 7 0 15 7 19 15 3 8 17 20
31 25 14 5 25 14 25 20 0 5 7 10 15 10 8 0 20 9 27 20 7 11 18 20 24 20 6 0
19 9 29 20 10 11 24 20 31 20 7 0 18 9 24 20 6 11 16 20 23 20 7 0 31 18 55
39 62 57 91 62 103 20z m2209 -94 c30 -19 64 -39 75 -44 12 -5 27 -16 34 -25
7 -9 20 -16 27 -16 8 0 14 -4 14 -8 0 -9 77 -62 89 -62 5 0 16 -9 26 -20 10
-11 24 -20 32 -20 7 0 16 -7 19 -15 4 -8 12 -15 20 -15 8 0 22 -9 31 -20 10
-11 22 -20 29 -20 6 0 19 -9 29 -20 10 -11 22 -20 27 -20 12 0 69 -41 90 -65
35 -40 21 -64 -47 -85 -22 -7 -48 -16 -57 -21 -10 -5 -25 -9 -33 -9 -8 0 -23
-4 -33 -9 -9 -5 -37 -14 -62 -21 -25 -7 -53 -16 -62 -21 -10 -5 -29 -9 -42 -9
-14 0 -28 -5 -31 -10 -4 -6 -10 -8 -15 -5 -5 3 -19 1 -32 -4 -13 -5 -43 -14
-68 -21 -25 -7 -53 -16 -62 -21 -10 -5 -27 -9 -37 -9 -11 0 -23 -4 -26 -10 -3
-5 -17 -10 -31 -10 -13 0 -32 -4 -42 -10 -20 -11 -105 -31 -142 -33 -20 -2
-26 3 -28 23 -4 23 29 144 49 182 5 10 9 27 9 37 0 11 5 23 10 26 6 3 10 17
10 30 0 13 5 27 10 30 6 3 10 17 10 30 0 13 5 27 10 30 6 3 10 17 10 30 0 13
5 27 10 30 6 3 10 17 10 30 0 13 5 27 10 30 6 3 10 16 10 29 0 12 4 26 9 32 5
5 14 27 21 49 18 58 39 95 53 95 6 0 37 -16 67 -35z m-2805 -466 c5 -5 19 -9
31 -9 13 0 26 -4 29 -10 3 -5 17 -10 30 -10 13 0 27 -4 30 -10 3 -5 17 -10 30
-10 13 0 27 -4 30 -10 3 -5 17 -10 30 -10 13 0 27 -4 30 -10 3 -5 17 -10 30
-10 13 0 27 -4 30 -10 3 -5 17 -10 30 -10 13 0 27 -4 30 -10 3 -5 16 -10 29
-10 12 0 26 -4 32 -8 5 -5 29 -14 54 -21 25 -7 56 -18 69 -24 13 -7 29 -12 35
-12 6 -1 25 -7 41 -14 17 -7 39 -17 50 -21 129 -47 128 -69 -10 -143 -16 -9
-42 -21 -57 -28 -16 -6 -28 -15 -28 -20 0 -5 -8 -9 -19 -9 -10 0 -24 -7 -31
-15 -7 -8 -20 -15 -30 -15 -10 0 -23 -6 -29 -14 -7 -8 -23 -17 -36 -20 -14 -4
-25 -11 -25 -16 0 -6 -9 -10 -19 -10 -11 0 -22 -4 -25 -9 -4 -5 -43 -28 -89
-50 -45 -22 -109 -56 -142 -75 -33 -19 -98 -54 -145 -78 -47 -23 -87 -45 -90
-48 -3 -3 -34 -20 -70 -38 -36 -18 -113 -58 -172 -88 -59 -30 -110 -59 -113
-64 -4 -6 -15 -10 -26 -10 -11 0 -22 -7 -25 -15 -4 -10 -20 -15 -45 -15 -44 0
-45 1 -25 38 8 15 40 81 71 147 31 66 70 146 86 178 16 31 29 64 29 72 0 8 5
15 10 15 6 0 10 11 10 24 0 13 7 29 15 36 8 7 15 20 15 30 0 10 7 23 15 30 8
7 15 18 15 25 0 13 10 35 92 200 67 133 82 159 96 168 6 4 12 14 12 21 0 35
83 53 115 25z m-225 -49 c0 -22 -4 -40 -10 -40 -5 0 -13 -12 -16 -27 -4 -15
-13 -34 -21 -41 -7 -7 -13 -22 -13 -33 0 -10 -4 -19 -9 -19 -5 0 -13 -10 -17
-22 -3 -13 -17 -45 -29 -73 -13 -27 -26 -57 -29 -65 -3 -8 -10 -22 -15 -30
-26 -46 -40 -78 -35 -82 2 -3 -2 -11 -11 -18 -8 -7 -15 -20 -15 -30 0 -10 -7
-23 -15 -30 -8 -7 -15 -17 -15 -24 0 -6 -11 -33 -24 -61 -13 -27 -27 -57 -30
-65 -3 -8 -10 -22 -15 -30 -25 -42 -69 -138 -65 -143 2 -2 -2 -10 -11 -17 -8
-7 -15 -20 -15 -30 0 -10 -7 -23 -15 -30 -8 -7 -15 -21 -15 -31 0 -10 -4 -20
-9 -23 -5 -3 -12 -20 -15 -38 -6 -32 -11 -37 -91 -86 -11 -7 -30 -16 -41 -21
-19 -9 -59 -48 -216 -212 -27 -27 -48 -52 -48 -54 0 -3 -20 -24 -45 -47 -25
-23 -45 -48 -45 -55 0 -7 -7 -13 -15 -13 -9 0 -18 -7 -22 -16 -8 -22 -148
-164 -161 -164 -5 0 -12 -7 -16 -15 -3 -8 -10 -15 -16 -15 -14 0 -4 39 26 101
13 27 24 55 24 63 0 8 5 18 10 21 6 3 10 17 10 29 0 13 7 29 15 36 8 7 15 21
15 31 0 10 5 21 10 24 6 3 10 15 10 25 0 10 6 31 14 47 8 15 20 42 26 58 7 17
18 44 25 60 7 17 17 41 23 55 5 14 17 43 27 65 9 22 20 49 25 60 4 11 13 36
20 55 7 19 18 49 25 65 7 17 18 44 25 60 21 50 42 99 51 117 5 10 9 25 9 34 0
8 7 22 15 30 8 9 15 24 15 34 0 10 5 22 10 25 6 3 10 15 10 26 0 11 7 27 15
35 8 9 15 23 15 32 0 31 58 89 137 138 77 47 87 54 131 94 12 11 25 20 28 20
6 0 57 39 85 65 9 8 21 15 27 15 6 0 16 9 22 20 6 11 15 20 21 20 14 0 71 42
130 95 9 8 21 15 27 15 7 0 17 9 24 20 7 11 18 20 24 20 6 0 17 7 24 15 21 25
30 17 30 -25z m3679 -27 c17 -21 31 -45 31 -55 0 -9 7 -23 15 -32 8 -8 15 -19
15 -24 0 -6 8 -25 17 -44 30 -60 33 -68 33 -82 0 -7 7 -19 15 -26 8 -7 15 -19
15 -27 0 -8 12 -40 26 -71 14 -31 30 -68 36 -82 5 -14 16 -38 23 -55 7 -16 18
-43 25 -60 7 -16 18 -43 25 -60 7 -16 18 -43 25 -60 7 -16 18 -43 25 -60 7
-16 17 -41 22 -55 6 -14 16 -38 23 -55 7 -16 15 -39 17 -49 2 -11 8 -24 13
-31 5 -6 5 -16 1 -23 -9 -16 -55 -7 -72 14 -6 8 -17 14 -24 14 -7 0 -18 7 -25
15 -7 8 -19 15 -28 15 -8 0 -23 6 -31 14 -15 13 -70 44 -178 101 -26 14 -52
30 -57 36 -6 5 -18 9 -28 9 -10 0 -18 4 -18 9 0 5 -12 14 -27 20 -16 6 -41 20
-58 30 -16 11 -50 30 -75 42 -25 12 -52 28 -60 34 -26 22 -253 145 -266 145
-7 0 -16 5 -19 11 -4 5 -17 14 -28 20 -12 5 -29 13 -37 18 -8 5 -55 33 -105
61 -49 28 -97 56 -105 61 -8 5 -25 13 -37 19 -53 22 -14 62 87 90 25 6 53 16
62 21 10 5 27 9 37 9 11 0 23 5 26 11 4 6 13 8 20 5 12 -4 41 3 100 24 11 4
40 13 65 20 25 7 54 16 65 20 27 11 78 24 88 22 4 -1 18 3 30 10 12 6 29 13
37 15 67 12 81 16 86 24 3 5 18 9 34 9 16 0 32 5 35 10 3 6 21 10 40 10 27 0
40 -8 64 -37z m144 7 c14 -11 29 -20 34 -20 5 0 16 -9 26 -20 9 -11 24 -20 32
-20 8 0 15 -4 15 -8 0 -9 77 -62 89 -62 5 0 16 -9 26 -20 10 -11 24 -20 32
-20 7 0 13 -4 13 -8 0 -9 77 -62 89 -62 5 0 16 -9 26 -20 10 -11 24 -20 32
-20 7 0 16 -7 19 -15 3 -8 15 -17 27 -21 54 -17 167 -121 167 -154 0 -7 7 -26
16 -43 31 -59 34 -67 34 -86 0 -10 7 -24 15 -31 8 -7 15 -21 15 -31 0 -11 4
-27 9 -37 5 -9 14 -30 21 -47 6 -16 18 -43 26 -58 8 -16 14 -36 14 -46 0 -9 4
-21 8 -26 5 -6 17 -36 27 -67 11 -32 23 -58 27 -58 4 0 8 -9 8 -20 0 -20 2
-27 33 -88 9 -19 17 -41 17 -51 0 -9 4 -21 8 -26 5 -6 17 -36 27 -67 11 -32
23 -58 27 -58 4 0 8 -9 8 -20 0 -20 2 -27 33 -88 9 -19 17 -42 17 -53 0 -10 5
-19 10 -19 6 0 10 -9 10 -20 0 -11 4 -28 9 -38 25 -49 61 -142 61 -159 0 -34
-35 -3 -210 188 -47 51 -105 114 -130 140 -25 27 -74 80 -110 119 -74 81 -74
81 -116 115 -18 14 -38 25 -45 26 -8 0 -34 15 -59 33 -45 33 -97 118 -129 211
-7 22 -24 63 -37 92 -13 28 -24 58 -24 66 0 8 -7 20 -15 27 -8 7 -15 23 -15
36 0 12 -4 26 -10 29 -5 3 -10 14 -10 24 0 10 -7 24 -15 31 -8 7 -15 23 -15
36 0 13 -4 24 -10 24 -5 0 -10 10 -10 22 0 12 -6 29 -13 37 -7 9 -20 36 -27
61 -8 25 -24 64 -36 86 -12 23 -24 54 -28 68 -3 14 -11 26 -16 26 -6 0 -10 11
-10 24 0 14 -4 28 -10 31 -5 3 -10 15 -10 25 0 10 -7 25 -15 34 -8 8 -15 22
-15 30 0 9 -5 25 -12 35 -12 19 -5 51 10 51 5 0 21 -9 35 -20z m-2756 -176
c-3 -3 -12 -4 -19 -1 -8 3 -5 6 6 6 11 1 17 -2 13 -5z m35 -121 c8 -10 23 -43
33 -73 9 -30 21 -63 26 -72 5 -10 9 -25 9 -33 0 -8 4 -23 9 -33 20 -39 46
-139 43 -164 -2 -17 -26 -51 -67 -93 -35 -36 -67 -65 -70 -65 -4 0 -45 -38
-92 -85 -47 -46 -95 -87 -105 -91 -14 -4 -30 6 -60 38 -47 50 -256 310 -283
352 l-19 29 31 26 c17 14 67 44 110 66 43 22 80 42 83 45 3 3 31 18 62 33 31
15 60 32 63 37 3 6 15 10 25 10 10 0 20 3 22 8 3 7 147 82 159 82 3 0 13 -8
21 -17z m1686 -44 c53 -28 111 -60 127 -70 17 -10 35 -21 40 -23 6 -2 17 -7
25 -10 8 -3 29 -15 45 -26 17 -11 53 -31 81 -45 28 -14 59 -34 68 -44 17 -18
15 -23 -51 -113 -76 -104 -123 -171 -138 -196 -5 -9 -16 -21 -22 -25 -7 -4
-13 -13 -13 -19 0 -20 -91 -118 -115 -124 -36 -9 -60 9 -200 151 -114 115
-130 136 -129 163 0 18 4 35 7 39 4 3 7 16 7 27 0 12 7 30 15 40 8 10 12 23 9
28 -3 5 -1 14 4 21 6 7 22 48 37 92 14 44 30 88 35 97 6 10 10 24 10 32 0 12
44 56 57 56 2 0 47 -23 101 -51z m-5676 -238 c12 -20 24 -38 28 -41 3 -3 19
-25 35 -50 17 -25 33 -46 38 -48 4 -2 7 -9 7 -17 0 -7 7 -19 16 -26 9 -7 20
-22 25 -34 5 -11 18 -33 29 -50 11 -16 25 -40 31 -52 7 -13 16 -23 21 -23 5 0
13 -10 18 -22 6 -13 18 -35 28 -49 9 -15 31 -50 47 -78 17 -28 33 -51 38 -51
4 0 12 -10 17 -22 6 -13 18 -35 28 -49 21 -33 83 -134 99 -161 6 -11 15 -23
20 -27 9 -7 27 -35 43 -66 6 -11 18 -32 28 -46 9 -15 33 -53 52 -84 19 -31 43
-69 52 -84 10 -14 22 -36 28 -48 5 -13 14 -23 20 -23 5 0 10 -5 10 -10 0 -6
15 -32 33 -58 44 -65 55 -84 67 -107 6 -11 18 -32 28 -47 9 -15 36 -59 60 -98
l44 -71 -42 -45 c-65 -70 -144 -144 -155 -144 -13 0 -75 102 -75 123 0 8 -7
17 -15 21 -8 3 -15 16 -15 30 0 13 -7 26 -15 30 -8 3 -15 16 -15 30 0 13 -3
26 -7 28 -11 4 -43 67 -43 83 0 7 -7 18 -15 25 -8 7 -15 21 -15 31 0 9 -7 24
-15 33 -8 8 -15 23 -15 34 0 11 -7 22 -15 26 -8 3 -15 13 -15 23 0 10 -7 27
-15 37 -8 11 -15 28 -15 38 0 10 -4 18 -10 18 -5 0 -10 9 -10 19 0 11 -7 26
-15 35 -8 8 -15 24 -15 36 0 11 -7 23 -15 26 -8 4 -15 17 -15 30 0 14 -7 27
-15 30 -8 4 -15 16 -15 29 0 12 -7 28 -15 35 -8 7 -15 18 -15 25 0 7 -11 35
-24 62 -13 26 -27 55 -30 63 -3 8 -10 23 -16 33 -5 9 -15 25 -20 35 -6 9 -13
24 -16 32 -3 8 -10 22 -15 30 -5 8 -12 22 -15 30 -22 55 -45 99 -54 105 -6 3
-8 11 -4 16 3 6 -1 18 -9 27 -8 9 -17 29 -21 45 -3 15 -11 27 -16 27 -6 0 -10
11 -10 24 0 13 -7 26 -15 30 -8 3 -15 16 -15 30 0 14 -4 28 -10 31 -5 3 -10
14 -10 24 0 10 -7 24 -15 31 -8 7 -15 20 -15 30 0 10 -7 23 -15 30 -9 7 -14
19 -11 26 2 6 -2 20 -9 31 -8 10 -15 25 -15 34 0 9 -7 22 -15 29 -8 7 -15 26
-15 43 0 30 0 30 20 12 12 -10 30 -35 42 -54z m9568 39 c0 -5 -12 -35 -26 -67
-56 -123 -86 -189 -101 -223 -15 -33 -53 -115 -128 -275 -18 -38 -52 -110 -75
-160 -23 -49 -46 -97 -51 -105 -5 -8 -14 -26 -20 -40 -6 -14 -23 -52 -39 -85
-15 -33 -31 -67 -34 -75 -3 -8 -10 -22 -15 -30 -8 -15 -58 -119 -108 -230 -14
-30 -29 -62 -34 -70 -5 -8 -14 -26 -20 -40 -6 -14 -23 -52 -39 -85 -15 -33
-31 -67 -34 -75 -3 -8 -10 -22 -15 -30 -5 -8 -32 -62 -61 -120 -29 -58 -56
-109 -60 -114 -5 -5 -19 -6 -32 -3 -28 7 -204 170 -213 197 -6 18 21 70 95
182 22 32 40 64 40 69 0 5 5 9 10 9 6 0 14 8 17 18 7 19 40 68 61 90 6 7 12
20 12 28 0 8 5 14 10 14 6 0 15 11 20 25 5 14 14 25 20 25 5 0 12 11 16 25 3
14 12 25 20 25 8 0 14 9 14 20 0 10 6 23 13 27 13 9 57 68 57 78 0 4 16 26 35
49 19 24 35 48 35 55 0 6 7 14 15 17 8 4 15 15 15 25 0 10 4 19 8 19 9 0 62
77 62 90 0 5 6 13 13 17 15 10 57 69 57 82 0 5 7 11 15 15 8 3 15 12 15 19 0
8 9 22 20 32 11 10 20 24 20 30 0 7 7 15 15 19 8 3 15 10 15 16 0 14 41 72 58
83 6 4 12 16 12 26 0 11 7 21 15 25 8 3 15 12 15 20 0 9 9 20 20 26 11 6 20
19 20 29 0 11 7 21 15 25 8 3 15 12 15 19 0 8 9 22 20 32 11 10 20 24 20 32 0
7 5 13 10 13 6 0 14 8 17 18 8 20 44 74 56 83 11 8 34 47 43 72 7 18 24 24 24
7z m-3343 -105 c43 -25 85 -49 93 -55 8 -5 38 -21 65 -35 28 -15 67 -36 87
-48 20 -12 60 -35 89 -51 103 -55 127 -74 138 -108 46 -146 74 -319 53 -332
-20 -12 -387 -56 -471 -56 -50 0 -50 0 -57 38 -6 32 -79 200 -105 242 -5 8
-12 22 -15 30 -3 8 -26 57 -50 108 -24 51 -44 99 -43 105 0 7 14 32 29 57 16
25 38 61 49 81 19 34 47 69 56 69 3 0 39 -20 82 -45z m-2838 -27 c31 -29 59
-64 63 -78 7 -23 -20 -137 -43 -182 -5 -10 -9 -27 -9 -37 0 -11 -4 -23 -10
-26 -5 -3 -10 -16 -10 -29 0 -12 -5 -27 -10 -32 -6 -6 -26 -54 -44 -108 -19
-54 -36 -99 -38 -101 -2 -2 -26 -4 -53 -4 -48 -1 -76 2 -155 14 -19 3 -48 7
-65 10 -16 2 -43 6 -60 9 -16 2 -53 7 -82 10 -63 7 -94 19 -112 40 -12 14 -9
33 19 129 18 62 37 127 42 145 8 27 20 38 74 63 35 17 64 35 64 40 0 5 8 9 19
9 10 0 24 7 31 15 7 8 21 15 31 15 10 0 20 4 24 9 3 6 29 21 58 36 70 35 160
85 172 96 18 18 39 8 94 -43z m186 -230 c57 -67 115 -149 115 -163 0 -14 -159
-117 -215 -140 -42 -18 -75 -4 -75 32 0 28 29 116 43 129 4 4 7 16 7 26 0 10
4 26 9 36 5 9 20 40 33 69 13 29 28 52 34 53 7 0 28 -19 49 -42z m-765 11 c-7
-11 -14 -19 -16 -16 -7 7 7 37 17 37 6 0 5 -9 -1 -21z m3206 -86 c77 -167 96
-207 106 -233 6 -14 15 -33 20 -43 11 -22 1 -57 -15 -57 -12 0 -216 110 -289
157 -44 27 -49 56 -18 96 11 14 20 28 20 31 0 3 8 15 18 25 9 11 35 43 57 70
22 28 43 51 47 51 5 0 28 -44 54 -97z m-3281 6 c6 -8 -56 -180 -71 -198 -9
-11 -68 23 -96 55 -53 59 -53 59 4 95 79 50 150 71 163 48z m4167 -55 c7 -6
24 -16 38 -22 14 -7 33 -19 44 -27 18 -13 17 -16 -13 -54 -40 -51 -98 -101
-116 -101 -8 0 -18 16 -24 38 -32 125 -41 167 -41 192 l0 29 50 -23 c27 -13
55 -27 62 -32z m-3052 22 c0 -3 -4 -8 -10 -11 -5 -3 -10 -1 -10 4 0 6 5 11 10
11 6 0 10 -2 10 -4z m1824 -82 c3 -8 2 -12 -4 -9 -6 3 -10 10 -10 16 0 14 7
11 14 -7z m-3203 -31 c16 -10 29 -21 29 -25 0 -12 63 -67 105 -92 30 -18 78
-30 174 -45 74 -11 136 -20 140 -19 3 1 17 -2 31 -5 25 -7 76 -14 178 -23 30
-2 62 -9 72 -14 10 -6 48 -10 83 -10 60 0 73 5 178 60 62 33 114 60 116 60 2
0 -22 -71 -34 -100 -3 -8 -8 -24 -10 -34 -10 -56 -68 -107 -165 -147 -16 -6
-28 -15 -28 -20 0 -5 -8 -9 -19 -9 -10 0 -24 -7 -31 -15 -7 -8 -20 -15 -30
-15 -10 0 -23 -7 -30 -15 -7 -8 -23 -15 -35 -15 -13 0 -25 -7 -29 -15 -3 -8
-14 -15 -24 -15 -11 0 -25 -7 -32 -15 -7 -8 -20 -15 -30 -15 -10 0 -23 -7 -30
-15 -7 -8 -16 -13 -20 -10 -4 2 -16 -2 -26 -10 -10 -8 -26 -15 -35 -15 -9 0
-22 -7 -29 -15 -7 -8 -20 -15 -30 -15 -10 0 -23 -7 -30 -15 -7 -8 -21 -15 -31
-15 -9 0 -24 -7 -33 -15 -8 -8 -24 -15 -35 -15 -11 0 -22 -4 -25 -9 -15 -23
-105 24 -106 56 0 7 -6 16 -12 20 -18 11 -54 64 -62 91 -4 12 -12 22 -17 22
-5 0 -9 7 -9 15 0 8 -9 24 -20 35 -11 11 -20 27 -20 35 0 9 -7 18 -15 21 -8 4
-15 14 -15 24 0 10 -7 23 -15 30 -8 7 -15 18 -15 25 0 7 -7 19 -16 26 -9 7
-20 22 -25 34 -16 34 -63 119 -83 148 -16 23 -17 31 -6 57 7 17 18 30 25 30 8
0 20 6 27 13 30 30 60 33 99 10z m1243 -8 c-28 -22 -40 -18 -13 4 13 11 26 17
28 15 3 -2 -4 -11 -15 -19z m2016 -26 c6 -10 7 -19 2 -19 -5 0 -14 12 -20 26
-14 29 2 24 18 -7z m1391 -4 c53 -19 109 -61 109 -81 0 -13 -34 -62 -147 -212
-10 -13 -26 -32 -35 -43 -10 -10 -18 -22 -18 -25 0 -3 -11 -20 -25 -38 -14
-17 -34 -41 -43 -54 -9 -13 -25 -31 -34 -40 -10 -9 -18 -22 -18 -29 0 -7 -9
-18 -20 -25 -11 -7 -20 -17 -20 -22 0 -5 -21 -33 -46 -62 -44 -53 -83 -70 -99
-44 -3 6 -14 10 -24 10 -10 0 -24 7 -31 15 -7 8 -20 15 -30 15 -10 0 -23 7
-30 15 -7 8 -21 15 -30 15 -10 0 -20 4 -22 8 -1 5 -61 37 -133 73 -71 36 -139
70 -150 77 -11 6 -40 20 -65 32 -25 11 -52 25 -60 30 -8 5 -35 18 -60 30 -148
70 -160 81 -190 152 -15 37 -26 69 -23 72 8 7 95 -26 146 -56 26 -15 53 -28
59 -28 6 0 20 -8 31 -17 15 -15 37 -18 111 -17 50 0 123 6 161 13 39 6 90 14
115 16 25 2 65 6 90 9 121 14 157 18 175 18 28 1 103 25 122 41 9 6 49 44 87
83 39 40 78 74 86 77 8 3 16 6 16 6 1 1 21 -6 45 -14z m-3446 -5 c-3 -5 -11
-10 -16 -10 -6 0 -7 5 -4 10 3 6 11 10 16 10 6 0 7 -4 4 -10z m-5 -39 c0 -5
-7 -12 -16 -15 -14 -5 -15 -4 -4 9 14 17 20 19 20 6z m2114 -37 c3 -8 2 -12
-4 -9 -6 3 -10 10 -10 16 0 14 7 11 14 -7z m191 -52 c-6 -7 -45 9 -45 18 0 4
11 3 24 -3 14 -7 23 -13 21 -15z m-3698 -4 c11 -13 33 -45 49 -71 16 -27 36
-59 44 -72 8 -12 30 -49 49 -81 19 -33 38 -61 41 -64 4 -3 10 -15 14 -27 4
-13 11 -23 16 -23 4 0 13 -13 19 -30 5 -16 14 -30 19 -30 6 0 13 -11 16 -25 4
-14 11 -25 16 -25 6 0 10 -7 10 -14 0 -8 11 -27 25 -42 14 -15 25 -30 25 -34
0 -4 23 -19 51 -34 38 -19 55 -23 69 -16 10 6 27 10 38 10 11 0 55 18 98 39
44 21 86 42 94 45 8 3 22 10 30 15 8 5 22 12 30 15 15 6 25 11 65 34 11 7 25
14 30 16 6 2 17 7 25 10 8 3 22 10 30 15 8 5 36 19 63 30 26 12 47 26 47 32 0
5 5 7 10 4 6 -4 21 0 33 8 12 8 39 17 60 21 37 7 38 6 32 -16 -4 -13 -14 -30
-21 -39 -8 -8 -14 -21 -14 -27 0 -7 -11 -30 -25 -52 -14 -22 -25 -46 -25 -54
0 -7 -7 -19 -15 -26 -8 -7 -15 -17 -15 -24 0 -6 -11 -33 -24 -61 -13 -27 -27
-57 -30 -65 -3 -8 -10 -22 -15 -30 -5 -8 -17 -31 -25 -50 -9 -19 -20 -42 -25
-50 -27 -47 -69 -139 -65 -143 2 -2 -2 -10 -11 -17 -8 -7 -15 -20 -15 -30 0
-10 -7 -23 -15 -30 -8 -7 -15 -18 -15 -26 0 -7 -11 -34 -25 -60 -14 -26 -25
-53 -25 -60 0 -7 -4 -14 -8 -16 -7 -2 -53 -93 -76 -148 -3 -8 -10 -22 -14 -30
-23 -40 -32 -61 -32 -74 0 -7 -7 -19 -15 -26 -8 -7 -15 -20 -15 -30 0 -10 -7
-23 -15 -30 -8 -7 -15 -21 -15 -30 0 -10 -3 -20 -7 -22 -7 -3 -32 -49 -47 -88
-3 -8 -10 -22 -15 -30 -5 -8 -18 -33 -28 -55 -29 -61 -64 -115 -74 -115 -5 0
-16 8 -25 19 -9 10 -27 31 -40 45 -13 15 -24 31 -24 35 0 7 -14 25 -65 84 -8
9 -15 20 -15 23 0 6 -39 57 -65 85 -8 9 -15 21 -15 27 0 7 -9 17 -20 24 -11 7
-20 18 -20 24 0 6 -9 19 -20 29 -11 10 -20 24 -20 32 0 7 -7 16 -15 19 -8 4
-15 12 -15 20 0 8 -9 19 -20 26 -11 7 -20 18 -20 25 0 6 -8 19 -17 29 -10 10
-22 25 -28 34 -30 52 -86 129 -113 159 -18 18 -32 39 -32 47 0 7 -9 18 -20 24
-11 6 -20 15 -20 21 0 8 -55 86 -92 129 -7 8 -19 26 -26 40 -6 14 -41 63 -76
110 -36 47 -81 111 -100 143 l-36 58 39 52 c21 29 63 77 92 108 30 31 83 88
119 128 84 93 192 209 227 243 34 34 72 36 100 6z m3543 -19 c0 -6 -4 -7 -10
-4 -5 3 -10 11 -10 16 0 6 5 7 10 4 6 -3 10 -11 10 -16z m-990 -9 c8 -5 11
-12 8 -16 -4 -3 -14 1 -23 10 -18 17 -9 21 15 6z m2594 -101 c59 -62 111 -120
117 -130 5 -11 16 -19 24 -19 8 0 15 -5 15 -11 0 -6 19 -31 43 -55 38 -40 76
-81 152 -167 57 -64 66 -125 23 -155 -10 -7 -18 -18 -18 -24 0 -6 -10 -21 -22
-34 -37 -38 -48 -50 -228 -273 -95 -118 -176 -219 -181 -225 -5 -6 -42 -52
-81 -101 -40 -50 -78 -97 -85 -105 -40 -48 -60 -73 -78 -96 -11 -14 -39 -45
-61 -68 -23 -24 -43 -47 -45 -52 -13 -29 -52 -84 -60 -84 -5 0 -13 -8 -17 -18
-4 -9 -31 -39 -59 -66 l-53 -49 -23 24 c-12 13 -40 58 -60 99 -21 41 -42 82
-47 90 -5 8 -50 101 -101 205 -51 105 -96 192 -101 193 -4 2 -8 9 -8 16 0 7
-11 33 -25 57 -14 24 -28 51 -31 59 -21 48 -99 206 -104 210 -4 3 -10 17 -14
33 -3 15 -11 27 -16 27 -6 0 -10 8 -10 19 0 10 -7 24 -15 31 -8 7 -15 20 -15
30 0 10 -7 23 -15 30 -8 7 -15 20 -15 30 0 10 -7 23 -15 30 -8 7 -15 21 -15
31 0 10 -4 20 -9 23 -5 3 -28 43 -50 88 -23 46 -46 90 -51 98 -21 37 -78 165
-75 168 6 6 77 -20 160 -59 44 -20 87 -40 95 -43 8 -3 22 -10 30 -15 8 -5 22
-12 30 -15 8 -3 23 -10 33 -16 35 -20 55 -30 173 -90 67 -33 126 -60 131 -60
6 0 13 -7 17 -15 3 -9 18 -15 35 -15 16 0 33 -4 36 -10 9 -15 41 -12 55 5 7 8
20 15 30 15 16 0 80 70 80 87 0 5 9 14 20 21 11 7 20 19 20 27 0 8 9 19 20 25
11 6 20 17 20 25 0 8 9 19 20 25 11 6 20 18 20 28 0 9 9 23 20 30 11 7 20 18
20 25 0 7 9 18 20 25 11 7 20 19 20 27 0 8 9 19 20 25 11 6 20 17 20 25 0 8 9
19 20 25 11 6 20 17 20 25 0 19 103 125 122 125 8 0 63 -50 122 -111z m-1574
48 c0 -7 8 -22 18 -33 28 -30 82 -151 62 -139 -6 3 -10 13 -10 21 0 8 -4 14
-10 14 -5 0 -13 12 -16 28 -4 15 -14 36 -23 47 -24 28 -43 75 -31 75 6 0 10
-6 10 -13z m190 -157 c13 -9 13 -10 0 -10 -8 0 -22 5 -30 10 -13 9 -13 10 0
10 8 0 22 -5 30 -10z m-70 -65 c11 -13 10 -14 -4 -9 -9 3 -16 10 -16 15 0 13
6 11 20 -6z m-1210 -35 c0 -5 -5 -10 -11 -10 -5 0 -7 5 -4 10 3 6 8 10 11 10
2 0 4 -4 4 -10z m1230 -4 c0 -3 -4 -8 -10 -11 -5 -3 -10 -1 -10 4 0 6 5 11 10
11 6 0 10 -2 10 -4z m-1655 -16 c-3 -5 -10 -10 -16 -10 -5 0 -9 5 -9 10 0 6 7
10 16 10 8 0 12 -4 9 -10z m1710 -100 c3 -5 1 -10 -4 -10 -6 0 -11 5 -11 10 0
6 2 10 4 10 3 0 8 -4 11 -10z m22 -62 c-3 -8 -6 -5 -6 6 -1 11 2 17 5 13 3 -3
4 -12 1 -19z m-4201 -385 c21 -32 62 -87 91 -123 29 -35 63 -83 74 -107 11
-24 25 -45 29 -48 5 -3 -7 -39 -26 -79 -19 -41 -34 -84 -34 -95 0 -12 -4 -21
-10 -21 -5 0 -10 -11 -10 -24 0 -13 -7 -29 -15 -36 -8 -7 -15 -21 -15 -31 0
-10 -4 -21 -10 -24 -5 -3 -10 -15 -10 -26 0 -10 -4 -27 -9 -37 -5 -9 -12 -24
-15 -32 -3 -8 -10 -22 -14 -30 -23 -40 -32 -61 -32 -75 0 -14 -9 -35 -32 -75
-4 -8 -11 -22 -14 -30 -3 -8 -10 -23 -15 -32 -5 -10 -9 -25 -9 -33 0 -8 -4
-23 -9 -33 -15 -26 -56 -123 -70 -162 -7 -19 -19 -47 -27 -63 -9 -15 -13 -31
-10 -36 3 -5 -1 -11 -9 -15 -8 -3 -15 -15 -15 -26 0 -11 -4 -28 -9 -38 -21
-38 -61 -131 -61 -142 0 -11 -5 -21 -34 -78 -10 -17 -14 -37 -11 -42 3 -6 2
-10 -4 -10 -6 0 -14 -12 -17 -27 -4 -15 -19 -48 -34 -73 -23 -38 -35 -48 -91
-68 -35 -13 -72 -27 -81 -33 -10 -5 -26 -9 -36 -9 -10 0 -22 -4 -27 -9 -9 -9
-120 -44 -184 -58 -23 -6 -24 -4 -19 33 5 31 112 304 193 489 96 222 115 266
115 273 0 4 8 26 19 48 26 56 47 104 61 144 7 19 23 58 36 87 13 28 24 59 24
67 0 8 4 17 9 20 4 3 16 27 25 53 18 48 27 70 64 153 11 25 26 63 33 85 7 22
18 47 24 55 6 8 17 33 24 55 14 46 28 79 48 117 7 15 13 29 12 30 0 2 5 17 11
33 7 17 16 39 20 50 11 29 63 145 66 145 1 0 19 -26 40 -57z m3009 -63 c13
-10 171 -68 205 -75 27 -5 127 -40 134 -47 6 -4 17 -8 26 -8 9 0 35 -9 58 -20
22 -11 49 -20 60 -20 10 0 22 -4 28 -8 5 -5 29 -14 54 -21 47 -14 83 -27 112
-42 10 -5 27 -9 37 -9 11 0 23 -4 26 -10 3 -5 15 -10 26 -10 10 0 28 -4 39
-10 11 -5 29 -14 40 -20 11 -5 27 -10 35 -10 8 0 23 -4 33 -9 34 -18 90 -41
100 -41 25 0 20 -23 -15 -68 -21 -27 -45 -59 -53 -72 -13 -19 -32 -45 -108
-149 -29 -40 -66 -77 -97 -98 -25 -17 -44 -20 -115 -17 -47 1 -219 5 -382 8
-164 4 -304 9 -313 12 -16 7 -16 14 -16 469 1 208 1 222 14 243 5 7 5 22 2 33
-6 19 -4 20 27 14 18 -4 38 -11 43 -15z m-154 -62 c6 -380 4 -670 -6 -678 -6
-5 -184 -8 -416 -7 l-406 2 -34 57 c-19 32 -37 58 -41 58 -5 0 -8 6 -8 14 0 8
-6 21 -12 28 -18 19 -36 49 -49 78 -5 13 -13 27 -17 30 -16 12 -62 110 -62
133 0 19 8 27 43 41 23 9 50 16 59 16 9 0 20 5 23 10 3 6 16 10 29 10 12 0 26
3 30 7 3 4 14 8 24 10 57 9 83 16 88 24 3 5 16 9 29 9 13 0 27 5 30 10 3 6 14
10 24 10 21 0 117 27 142 40 9 5 37 11 63 15 25 4 49 11 52 16 3 5 16 9 29 9
13 0 27 5 30 10 4 6 12 10 18 9 16 -3 68 10 89 22 10 5 27 9 37 9 11 0 23 5
26 10 4 6 12 10 18 9 16 -3 68 10 89 21 10 6 24 7 33 4 8 -3 15 -1 15 5 0 6 7
11 15 11 11 0 15 -13 16 -52z m2916 10 c6 -7 20 -39 33 -70 13 -32 27 -58 32
-58 4 0 8 -11 8 -24 0 -14 5 -28 10 -31 6 -3 10 -15 10 -25 0 -10 7 -25 15
-34 8 -8 15 -24 15 -35 0 -11 5 -23 10 -26 6 -3 10 -14 10 -24 0 -10 7 -24 15
-31 8 -7 15 -20 15 -30 0 -9 11 -37 23 -61 13 -24 27 -56 31 -71 3 -16 11 -28
16 -28 6 0 10 -11 10 -24 0 -14 5 -28 10 -31 6 -3 10 -14 10 -24 0 -10 7 -24
15 -31 8 -7 15 -21 15 -31 0 -9 7 -25 16 -34 9 -9 14 -19 10 -22 -3 -4 0 -16
7 -27 8 -12 17 -33 21 -48 3 -16 11 -28 16 -28 6 0 10 -9 10 -20 0 -11 4 -28
9 -38 5 -9 12 -24 15 -32 3 -8 10 -22 15 -30 26 -46 41 -80 35 -80 -3 0 1 -11
10 -25 9 -13 16 -29 16 -35 0 -6 18 -49 40 -95 22 -46 40 -88 40 -93 0 -5 6
-14 13 -20 7 -6 19 -34 27 -62 8 -28 20 -56 27 -62 7 -6 13 -18 13 -28 0 -10
7 -23 15 -30 8 -7 15 -21 15 -31 0 -10 11 -38 24 -62 13 -25 26 -57 30 -71 3
-14 11 -26 16 -26 6 0 10 -8 10 -18 0 -10 10 -38 21 -62 12 -25 25 -56 29 -70
5 -14 11 -34 16 -44 7 -18 4 -19 -44 -13 -28 3 -59 10 -69 15 -20 11 -70 33
-118 52 -16 7 -43 18 -60 26 -16 7 -55 24 -85 37 -55 24 -110 75 -110 103 0 8
-4 22 -10 32 -5 9 -16 35 -25 57 -9 22 -21 48 -26 57 -5 10 -9 26 -9 36 0 10
-4 22 -8 27 -5 6 -15 30 -22 55 -7 25 -20 59 -28 75 -8 17 -19 38 -23 47 -5
10 -9 27 -9 37 0 11 -4 23 -10 26 -5 3 -10 15 -10 26 0 10 -4 27 -9 37 -5 9
-21 49 -36 87 -15 39 -31 78 -36 87 -5 10 -9 26 -9 36 0 10 -4 22 -8 27 -4 6
-14 28 -21 50 -13 42 -20 60 -42 110 -7 17 -12 34 -11 38 2 5 -5 23 -14 40
-31 58 -34 67 -34 82 0 8 -4 23 -9 33 -17 35 -39 88 -51 122 -7 19 -16 44 -20
55 -5 11 -16 45 -25 75 -9 30 -20 61 -25 69 -5 9 5 32 29 65 46 66 50 71 86
110 17 18 37 42 45 54 17 25 24 27 37 10z m-5480 -284 c15 -20 36 -44 46 -53
9 -8 17 -19 17 -24 0 -5 10 -22 23 -37 12 -15 29 -38 37 -50 8 -13 22 -31 32
-41 9 -9 19 -26 23 -38 3 -12 11 -21 16 -21 5 0 14 -11 19 -25 5 -14 17 -28
25 -31 8 -4 15 -11 15 -16 0 -10 34 -55 65 -89 8 -9 15 -21 15 -27 0 -6 9 -16
20 -22 11 -6 20 -15 20 -20 0 -17 45 -79 62 -85 28 -10 28 -33 -1 -123 -26
-80 -36 -106 -63 -152 -4 -8 -11 -22 -14 -30 -3 -8 -17 -37 -30 -63 -13 -27
-24 -55 -24 -62 0 -7 -7 -15 -15 -19 -8 -3 -15 -16 -15 -30 0 -13 -7 -26 -15
-30 -8 -3 -15 -14 -15 -25 0 -11 -4 -23 -10 -26 -5 -3 -10 -14 -10 -24 0 -10
-7 -24 -15 -31 -8 -7 -15 -21 -15 -32 0 -10 -7 -21 -15 -24 -8 -4 -15 -16 -15
-29 0 -13 -7 -25 -15 -29 -8 -3 -15 -14 -15 -25 0 -11 -4 -22 -9 -25 -9 -6
-22 -66 -21 -101 1 -60 3 -71 12 -82 5 -7 7 -17 3 -23 -4 -6 -3 -19 1 -28 7
-16 11 -43 14 -89 1 -10 4 -25 8 -33 7 -18 12 -44 15 -85 1 -16 6 -35 10 -42
4 -6 4 -18 1 -27 -3 -9 -1 -22 5 -30 6 -7 10 -24 9 -37 -1 -13 2 -50 6 -81 7
-54 5 -61 -35 -138 -23 -44 -46 -83 -51 -86 -4 -3 -8 -13 -8 -24 0 -10 -7 -20
-15 -24 -8 -3 -15 -12 -15 -20 0 -8 -13 -35 -30 -59 -16 -25 -30 -49 -30 -54
0 -6 -9 -20 -20 -33 -11 -13 -20 -29 -20 -37 0 -7 -4 -13 -9 -13 -5 0 -14 -12
-20 -27 -15 -36 -36 -72 -50 -86 -6 -6 -11 -19 -11 -29 0 -10 -5 -18 -11 -18
-5 0 -15 -13 -20 -30 -6 -17 -15 -30 -20 -30 -5 0 -9 -6 -9 -13 0 -13 -17 -37
-59 -82 -17 -19 -91 -51 -206 -89 -63 -21 -64 -21 -100 -30 -16 -4 -39 -11
-50 -16 -21 -9 -161 -55 -254 -84 -105 -32 -103 -53 -35 329 24 138 46 264 49
280 3 17 7 41 10 55 12 61 87 467 90 490 2 14 4 25 5 25 2 0 38 184 55 275 20
108 30 145 57 215 17 44 41 103 54 132 13 28 24 57 24 63 0 5 4 18 9 28 21 38
61 131 61 142 0 5 4 18 9 28 5 9 14 31 21 47 7 17 18 44 25 60 7 17 17 41 22
55 6 14 15 36 21 50 10 24 32 76 54 130 6 14 16 39 23 55 12 28 22 51 45 110
11 27 19 47 45 110 10 22 22 51 27 65 6 14 17 37 24 52 8 15 13 30 12 35 -1 4
8 28 19 53 12 25 29 68 38 95 33 107 48 116 92 59z m5251 -81 c12 -35 33 -83
53 -125 5 -10 9 -25 9 -33 0 -8 4 -23 9 -33 4 -9 16 -35 26 -57 9 -22 21 -48
26 -57 5 -10 9 -27 9 -37 0 -11 5 -23 10 -26 6 -3 10 -17 10 -30 0 -13 5 -27
10 -30 6 -3 10 -14 10 -24 0 -10 7 -24 15 -31 9 -7 14 -19 11 -25 -2 -7 2 -23
11 -34 8 -12 12 -25 9 -28 -3 -4 0 -16 7 -27 7 -12 19 -41 27 -66 7 -25 17
-49 22 -54 4 -6 8 -18 8 -28 0 -10 4 -26 9 -36 19 -36 34 -77 33 -85 -2 -5 5
-23 14 -40 31 -59 34 -67 34 -86 0 -11 5 -23 10 -26 6 -3 10 -15 10 -26 0 -10
5 -28 10 -39 6 -11 15 -29 20 -40 6 -11 10 -28 10 -39 0 -10 7 -24 15 -31 8
-7 15 -23 15 -36 0 -12 5 -26 10 -29 6 -3 10 -17 10 -30 0 -13 5 -27 10 -30 6
-3 10 -16 10 -29 0 -12 4 -26 10 -32 11 -11 38 -172 45 -270 3 -38 8 -87 11
-109 4 -22 8 -57 10 -77 2 -21 6 -55 8 -75 2 -21 7 -62 11 -92 4 -29 9 -70 10
-90 3 -33 5 -55 20 -181 3 -25 7 -70 10 -100 3 -30 8 -73 11 -95 3 -22 7 -56
9 -76 1 -20 6 -61 10 -90 8 -52 15 -118 16 -149 1 -8 5 -46 11 -83 5 -38 10
-96 11 -130 l2 -62 -41 -3 c-35 -3 -68 11 -230 93 -300 154 -273 135 -335 236
-30 49 -60 100 -67 112 -7 12 -22 36 -32 52 -11 17 -33 55 -50 85 -17 30 -39
69 -50 85 -11 17 -23 37 -27 45 -4 8 -19 33 -35 56 -15 22 -32 52 -38 65 -6
13 -18 36 -28 50 -9 15 -34 56 -56 93 l-38 67 16 42 c9 24 16 50 16 60 0 9 4
25 10 35 5 9 14 44 20 77 6 33 13 69 15 80 7 32 36 168 41 190 2 11 8 41 13
67 18 84 7 120 -99 337 -56 113 -106 213 -111 221 -5 8 -14 26 -20 40 -12 28
-77 159 -119 237 -26 49 -26 54 -11 76 19 29 86 114 139 176 20 24 39 48 41
55 2 6 12 17 23 24 10 7 18 19 18 25 0 7 9 18 20 25 11 7 20 18 20 25 0 7 9
18 20 25 11 7 20 18 20 25 0 7 9 18 20 25 11 7 20 18 20 25 0 7 9 18 20 25 11
7 20 18 20 25 0 7 9 18 20 25 11 7 20 19 20 27 0 8 4 15 10 15 5 0 25 16 45
36 41 41 53 37 73 -23z m-3768 37 c0 -5 -2 -10 -4 -10 -3 0 -8 5 -11 10 -3 6
-1 10 4 10 6 0 11 -4 11 -10z m-37 -37 c18 -20 43 -55 56 -77 14 -23 31 -47
38 -54 7 -7 13 -20 13 -28 0 -8 5 -14 10 -14 6 0 10 -6 10 -14 0 -8 8 -22 17
-32 20 -20 31 -38 67 -112 l26 -54 -33 -46 c-17 -26 -35 -51 -40 -57 -75 -98
-96 -126 -110 -140 -9 -9 -17 -20 -17 -23 0 -4 -22 -32 -50 -62 -58 -63 -73
-97 -56 -127 6 -12 43 -55 81 -95 39 -41 86 -93 105 -117 19 -23 52 -61 73
-83 20 -22 37 -44 37 -48 0 -5 6 -13 14 -17 8 -4 36 -35 63 -69 27 -34 55 -68
63 -76 8 -8 40 -43 70 -78 30 -35 67 -77 82 -93 15 -16 28 -32 30 -35 11 -24
83 -66 174 -102 59 -23 116 -43 126 -45 11 -3 26 -10 34 -16 8 -7 17 -9 21 -6
3 4 11 3 17 -2 6 -4 36 -16 66 -26 103 -33 96 -26 103 -102 4 -37 7 -158 7
-268 0 -158 -3 -205 -14 -221 -14 -20 -99 -41 -196 -50 -19 -1 -55 -5 -80 -8
-25 -3 -70 -8 -100 -11 -189 -17 -257 -40 -356 -121 -23 -19 -44 -34 -48 -34
-10 0 -70 -43 -79 -57 -4 -7 -12 -13 -18 -13 -8 0 -64 -35 -79 -50 -3 -3 -25
-19 -50 -35 -25 -16 -47 -32 -50 -35 -12 -12 -66 -47 -82 -53 -10 -3 -18 -10
-18 -16 0 -5 -8 -11 -17 -15 -19 -6 -85 -49 -204 -131 -39 -27 -83 -58 -98
-67 -14 -9 -32 -22 -39 -28 -7 -7 -15 -10 -17 -9 -4 6 -68 415 -80 519 -2 19
-13 91 -24 160 -25 153 -30 192 -35 250 -3 25 -11 86 -20 135 -9 50 -18 113
-21 140 -3 28 -7 64 -9 80 -2 17 -7 76 -11 133 -9 110 -2 146 43 252 6 14 20
54 32 90 12 36 25 74 30 85 14 35 41 108 57 155 8 25 20 59 27 75 7 17 23 57
36 90 12 33 26 69 30 80 4 11 18 47 30 80 12 33 27 71 32 85 15 35 24 60 38
100 7 19 18 49 25 65 20 47 31 76 55 140 27 73 32 85 64 157 14 31 26 59 26
62 0 9 83 176 87 176 2 0 18 -16 36 -37z m2385 -70 c10 -21 25 -58 32 -83 7
-25 16 -49 20 -55 4 -5 12 -30 20 -55 7 -25 17 -49 22 -54 4 -6 8 -19 8 -31 0
-12 4 -25 8 -30 5 -6 19 -44 32 -85 13 -41 27 -79 32 -84 4 -6 8 -19 8 -31 0
-12 4 -25 8 -31 5 -5 19 -43 32 -84 13 -41 27 -79 32 -84 4 -6 8 -20 8 -32 0
-13 5 -26 10 -29 6 -3 10 -17 10 -30 0 -13 4 -26 8 -29 4 -3 14 -28 22 -56 8
-28 18 -53 22 -56 4 -3 8 -16 8 -29 0 -13 5 -27 10 -30 6 -3 10 -17 10 -30 0
-13 4 -26 8 -29 4 -3 14 -28 22 -56 8 -28 18 -53 22 -56 4 -3 8 -16 8 -29 0
-13 5 -27 10 -30 6 -3 10 -17 10 -30 0 -13 5 -27 10 -30 6 -3 10 -15 10 -26 0
-10 4 -27 10 -37 5 -9 19 -46 31 -82 20 -58 21 -76 14 -180 -7 -125 -11 -165
-15 -165 -1 0 -15 -70 -31 -155 -34 -186 -39 -209 -43 -235 -2 -11 -6 -27 -9
-35 -5 -13 -27 -125 -42 -210 -2 -14 -6 -36 -9 -50 -3 -14 -13 -65 -22 -115
-8 -49 -18 -97 -21 -105 -7 -16 -11 -40 -16 -80 -1 -14 -5 -29 -8 -35 -4 -5
-10 -34 -14 -63 -7 -54 -44 -112 -70 -112 -7 0 -49 22 -92 50 -74 47 -165 103
-202 125 -9 6 -32 21 -51 35 -19 14 -42 30 -51 35 -37 22 -133 81 -158 97 -14
10 -33 21 -41 25 -8 3 -19 12 -23 20 -4 7 -17 13 -27 13 -11 0 -20 4 -20 8 0
10 -77 62 -92 62 -6 0 -16 6 -22 14 -14 17 -101 65 -141 78 -30 10 -139 35
-185 42 -14 3 -36 7 -50 10 -14 3 -61 12 -105 21 -127 25 -164 36 -170 54 -7
24 -14 520 -8 554 6 30 26 42 108 66 22 7 49 16 60 21 11 4 40 13 65 20 44 12
57 17 110 37 14 6 27 10 30 11 29 2 143 62 160 83 5 6 97 110 160 180 14 15
43 47 65 71 22 24 71 82 110 128 38 47 79 95 90 106 11 12 31 35 45 52 14 17
54 63 90 103 36 39 66 75 68 80 3 8 -63 127 -78 139 -5 5 -35 49 -55 82 -132
220 -129 207 -78 283 21 32 43 65 48 74 6 9 16 20 23 24 6 4 12 12 12 18 0 25
131 172 167 188 2 1 11 -16 21 -36z m-105 2 c-3 -9 -8 -14 -10 -11 -3 3 -2 9
2 15 9 16 15 13 8 -4z m-2026 -257 c-3 -8 -6 -5 -6 6 -1 11 2 17 5 13 3 -3 4
-12 1 -19z m1837 -2 c-6 -16 -24 -23 -24 -8 0 10 22 33 27 28 2 -2 1 -11 -3
-20z m-1249 -36 c3 -5 1 -10 -4 -10 -6 0 -11 5 -11 10 0 6 2 10 4 10 3 0 8 -4
11 -10z m60 0 c3 -5 1 -10 -4 -10 -6 0 -11 5 -11 10 0 6 2 10 4 10 3 0 8 -4
11 -10z m868 -45 c120 -2 220 -5 221 -7 2 -1 23 -36 47 -76 24 -40 52 -85 61
-100 10 -15 21 -34 25 -42 10 -23 47 -75 56 -78 4 -2 7 -8 7 -14 0 -5 11 -24
24 -41 12 -18 26 -37 30 -44 3 -6 -14 -36 -39 -67 -25 -31 -45 -58 -45 -60 0
-3 -19 -25 -42 -49 -42 -44 -105 -116 -130 -149 -7 -10 -24 -19 -38 -20 -23
-3 -25 1 -32 57 -4 33 -8 123 -9 200 -2 77 -6 145 -10 150 -4 6 -9 23 -11 40
-2 18 -11 34 -24 40 -12 6 -28 16 -36 22 -13 11 -63 10 -138 -3 -14 -2 -41 -7
-60 -10 -19 -3 -40 -11 -45 -18 -6 -6 -19 -16 -30 -22 -11 -6 -22 -22 -23 -35
-2 -13 -7 -28 -12 -34 -4 -5 -6 -46 -4 -90 1 -44 6 -218 9 -386 l7 -306 -34
-27 c-19 -14 -41 -26 -49 -26 -8 0 -24 -7 -35 -15 -12 -8 -24 -12 -27 -9 -3 3
-16 0 -29 -7 -12 -7 -25 -14 -28 -14 -37 -8 -129 -27 -141 -31 -28 -8 -32 42
-44 501 -4 149 -8 321 -8 383 l-1 113 -31 -3 -30 -3 1 -155 c1 -85 5 -302 8
-481 7 -294 6 -328 -9 -343 -9 -9 -27 -16 -39 -16 -30 0 -129 33 -234 78 -78
34 -87 40 -85 62 1 14 4 126 7 250 3 124 8 293 11 376 4 126 2 154 -10 164 -8
7 -13 16 -10 20 17 28 -114 85 -203 89 -30 1 -56 2 -60 4 -4 1 -28 -9 -54 -23
-35 -18 -48 -31 -53 -55 -9 -42 -10 -116 -1 -210 13 -144 15 -254 6 -260 -5
-3 -28 14 -52 38 -97 97 -298 333 -298 348 0 4 19 30 43 57 23 27 56 66 72 86
17 21 39 49 50 61 11 13 27 33 35 45 28 41 92 125 108 143 15 17 48 18 631 12
339 -4 714 -8 834 -10z m57 -315 c5 -9 9 -25 8 -36 0 -10 3 -127 7 -259 6
-239 4 -261 -27 -309 -7 -10 -49 -56 -93 -102 -54 -56 -88 -84 -103 -84 -20 0
-22 5 -23 68 -1 37 -3 94 -4 127 -9 208 -17 485 -16 514 1 19 6 42 11 51 10
18 54 35 78 31 8 -1 20 3 27 9 8 7 19 9 24 5 6 -3 18 -2 26 3 24 13 74 2 85
-18z m-1250 -3 c87 -19 91 -24 92 -98 0 -73 -13 -530 -16 -571 -1 -16 -3 -44
-4 -63 -2 -31 -5 -35 -29 -35 -28 0 -47 15 -118 95 -52 58 -69 94 -71 150 -2
62 -12 201 -25 320 -12 123 -11 189 3 203 15 15 97 15 168 -1z m-180 -517 c0
-5 -7 -7 -15 -4 -8 4 -15 8 -15 10 0 2 7 4 15 4 8 0 15 -4 15 -10z m1154 -345
c-4 -8 -14 -15 -23 -15 -14 1 -13 3 3 15 25 19 27 19 20 0z m-2265 -152 c19
-116 21 -128 22 -143 0 -8 8 -55 16 -105 8 -49 16 -108 19 -130 8 -78 13 -121
19 -165 4 -25 9 -61 12 -80 2 -19 7 -48 10 -65 2 -16 5 -41 6 -55 1 -14 6 -30
10 -37 4 -6 4 -18 1 -27 -3 -9 -1 -23 6 -31 6 -8 9 -18 6 -23 -3 -5 3 -60 14
-123 11 -62 22 -150 25 -194 l5 -80 -20 25 c-12 14 -25 34 -31 45 -12 24 -26
47 -64 105 -42 63 -53 82 -64 108 -6 12 -15 22 -20 22 -5 0 -12 11 -15 25 -4
14 -11 25 -16 25 -6 0 -10 6 -10 13 0 8 -9 24 -20 37 -11 13 -20 27 -20 32 0
11 -42 72 -52 76 -5 2 -8 10 -8 17 0 8 -6 20 -13 27 -7 7 -18 24 -25 38 -32
63 -44 80 -53 80 -5 0 -9 9 -9 20 0 11 -7 23 -15 26 -8 4 -15 12 -15 19 0 8
-6 20 -13 27 -7 7 -18 24 -25 38 -7 14 -21 39 -32 55 -69 107 -64 131 54 230
26 22 58 49 70 60 13 11 45 38 71 60 27 22 60 51 75 65 71 67 85 64 99 -17z
m3780 -53 c33 -27 62 -50 65 -50 3 0 16 -10 29 -22 13 -13 48 -43 77 -68 124
-105 130 -124 70 -215 -11 -16 -24 -39 -30 -50 -23 -43 -37 -66 -53 -83 -10
-10 -17 -22 -17 -25 0 -4 -15 -29 -32 -55 -49 -71 -57 -85 -68 -109 -5 -13
-14 -23 -19 -23 -5 0 -14 -12 -20 -27 -16 -37 -34 -69 -54 -91 -10 -10 -17
-24 -17 -31 0 -6 -7 -14 -15 -17 -8 -4 -15 -12 -15 -19 0 -6 -9 -22 -20 -35
-11 -13 -20 -29 -20 -37 0 -7 -4 -13 -9 -13 -5 0 -14 -13 -21 -30 -7 -16 -16
-30 -21 -30 -4 0 -11 -9 -14 -21 -4 -12 -16 -30 -26 -40 -10 -10 -19 -26 -19
-34 0 -8 -5 -15 -10 -15 -6 0 -15 -11 -20 -25 -5 -14 -14 -25 -20 -25 -5 0
-13 -1 -17 -2 -9 -3 -8 40 2 92 3 19 8 46 11 60 2 14 13 70 25 125 11 55 22
111 24 125 2 14 7 36 10 50 3 14 16 81 30 150 77 381 83 411 88 457 1 12 5 25
10 29 4 4 7 18 7 30 0 48 22 124 35 124 8 0 41 -22 74 -50z m-4242 -332 c11
-13 23 -30 27 -38 3 -8 15 -28 26 -45 11 -16 23 -37 27 -45 4 -8 21 -35 38
-60 17 -25 34 -52 38 -60 4 -8 15 -27 25 -41 9 -15 33 -53 52 -84 19 -31 43
-69 52 -84 10 -14 22 -35 28 -46 21 -38 36 -63 50 -80 17 -20 35 -51 49 -82 6
-13 15 -23 21 -23 5 0 10 -9 10 -20 0 -11 7 -23 15 -26 8 -4 15 -14 15 -24 0
-9 9 -25 20 -35 11 -10 20 -24 20 -32 0 -7 7 -16 15 -19 8 -4 15 -14 15 -25 0
-10 6 -22 13 -26 6 -4 18 -19 25 -33 7 -14 32 -47 55 -73 l42 -49 80 41 c43
23 81 45 84 50 8 10 47 31 60 31 5 0 13 -10 17 -22 7 -24 49 -121 65 -150 5
-10 9 -24 9 -32 0 -23 74 -96 97 -96 12 0 25 -4 28 -10 3 -5 19 -10 35 -10 16
0 32 -5 36 -11 3 -6 15 -9 25 -6 10 3 22 1 25 -4 3 -5 17 -9 31 -9 13 0 37 -9
52 -19 15 -11 39 -23 54 -26 32 -8 34 -20 7 -60 -11 -16 -30 -45 -42 -64 -12
-19 -59 -90 -105 -159 -46 -68 -83 -128 -83 -133 0 -5 -4 -9 -8 -9 -9 0 -62
-77 -62 -89 0 -5 -9 -16 -20 -26 -11 -10 -20 -22 -20 -26 0 -11 -83 -133 -93
-138 -5 -2 -13 -13 -18 -25 -5 -11 -29 -48 -54 -81 -24 -33 -58 -84 -75 -112
-17 -29 -36 -55 -41 -59 -6 -3 -14 -16 -20 -27 -5 -12 -27 -47 -49 -77 -23
-30 -52 -72 -66 -92 -19 -30 -31 -38 -54 -38 -20 0 -32 6 -36 18 -3 9 -11 31
-18 47 -19 44 -31 72 -61 150 -36 92 -40 104 -59 147 -9 20 -16 41 -16 47 0 6
-4 11 -10 11 -5 0 -10 9 -10 20 0 11 -4 28 -9 38 -19 37 -31 69 -46 124 -20
71 -36 86 -76 71 -16 -6 -38 -9 -48 -6 -13 3 -24 -2 -33 -16 -7 -12 -18 -21
-25 -21 -7 0 -17 -9 -23 -20 -6 -11 -17 -20 -25 -20 -8 0 -19 -9 -25 -20 -6
-11 -16 -20 -23 -20 -7 0 -20 -8 -29 -17 -9 -10 -29 -27 -44 -38 -14 -11 -34
-27 -43 -35 -37 -32 -80 -59 -104 -65 -23 -6 -26 -3 -32 27 -36 212 -226 1391
-227 1413 -1 27 22 86 55 140 7 11 23 38 35 60 12 22 31 54 42 70 11 17 24 39
30 50 5 11 26 47 45 80 19 33 39 69 45 80 6 11 19 34 30 50 10 17 31 53 45 80
43 83 53 97 67 106 21 14 33 11 55 -13z m4646 -21 c15 -12 27 -28 27 -34 0 -6
6 -18 13 -25 7 -7 18 -24 25 -38 15 -29 35 -63 62 -105 11 -16 25 -42 31 -57
6 -16 15 -28 19 -28 4 0 13 -13 19 -30 5 -16 15 -30 20 -30 6 0 11 -9 11 -19
0 -11 5 -23 11 -26 5 -4 15 -17 20 -28 15 -34 34 -65 51 -84 9 -10 19 -28 22
-40 4 -13 12 -23 17 -23 5 0 9 -8 9 -17 0 -9 8 -25 17 -36 33 -36 28 -138 -22
-432 -57 -339 -54 -324 -60 -360 -3 -16 -7 -39 -8 -50 -1 -11 -5 -25 -10 -31
-4 -7 -7 -23 -7 -35 0 -28 1 -21 -45 -279 -19 -107 -37 -217 -40 -245 -4 -27
-11 -68 -17 -90 -5 -22 -12 -55 -15 -73 -3 -18 -9 -35 -14 -38 -13 -8 -174
106 -219 156 -8 9 -44 41 -80 70 -36 29 -69 59 -73 66 -4 8 -14 14 -21 14 -8
0 -16 6 -19 14 -3 8 -29 26 -57 40 -40 20 -56 24 -71 16 -24 -13 -41 -44 -34
-63 3 -7 -1 -20 -10 -27 -8 -7 -15 -21 -15 -31 0 -10 -4 -28 -9 -41 -21 -51
-24 -64 -22 -85 1 -11 -3 -24 -8 -28 -6 -3 -11 -15 -11 -26 0 -10 -4 -27 -9
-37 -8 -15 -23 -63 -52 -177 -6 -22 -15 -48 -20 -57 -5 -10 -9 -24 -9 -32 0
-27 -39 -106 -52 -106 -18 0 -52 40 -113 131 -27 41 -52 76 -55 79 -4 3 -30
41 -60 85 -59 88 -96 142 -152 215 -21 27 -38 53 -38 58 0 5 -9 17 -20 27 -11
10 -20 24 -20 31 0 7 -6 17 -13 21 -11 7 -32 36 -62 85 -5 9 -33 49 -61 90
-28 40 -77 111 -109 158 -32 47 -78 114 -102 150 -23 36 -50 73 -59 82 -10 10
-16 20 -13 22 14 13 92 46 108 46 11 0 23 5 26 10 3 6 19 10 35 10 16 0 32 5
35 10 4 6 15 8 25 5 10 -3 21 -1 25 5 3 5 19 10 34 10 16 0 35 7 42 16 7 9 24
20 36 25 13 5 28 19 33 31 6 13 14 30 20 38 17 26 88 185 95 213 7 25 9 26 24
13 22 -19 226 -116 245 -116 9 0 16 4 16 8 0 5 20 38 45 75 25 37 45 70 45 72
0 3 9 14 20 25 11 11 20 27 20 35 0 8 5 15 11 15 5 0 15 14 20 30 6 17 15 30
20 30 5 0 14 10 20 23 14 31 32 62 49 82 14 17 33 48 46 75 4 8 23 36 41 62
18 26 33 50 33 53 0 3 16 28 35 55 19 27 35 56 35 64 0 8 7 16 15 20 8 3 20
16 26 28 14 32 32 63 49 83 16 20 35 50 49 82 5 11 15 24 21 28 6 4 16 17 21
28 9 21 23 46 42 75 12 19 41 14 70 -11z m-2283 -307 c107 -15 113 -16 130
-22 8 -4 60 -14 115 -23 106 -17 185 -47 185 -68 0 -15 -47 -110 -75 -152 -46
-69 -20 -65 -381 -60 -355 5 -462 10 -510 26 -25 8 -38 24 -72 93 -51 100 -54
142 -14 157 33 13 212 38 230 31 7 -2 19 1 27 8 8 6 18 9 23 6 4 -2 30 -2 58
2 81 12 204 13 284 2z m-730 -109 c0 -11 34 -83 65 -140 14 -24 25 -50 25 -58
0 -7 10 -17 23 -22 13 -5 28 -16 35 -24 18 -21 181 -38 360 -37 23 0 48 0 55
0 341 -8 477 -7 488 6 6 8 19 14 29 14 15 0 53 47 69 85 2 6 15 24 27 41 13
16 30 47 39 67 12 29 21 37 41 37 26 0 146 -57 153 -73 2 -5 13 -13 25 -18 11
-5 35 -18 51 -29 17 -11 39 -24 50 -29 12 -5 27 -16 34 -25 7 -9 20 -16 27
-16 8 0 14 -4 14 -8 0 -5 10 -14 23 -21 28 -15 51 -29 107 -66 54 -36 80 -52
98 -61 8 -4 24 -16 36 -28 12 -12 31 -26 42 -32 19 -11 18 -12 -5 -85 -56
-175 -104 -244 -181 -255 -8 -1 -35 -7 -60 -14 -25 -6 -54 -13 -65 -15 -11 -3
-40 -10 -65 -15 -25 -6 -65 -15 -90 -20 -45 -9 -97 -24 -135 -40 -11 -5 -33
-11 -50 -14 -52 -11 -69 -14 -110 -26 -48 -13 -69 -18 -115 -26 -19 -4 -39
-10 -45 -14 -5 -5 -32 -11 -60 -15 -27 -4 -58 -12 -67 -16 -10 -5 -50 -11 -90
-13 -40 -2 -94 -9 -119 -16 -46 -12 -101 -4 -224 30 -22 6 -48 11 -57 11 -10
0 -20 4 -23 10 -4 5 -19 9 -35 9 -16 0 -32 5 -35 10 -3 6 -17 10 -30 10 -13 0
-26 4 -29 9 -3 5 -20 11 -38 14 -34 5 -44 8 -88 20 -14 4 -43 13 -65 18 -22 6
-49 15 -60 20 -20 9 -247 70 -275 74 -27 4 -74 16 -95 25 -11 4 -40 13 -65 20
-78 22 -96 33 -110 64 -7 17 -19 47 -27 66 -8 19 -21 50 -29 68 -8 18 -14 41
-14 50 0 10 -5 23 -12 30 -8 8 1 23 42 62 29 27 57 50 62 50 12 0 71 42 81 58
4 6 12 12 18 12 8 0 64 35 79 50 12 12 70 50 76 50 4 0 26 16 50 35 23 19 47
35 53 35 7 0 14 7 17 15 4 8 12 15 20 15 8 0 22 9 31 20 10 11 23 20 29 20 6
0 17 7 24 15 7 8 16 13 20 10 4 -3 13 2 20 10 14 17 30 20 30 6z m-15 -942 c5
-5 21 -9 36 -9 15 0 31 -5 35 -11 3 -6 14 -9 23 -6 10 2 25 -1 35 -8 9 -7 25
-11 35 -8 10 3 22 0 25 -6 4 -6 18 -11 31 -11 13 0 27 -4 30 -10 3 -5 17 -10
31 -10 13 0 32 -4 42 -9 34 -17 84 -30 97 -25 7 3 16 1 20 -5 3 -6 17 -11 30
-11 13 0 27 -4 30 -10 3 -5 17 -10 30 -10 40 0 52 -23 59 -112 4 -46 7 -443 8
-883 1 -630 -2 -809 -12 -843 l-13 -42 -116 114 c-64 63 -205 202 -314 310
-109 108 -203 196 -208 196 -5 0 -9 7 -9 15 0 8 -4 15 -9 15 -12 0 -543 527
-565 562 -17 25 -16 28 3 65 24 44 44 76 51 83 15 15 60 88 60 97 0 6 4 13 9
15 11 4 101 136 101 148 0 5 6 13 13 17 12 8 47 59 185 273 100 156 85 143
156 135 33 -3 65 -11 71 -16z m1425 -18 c0 -9 67 -104 93 -131 8 -8 17 -25 21
-37 4 -11 13 -24 21 -27 8 -3 15 -12 15 -19 0 -8 9 -22 20 -32 11 -10 20 -24
20 -31 0 -7 6 -17 13 -21 7 -4 18 -20 24 -35 7 -16 17 -28 23 -28 5 0 10 -7
10 -15 0 -8 9 -23 20 -32 11 -10 20 -22 20 -29 0 -6 9 -19 20 -29 11 -10 20
-24 20 -31 0 -7 9 -18 20 -24 11 -6 20 -19 20 -30 0 -10 6 -23 13 -27 16 -10
57 -69 57 -82 0 -5 8 -16 18 -23 9 -7 30 -37 45 -67 l28 -54 -23 -25 c-44 -49
-356 -352 -362 -352 -2 0 -46 -41 -97 -90 -50 -50 -94 -90 -95 -90 -2 0 -35
-30 -74 -67 -38 -38 -102 -97 -142 -133 -77 -70 -120 -110 -267 -250 -52 -50
-96 -90 -97 -90 -2 0 -25 -20 -51 -45 -25 -25 -52 -45 -59 -45 -6 0 -16 17
-21 38 -5 21 -10 415 -12 907 l-2 870 33 17 c34 17 89 33 173 50 28 5 57 12
65 15 8 4 19 5 23 4 9 -2 61 14 102 30 11 4 27 8 35 8 29 1 85 14 95 21 6 4
33 11 60 15 28 3 57 10 65 16 19 11 110 12 110 0z"/>
</g>
</svg>
