<?xml version="1.0" standalone="no"?>
<!DOCTYPE svg PUBLIC "-//W3C//DTD SVG 20010904//EN"
 "http://www.w3.org/TR/2001/REC-SVG-20010904/DTD/svg10.dtd">
<svg version="1.0" xmlns="http://www.w3.org/2000/svg"
 width="750.000000pt" height="1000.000000pt" viewBox="0 0 750.000000 1000.000000"
 preserveAspectRatio="xMidYMid meet">

<g transform="translate(0.000000,1000.000000) scale(0.100000,-0.100000)"
fill="#000000" stroke="none">
<path d="M2660 9580 c-123 -138 -228 -256 -231 -263 -4 -7 58 -350 137 -764
l145 -752 -88 -245 c-48 -135 -91 -246 -95 -246 -3 0 -11 15 -17 33 -6 17 -75
192 -152 388 l-141 355 -171 119 c-95 66 -203 141 -242 167 l-70 47 -555 9
c-305 4 -563 4 -572 -1 -10 -4 -18 -14 -18 -23 0 -8 113 -209 252 -447 277
-476 289 -497 525 -907 90 -157 174 -294 186 -305 12 -11 168 -83 345 -160
290 -125 323 -142 318 -160 -3 -11 -16 -67 -28 -125 l-22 -105 112 -285 c111
-284 112 -287 230 -765 l119 -480 175 -372 174 -371 -50 -477 c-31 -304 -46
-482 -40 -490 26 -39 297 -385 326 -418 l33 -38 519 0 c285 1 521 2 523 4 2 3
82 105 178 228 149 191 174 229 175 259 0 19 -21 236 -46 483 l-47 447 177
381 177 381 115 468 114 468 114 292 114 291 -20 87 c-11 48 -21 104 -22 125
l-1 38 329 143 329 143 52 89 c28 49 127 220 220 379 93 160 208 358 255 440
48 83 164 283 259 445 94 162 171 303 171 312 0 9 -5 20 -10 23 -13 8 -309 7
-783 -1 l-357 -7 -238 -166 -237 -166 -62 -155 c-35 -85 -105 -262 -156 -393
l-93 -239 -91 251 -91 252 64 332 c35 182 100 523 145 755 l81 424 -24 26
c-14 15 -118 132 -233 260 -117 131 -215 232 -225 232 -14 0 -338 -353 -362
-394 -3 -6 -37 -328 -74 -716 -54 -562 -71 -709 -84 -726 -9 -12 -89 -97 -177
-189 l-161 -167 -119 123 c-65 68 -145 152 -177 186 l-58 62 -69 712 -69 712
-49 56 c-211 242 -299 336 -316 339 -15 2 -77 -61 -245 -248z m220 118 c0 -7
18 -190 40 -407 22 -217 39 -396 37 -397 -5 -4 -442 404 -442 413 0 12 346
402 358 402 4 1 7 -5 7 -11z m1954 -187 c98 -110 178 -202 178 -206 0 -6 -446
-415 -448 -412 -4 7 82 817 86 817 3 0 86 -90 184 -199z m-1746 28 l111 -127
-86 -236 c-48 -130 -88 -235 -89 -233 -3 2 -74 713 -74 737 0 17 -13 30 138
-141z m1450 -216 c-20 -203 -37 -372 -38 -378 -1 -14 -170 445 -170 463 0 12
228 279 240 281 3 1 -12 -164 -32 -366z m-1263 -643 c30 -316 56 -585 59 -598
5 -30 0 -28 -127 43 -93 52 -107 64 -112 90 -3 17 -16 150 -31 296 l-26 266
88 241 c49 132 90 240 91 238 1 -1 27 -261 58 -576z m1126 326 l83 -228 -30
-295 -29 -295 -114 -65 c-62 -35 -115 -62 -118 -59 -3 2 20 265 51 583 31 318
56 587 56 598 1 33 12 7 101 -239z m495 52 c-24 -46 -107 -200 -183 -343 -77
-143 -152 -284 -167 -313 -15 -30 -29 -52 -32 -49 -3 2 4 94 16 203 11 109 20
206 20 215 0 8 64 74 142 145 78 71 165 150 192 176 28 26 52 48 54 48 1 0
-17 -37 -42 -82z m-2093 -117 c92 -84 167 -156 167 -160 0 -4 9 -94 20 -201
11 -107 20 -203 20 -215 0 -11 -31 36 -68 105 -114 210 -347 644 -351 655 -5
12 3 6 212 -184z m-127 -118 c75 -142 184 -345 241 -451 58 -106 103 -197 101
-203 -4 -12 -241 -287 -249 -288 -3 -1 -38 169 -77 377 -40 207 -92 477 -116
600 -23 122 -42 222 -41 222 2 0 65 -116 141 -257z m2253 -58 c-92 -482 -170
-880 -174 -883 -1 -2 -60 63 -130 143 l-127 146 137 257 c210 392 350 651 351
649 1 -1 -25 -141 -57 -312z m-3464 -411 l240 -6 189 -687 c104 -377 190 -691
193 -696 2 -6 -104 -43 -247 -86 l-250 -76 -54 91 c-29 50 -160 276 -291 501
-130 226 -277 478 -325 560 -169 289 -230 396 -230 404 0 8 324 6 775 -5z
m5372 9 c-12 -23 -314 -545 -542 -938 -144 -247 -283 -487 -309 -532 -26 -46
-53 -83 -60 -83 -7 0 -118 32 -246 70 -128 39 -235 70 -237 70 -2 0 -3 6 -3
13 0 19 372 1371 380 1380 4 5 209 12 456 16 247 4 475 8 507 9 32 1 56 -1 54
-5z m-4749 -268 l72 -50 -5 -55 c-3 -30 -15 -230 -26 -445 -11 -214 -22 -391
-23 -392 -1 -2 -24 75 -49 170 -26 94 -97 352 -157 572 -61 220 -110 401 -110
403 0 3 46 -29 298 -203z m3573 -62 c-172 -628 -241 -876 -244 -879 -3 -4 -48
796 -47 858 0 36 2 38 178 161 97 68 179 123 180 121 2 -1 -28 -119 -67 -261z
m-2529 -61 c79 -149 154 -289 208 -388 l39 -71 -441 -269 c-243 -148 -445
-270 -449 -272 -5 -2 6 34 23 80 16 46 83 228 147 405 l116 322 138 161 c76
88 141 160 145 160 4 0 37 -58 74 -128z m1433 20 c50 -58 110 -128 134 -154
41 -45 54 -75 192 -455 82 -224 147 -408 146 -410 -4 -3 -865 521 -879 535 -7
7 30 84 117 249 158 296 185 343 193 342 4 0 48 -48 97 -107z m-202 66 c-10
-13 -23 -37 -148 -271 -31 -59 -59 -107 -61 -105 -7 8 26 282 35 291 15 15
175 104 180 101 2 -2 -1 -9 -6 -16z m-1108 -37 c44 -25 83 -48 86 -53 6 -10
32 -279 26 -284 -2 -3 -196 353 -206 378 -5 13 -2 12 94 -41z m2079 -641 c13
-228 22 -416 21 -418 -2 -2 -53 -11 -114 -21 l-110 -17 -52 139 -51 139 138
352 c139 350 139 351 142 296 2 -30 14 -242 26 -470z m-2976 172 c72 -186 132
-344 132 -350 0 -10 -40 -123 -90 -258 -8 -21 -8 -21 -114 -4 -59 10 -110 20
-113 24 -4 3 3 194 16 424 12 229 22 436 23 460 1 23 4 42 7 42 3 0 66 -152
139 -338z m1372 -80 c0 -57 -4 -102 -9 -100 -4 2 -66 36 -138 76 l-130 74 -12
141 c-7 78 -15 162 -18 187 l-5 45 156 -160 155 -160 1 -103z m355 225 c-9
-95 -20 -175 -24 -178 -6 -7 -259 -149 -264 -149 -2 0 0 176 2 203 2 15 296
315 300 306 1 -6 -5 -87 -14 -182z m-506 -323 c75 -42 138 -78 140 -80 6 -5
-272 -1344 -279 -1344 -3 0 -165 154 -360 342 -599 576 -609 586 -597 596 7 5
91 57 187 115 96 58 303 184 460 280 157 97 291 173 299 171 7 -2 75 -38 150
-80z m812 -90 c152 -93 362 -221 467 -284 105 -63 190 -118 189 -122 -5 -17
-961 -928 -967 -921 -12 14 -282 1337 -274 1340 5 2 72 39 149 83 77 44 145
78 150 76 6 -2 134 -80 286 -172z m-361 -1469 c18 -149 160 -1466 160 -1486 0
-13 -29 14 -87 83 -248 293 -325 378 -342 378 -12 0 -93 -87 -222 -239 -112
-132 -205 -238 -207 -237 -1 2 36 354 82 782 l85 779 126 615 c70 338 129 622
132 630 6 18 259 -1191 273 -1305z m-1874 895 c28 -99 49 -180 46 -180 -15 0
-521 224 -517 229 4 4 383 122 416 130 3 0 28 -80 55 -179z m145 159 l67 -11
-28 -76 c-70 -190 -77 -206 -83 -186 -19 64 -77 282 -77 288 0 4 12 5 28 2 15
-3 57 -11 93 -17z m3039 14 c1 -16 -75 -293 -80 -293 -8 0 -103 260 -97 266 4
4 110 25 170 33 4 1 7 -2 7 -6z m395 -89 c50 -15 94 -30 98 -34 4 -4 -108 -57
-249 -118 -142 -62 -259 -110 -261 -108 -4 4 85 333 93 348 2 3 55 -9 116 -28
62 -19 154 -46 203 -60z m-2846 -413 c248 -238 451 -434 451 -435 0 -2 -93 23
-207 55 l-207 58 -308 206 c-169 114 -310 210 -312 214 -6 10 117 342 126 339
4 -2 210 -198 457 -437z m2270 273 c33 -91 61 -169 61 -172 -1 -4 -143 -102
-318 -218 l-317 -212 -193 -52 c-107 -28 -195 -50 -197 -48 -5 4 887 866 896
867 4 1 34 -74 68 -165z m-2646 -398 c114 -77 206 -141 204 -143 -5 -4 -460
108 -469 116 -4 3 2 45 14 94 14 61 23 85 31 80 7 -5 106 -71 220 -147z m2751
56 c10 -46 16 -85 14 -86 -2 -2 -100 -26 -218 -55 -118 -28 -226 -54 -240 -58
-14 -3 74 62 195 145 121 82 223 147 226 143 3 -3 14 -44 23 -89z m-2697 -234
c145 -35 262 -66 260 -70 -2 -8 -380 -318 -387 -318 -4 0 -103 249 -176 444
-6 16 -4 18 17 13 13 -4 142 -35 286 -69z m2694 55 c-5 -10 -46 -112 -91 -228
-45 -115 -83 -211 -85 -213 -3 -4 -98 72 -308 245 -49 40 -87 73 -85 74 79 22
548 137 561 138 14 1 16 -3 8 -16z m-2102 -208 c130 -36 239 -67 244 -68 7 -2
-123 -194 -564 -840 -89 -130 -166 -234 -170 -230 -6 8 -201 791 -203 820 -1
10 438 381 453 383 2 0 110 -29 240 -65z m1656 -106 c116 -94 218 -179 228
-188 17 -16 13 -36 -82 -421 -54 -223 -100 -414 -102 -424 -3 -13 -55 55 -167
220 -90 131 -255 374 -368 538 -112 165 -204 302 -204 306 0 5 444 135 475
139 6 0 105 -76 220 -170z m-1417 -246 c-10 -87 -47 -428 -83 -758 l-65 -599
-112 -113 c-62 -62 -116 -109 -120 -105 -6 6 -314 659 -320 680 -2 5 127 199
286 433 160 233 319 468 355 521 37 53 69 97 72 98 3 0 -3 -71 -13 -157z m882
-83 c84 -124 190 -279 235 -345 189 -277 281 -412 297 -436 16 -25 13 -31
-144 -370 -88 -189 -162 -346 -164 -349 -3 -2 -56 47 -119 110 l-114 115 -80
747 c-45 411 -81 752 -81 759 0 19 3 15 170 -231z m-314 -1022 c110 -128 207
-243 218 -255 18 -24 17 -28 -99 -436 -183 -645 -155 -569 -246 -667 l-78 -85
-68 74 c-37 41 -74 83 -81 93 -7 10 -76 239 -153 509 l-139 490 217 255 c120
139 221 254 224 254 4 0 96 -104 205 -232z m-567 -803 c72 -252 130 -459 128
-460 -1 -1 -132 -43 -290 -93 l-289 -90 6 42 c3 22 24 221 46 441 l41 400 112
112 c61 62 112 111 114 110 1 -2 61 -209 132 -462z m973 358 l107 -108 46
-431 c25 -237 45 -437 45 -446 0 -13 -17 -10 -97 16 -54 18 -184 59 -289 91
l-191 59 17 61 c9 33 68 241 131 462 63 222 116 403 119 403 3 0 54 -48 112
-107z m-732 -964 l74 -82 -31 -26 c-16 -14 -66 -57 -109 -96 -44 -38 -119
-106 -169 -150 -49 -43 -102 -90 -116 -103 l-26 -23 -146 187 c-81 103 -145
189 -143 191 6 7 560 181 577 182 8 1 48 -36 89 -80z m618 -8 c156 -49 285
-91 288 -94 7 -6 -278 -376 -288 -374 -3 1 -100 85 -214 187 -114 102 -214
190 -221 195 -11 9 1 27 59 93 40 45 77 82 83 82 5 0 137 -40 293 -89z m-287
-306 l202 -180 -206 -3 c-114 -1 -299 -1 -412 0 l-205 3 203 182 c111 100 205
181 209 180 4 -1 98 -83 209 -182z"/>
</g>
</svg>
