<?xml version="1.0" standalone="no"?>
<!DOCTYPE svg PUBLIC "-//W3C//DTD SVG 20010904//EN"
 "http://www.w3.org/TR/2001/REC-SVG-20010904/DTD/svg10.dtd">
<svg version="1.0" xmlns="http://www.w3.org/2000/svg"
 width="1200.000000pt" height="1031.000000pt" viewBox="0 0 1200.000000 1031.000000"
 preserveAspectRatio="xMidYMid meet">

<g transform="translate(0.000000,1031.000000) scale(0.100000,-0.100000)"
fill="#000000" stroke="none">
<path d="M4260 10144 c-168 -85 -474 -240 -680 -345 l-375 -189 -240 -222
c-132 -121 -401 -370 -598 -552 -197 -182 -363 -334 -370 -337 -7 -4 -88 61
-197 158 -279 249 -272 244 -343 259 -110 24 -758 75 -910 72 l-137 -3 -24
-30 c-13 -16 -43 -77 -66 -135 -24 -58 -101 -247 -172 -420 l-129 -315 0 -120
c0 -99 17 -240 100 -820 56 -385 106 -720 112 -745 17 -68 131 -336 215 -506
84 -171 76 -162 342 -387 83 -70 168 -134 189 -143 21 -8 47 -18 58 -23 23 -9
315 -104 330 -107 13 -3 171 -59 212 -75 17 -7 34 -22 37 -34 3 -11 28 -189
56 -395 28 -206 60 -440 71 -520 11 -80 23 -172 26 -205 6 -66 4 -63 167 -235
67 -71 269 -287 326 -350 21 -23 175 -185 285 -300 473 -492 656 -697 782
-877 49 -70 272 -388 495 -706 295 -420 451 -632 569 -775 198 -238 338 -391
387 -426 20 -14 129 -59 242 -101 113 -42 228 -85 255 -95 286 -109 249 -104
777 -96 l446 7 139 50 c76 28 150 54 164 59 25 7 331 119 392 142 16 6 54 41
85 78 31 36 120 138 197 226 167 190 182 208 263 316 58 75 122 166 500 708
64 91 137 197 164 235 27 39 80 115 118 170 130 188 145 210 201 285 60 81
196 234 355 400 55 58 129 137 164 175 35 39 103 111 150 160 48 50 100 104
116 122 52 56 255 274 414 443 202 214 231 246 251 277 25 37 67 275 84 471 3
34 9 81 14 105 12 51 18 86 25 152 4 28 13 102 22 165 8 63 21 162 27 219 11
92 15 106 37 122 14 11 111 48 215 83 261 89 409 142 442 160 29 15 156 119
322 261 76 66 151 156 151 181 0 5 21 53 70 159 39 86 134 313 151 363 16 46
46 217 64 367 3 28 13 102 22 165 9 63 17 124 18 135 1 11 5 36 8 55 4 19 16
105 27 190 11 85 29 209 40 275 10 66 22 145 25 175 4 30 9 69 13 85 4 17 7
86 7 155 l0 125 -169 425 c-93 234 -180 442 -193 462 -40 60 1 60 -783 -2
-140 -11 -268 -23 -285 -26 -68 -14 -138 -65 -325 -235 -115 -105 -186 -165
-217 -183 -15 -9 -93 59 -438 379 -148 138 -388 359 -532 491 l-262 239 -273
137 c-150 76 -455 230 -677 343 l-404 205 -1416 0 -1416 0 -305 -156z m1570
10 c0 -9 -56 -72 -179 -199 -58 -60 -216 -231 -351 -380 -135 -148 -297 -326
-360 -395 -64 -69 -251 -273 -417 -455 -165 -181 -313 -341 -328 -355 l-27
-25 7 25 c4 14 11 39 16 55 5 17 35 122 65 235 31 113 67 246 81 295 13 50 36
132 49 182 13 51 29 105 34 119 6 15 19 63 29 108 11 45 32 126 49 181 31 108
70 248 77 280 15 73 89 303 102 318 15 16 56 17 585 17 312 0 568 -3 568 -6z
m1478 -11 c6 -10 37 -115 70 -233 34 -118 117 -413 186 -655 100 -357 226
-814 253 -920 5 -22 -7 -10 -182 180 -60 66 -155 170 -210 230 -102 111 -566
616 -770 840 -60 66 -140 154 -177 195 -36 41 -127 140 -202 220 -75 80 -136
148 -136 152 0 5 261 8 580 8 542 0 580 -1 588 -17z m-2948 -664 c-291 -1055
-337 -1219 -345 -1219 -3 0 -23 37 -46 82 -23 45 -53 100 -67 122 -14 23 -94
167 -177 321 -84 154 -203 374 -265 489 -81 151 -110 213 -104 224 5 8 86 52
179 99 176 88 226 113 680 342 148 75 276 142 285 150 13 13 15 12 18 -5 2
-11 -70 -283 -158 -605z m3428 465 c169 -86 426 -217 572 -292 146 -74 267
-136 269 -138 5 -5 -309 -598 -376 -709 -17 -27 -87 -154 -157 -280 -69 -127
-132 -239 -139 -249 -12 -17 -16 -10 -36 70 -12 49 -37 145 -56 214 -81 293
-366 1324 -394 1420 -16 57 -27 108 -25 112 3 5 12 8 20 8 9 0 154 -70 322
-156z m-1632 19 c172 -188 539 -589 585 -638 26 -27 56 -59 66 -71 10 -12 59
-66 109 -120 50 -54 196 -214 324 -354 128 -140 279 -304 335 -365 158 -171
215 -237 215 -248 0 -6 -32 -8 -92 -4 -372 26 -801 48 -843 44 -27 -3 -205
-42 -394 -86 -189 -45 -361 -81 -383 -81 l-38 0 0 1003 c0 552 3 1007 7 1010
13 13 21 6 109 -90z m-229 -1930 c-3 -3 -130 24 -597 127 -80 18 -172 36 -205
41 -56 8 -313 -2 -755 -30 -80 -6 -149 -6 -153 -2 -6 6 110 153 143 181 3 3
107 115 230 250 124 135 232 252 240 260 8 8 35 38 60 65 25 28 95 104 155
170 150 163 195 213 234 260 41 48 295 323 462 500 42 44 101 106 130 139 l54
59 3 -1008 c1 -555 1 -1010 -1 -1012z m2942 1295 c42 -41 135 -127 206 -193
124 -114 172 -159 345 -321 41 -39 140 -131 220 -204 241 -221 263 -243 283
-289 20 -46 71 -387 60 -404 -7 -11 -8 -11 -483 48 -201 25 -605 74 -899 110
-293 36 -540 69 -547 73 -12 7 103 225 519 977 60 110 121 220 134 245 40 75
40 75 162 -42z m-5498 -121 c64 -116 192 -349 284 -517 92 -168 194 -353 226
-411 32 -58 59 -110 59 -116 0 -6 -8 -14 -17 -18 -18 -7 -337 -48 -658 -85
-99 -11 -236 -27 -305 -35 -542 -65 -911 -105 -940 -103 -22 2 -34 8 -32 16 1
7 5 29 8 50 3 20 10 64 15 97 6 33 14 89 19 125 11 90 20 108 81 165 30 27
119 110 199 184 149 140 166 155 430 402 85 80 179 167 209 195 30 27 63 58
75 69 95 92 212 195 220 195 6 0 63 -96 127 -213z m-2655 -407 c93 -72 199
-161 203 -172 2 -5 -107 -121 -242 -256 l-245 -247 -87 -395 c-47 -217 -92
-408 -99 -425 l-14 -30 -6 35 c-21 124 -76 583 -76 633 0 49 24 123 100 312
29 72 60 150 70 175 62 156 130 321 145 350 34 68 42 72 121 68 66 -3 75 -6
130 -48z m10788 28 c8 -13 71 -167 140 -343 70 -176 140 -350 156 -388 17 -37
30 -80 30 -95 0 -33 -65 -569 -81 -664 -6 -38 -14 -68 -18 -68 -3 0 -37 138
-75 308 -37 169 -81 363 -97 432 l-30 125 -96 100 c-52 55 -156 162 -231 238
l-137 138 70 65 c155 143 208 173 302 174 44 0 55 -4 67 -22z m-411 -2 c-16
-28 -969 -846 -985 -846 -10 0 -18 4 -18 8 0 9 -24 158 -41 258 -13 74 -8 84
83 164 35 30 108 96 163 146 118 107 250 213 280 224 18 7 171 24 430 49 50 4
91 9 93 10 2 0 -1 -5 -5 -13z m-9993 -11 c118 -6 284 -22 317 -30 29 -7 95
-60 316 -254 122 -107 190 -173 194 -190 8 -30 -41 -349 -55 -363 -6 -6 -16
-7 -25 -2 -37 21 -967 837 -962 844 3 5 29 7 58 5 28 -3 99 -7 157 -10z m45
-381 c61 -53 155 -135 210 -183 55 -47 125 -108 155 -136 31 -27 102 -90 159
-139 69 -61 98 -92 89 -96 -7 -4 -75 -15 -151 -24 -75 -9 -155 -23 -177 -31
-46 -16 -110 -68 -314 -254 l-148 -136 6 -464 c5 -414 7 -466 22 -490 17 -25
244 -334 409 -556 45 -60 94 -133 108 -160 21 -42 47 -140 47 -177 0 -15 -22
-8 -51 16 -16 14 -213 154 -439 312 -226 157 -420 296 -432 309 -26 27 -24 10
-38 405 -6 179 -13 368 -15 420 -3 52 -9 217 -15 365 -5 149 -12 349 -16 446
-4 105 -3 182 2 192 12 20 465 477 473 477 3 0 56 -43 116 -96z m10027 -96
c101 -106 201 -212 221 -234 l37 -41 0 -134 c0 -74 -7 -289 -15 -479 -8 -190
-22 -532 -31 -760 -14 -370 -18 -418 -34 -441 -16 -21 -561 -410 -810 -576
-41 -28 -84 -60 -94 -72 -36 -39 -38 -28 -17 69 13 63 -6 36 474 666 43 56 82
116 87 134 5 18 10 241 10 497 l0 464 -62 58 c-272 249 -344 313 -367 325 -14
8 -91 24 -171 36 -80 11 -153 23 -162 26 -17 5 -6 16 227 219 416 363 501 435
510 435 7 0 95 -87 197 -192z m-5898 -284 c83 -19 198 -46 256 -59 58 -14 152
-35 210 -49 58 -13 120 -27 137 -31 18 -4 35 -10 38 -15 3 -4 -48 -194 -114
-422 -65 -227 -153 -534 -196 -683 -42 -148 -81 -274 -86 -280 -6 -5 -25 6
-52 31 -23 22 -116 103 -207 179 -153 129 -183 156 -177 162 2 1 25 4 53 7 48
5 125 40 234 106 25 15 77 46 116 68 158 91 167 134 51 247 -294 287 -369 353
-413 364 -50 13 -641 61 -745 61 -81 0 -152 -21 -325 -96 -71 -30 -229 -96
-352 -145 -123 -49 -236 -97 -250 -106 -42 -26 -113 -86 -282 -233 -207 -180
-193 -170 -185 -134 19 82 26 92 148 197 326 279 374 321 402 345 17 15 80 69
140 121 61 51 126 108 145 125 93 83 180 154 227 184 64 41 105 46 588 67 334
14 420 19 469 23 10 1 87 -14 170 -34z m1906 16 c85 -5 279 -16 430 -25 151
-9 291 -20 310 -25 24 -6 105 -70 251 -197 118 -103 339 -295 490 -426 150
-131 287 -254 303 -273 21 -26 30 -50 34 -86 3 -33 1 -49 -6 -47 -5 2 -107 90
-226 195 l-215 191 -238 101 c-469 199 -611 253 -682 259 -71 5 -522 -28 -716
-53 l-120 -15 -125 -123 c-69 -67 -169 -164 -222 -216 -54 -51 -98 -101 -98
-109 1 -32 67 -91 160 -143 25 -14 103 -60 173 -102 109 -65 135 -76 174 -76
24 0 43 -4 41 -9 -3 -8 -128 -116 -362 -313 -38 -32 -70 -57 -71 -56 -1 2 -28
93 -60 203 -59 207 -122 423 -251 870 -41 143 -77 267 -80 276 -3 10 5 20 21
27 28 13 195 56 420 108 317 74 367 83 440 78 39 -2 140 -9 225 -14z m-3442
-144 c-48 -44 -253 -225 -456 -401 -203 -176 -375 -328 -381 -338 -11 -17 -50
-326 -96 -757 -18 -171 -22 -193 -35 -185 -12 7 -760 1514 -760 1530 0 21 23
25 239 45 114 11 220 22 236 25 17 2 89 12 160 20 72 9 146 18 165 20 19 3
127 16 240 29 390 48 705 87 713 89 4 1 19 3 35 3 24 2 18 -7 -60 -80z m4652
54 c151 -19 338 -43 490 -61 41 -4 149 -18 240 -29 481 -59 771 -94 833 -99 4
-1 7 -5 7 -10 0 -20 -762 -1541 -769 -1536 -5 2 -11 39 -14 82 -4 43 -13 139
-22 213 -8 74 -24 223 -35 330 -11 107 -25 217 -32 245 -14 61 -58 110 -258
284 -553 479 -670 583 -670 592 0 14 59 11 230 -11z m-6560 -268 c0 -26 -11
-118 -24 -203 -99 -626 -154 -967 -202 -1247 -29 -178 -54 -325 -54 -328 0
-19 -27 9 -77 79 -33 45 -134 186 -225 312 l-166 230 -7 390 -7 391 156 148
c219 209 237 225 271 232 43 10 253 39 298 42 l37 3 0 -49z m8527 29 c114 -15
148 -24 178 -44 19 -13 108 -91 197 -173 l161 -148 -7 -428 -6 -428 -216 -293
c-119 -160 -221 -296 -226 -302 -13 -14 -25 10 -33 64 -3 25 -22 143 -41 261
-19 118 -41 258 -49 310 -8 52 -31 192 -50 310 -128 794 -134 835 -119 874 8
21 36 20 211 -3z m-4211 -531 c69 -256 145 -539 169 -629 25 -91 45 -174 45
-184 0 -35 -122 -602 -132 -614 -5 -6 -46 -24 -90 -39 -72 -24 -90 -26 -167
-20 -47 4 -99 11 -116 16 -16 5 -49 14 -72 20 -40 10 -43 14 -57 63 -8 29 -38
167 -66 307 -61 300 -66 236 48 620 156 522 190 638 238 805 19 66 39 131 45
145 l11 25 10 -25 c5 -14 66 -234 134 -490z m-5682 155 c3 -99 13 -364 21
-590 8 -225 17 -473 20 -550 6 -164 9 -166 -83 50 -45 107 -64 167 -80 255
-35 192 -53 350 -48 414 6 67 6 65 34 186 11 47 28 118 36 158 9 39 24 105 33
145 10 39 18 74 18 77 1 5 4 16 22 103 7 31 7 30 14 -18 3 -28 9 -131 13 -230z
m1882 -510 c202 -407 369 -750 371 -762 3 -14 -1 -23 -14 -27 -10 -3 -187 -39
-393 -81 -206 -42 -428 -87 -493 -100 -64 -14 -124 -25 -132 -25 -11 0 -15 13
-15 53 0 51 6 92 55 402 13 88 27 174 29 190 3 17 9 59 15 95 17 107 21 133
26 175 2 22 9 63 15 90 5 28 12 66 14 85 2 19 12 76 21 125 9 50 20 119 25
155 5 36 18 119 30 185 11 66 22 140 26 164 7 61 15 69 36 40 9 -13 182 -357
384 -764z m2202 755 c504 -37 546 -42 579 -64 38 -26 343 -315 343 -325 0 -4
-30 -24 -67 -46 -38 -21 -111 -64 -163 -94 l-94 -56 -98 2 c-54 2 -220 12
-370 23 -421 31 -341 44 -767 -132 -397 -164 -450 -180 -662 -194 -76 -5 -112
-3 -130 6 -27 14 -109 90 -109 101 0 9 13 22 85 84 32 28 136 119 232 202 95
84 183 159 196 167 12 8 137 60 277 116 140 56 300 120 355 142 157 63 229 88
243 83 7 -3 74 -9 150 -15z m3107 9 c40 -11 242 -88 302 -115 17 -8 34 -14 38
-14 3 0 25 -8 48 -19 23 -10 69 -30 102 -44 205 -88 304 -133 335 -152 59 -38
490 -415 490 -429 0 -7 -24 -36 -54 -64 -63 -59 -92 -68 -212 -58 -184 14
-289 46 -664 201 -162 67 -310 127 -329 134 -51 17 -173 14 -526 -14 -176 -14
-333 -23 -348 -19 -26 5 -278 146 -311 173 -16 13 13 43 275 288 79 74 123 93
217 93 36 0 286 23 427 39 104 12 165 12 210 0z m2389 -26 c3 -16 22 -127 41
-248 18 -121 75 -479 124 -795 50 -317 94 -604 97 -639 7 -64 7 -64 -17 -58
-13 3 -136 29 -274 57 -632 129 -741 152 -748 160 -5 4 132 291 303 636 439
886 454 914 461 914 4 0 10 -12 13 -27z m1566 -268 c67 -315 72 -357 59 -518
-16 -212 -50 -359 -121 -525 -33 -78 -65 -145 -70 -148 -5 -3 -6 39 -3 98 2
57 9 218 15 358 5 140 12 296 15 345 3 50 10 216 16 370 6 153 13 284 16 289
11 16 20 -20 73 -269z m-7030 -385 c250 -16 264 -20 359 -93 111 -87 496 -421
530 -460 15 -18 35 -54 45 -82 20 -59 89 -392 84 -406 -2 -5 -102 87 -222 203
-219 212 -528 469 -655 543 l-57 33 -230 4 -231 3 -54 -36 c-30 -20 -119 -89
-198 -153 -79 -64 -146 -116 -150 -116 -3 0 -112 53 -241 117 l-235 116 65 9
c226 28 160 6 710 235 118 50 222 93 230 96 8 3 29 4 45 2 17 -2 109 -9 205
-15z m3198 -24 c48 -19 121 -50 163 -70 42 -20 80 -36 83 -36 3 0 25 -9 49
-19 86 -40 258 -112 319 -135 60 -23 174 -41 228 -38 48 4 -3 -25 -232 -131
l-227 -104 -91 68 c-50 37 -123 95 -163 127 -132 109 -127 107 -382 104 -217
-3 -221 -3 -265 -29 -104 -61 -396 -295 -550 -442 -266 -253 -328 -311 -333
-311 -2 0 2 24 9 53 7 28 28 119 45 201 17 82 40 164 50 181 30 51 597 535
657 560 66 29 254 50 465 54 78 1 98 -3 175 -33z m1277 -406 c37 -358 38 -753
3 -887 -12 -49 25 -34 -337 -137 l-195 -56 -405 66 c-223 36 -416 68 -427 72
-25 8 -394 339 -394 353 0 5 106 9 268 9 l267 0 153 135 c85 74 179 151 210
172 32 21 199 108 372 194 244 121 331 169 384 213 51 42 71 54 77 44 4 -7 14
-87 24 -178z m-6027 136 c49 -46 66 -55 257 -146 275 -131 514 -255 560 -290
28 -21 106 -88 173 -148 74 -67 140 -117 165 -127 35 -13 80 -15 265 -13 122
2 222 0 222 -3 0 -5 -308 -276 -368 -323 -27 -22 -155 -49 -417 -91 -88 -14
-200 -35 -250 -47 -115 -28 -161 -26 -320 12 -165 40 -377 100 -391 111 -6 5
-16 89 -23 191 -6 101 -14 196 -17 212 -2 16 0 81 6 145 6 64 15 172 21 241 6
69 15 154 20 190 22 154 23 155 97 86z m1342 -80 c0 -6 -18 -51 -40 -101 -22
-49 -40 -97 -40 -107 0 -10 25 -84 55 -163 30 -80 55 -150 55 -155 0 -6 -35
-10 -80 -10 l-80 0 -25 51 c-30 58 -85 204 -85 224 0 7 20 48 45 89 25 42 45
80 45 85 0 4 19 29 43 54 34 37 48 46 75 45 17 -1 32 -6 32 -12z m3363 -5 c33
-28 127 -206 128 -242 1 -34 -54 -180 -94 -251 -20 -37 -22 -38 -78 -38 -89 0
-92 2 -68 63 65 163 82 215 80 246 -1 19 -17 71 -36 115 -44 105 -45 108 -15
116 38 11 63 8 83 -9z m-3094 -7 c27 -6 41 -22 106 -131 l75 -124 -68 -132
-68 -132 -59 -3 c-32 -2 -62 1 -67 6 -6 6 9 49 36 111 25 55 46 114 46 130 0
16 -16 71 -36 122 -50 128 -55 147 -41 153 18 7 41 7 76 0z m2801 -1 c0 -4
-21 -62 -47 -130 l-46 -124 53 -122 c29 -67 55 -128 57 -134 4 -10 -11 -13
-53 -13 -33 0 -68 3 -79 6 -22 6 -135 208 -135 241 0 30 142 256 170 270 27
14 80 18 80 6z m126 -128 c13 -31 24 -62 24 -69 0 -22 -62 -186 -70 -186 -4 0
-19 30 -32 67 -25 65 -25 68 -8 107 9 23 25 62 34 89 10 26 20 47 22 47 3 0
16 -25 30 -55z m-3062 -27 c14 -40 26 -79 26 -86 0 -14 -57 -142 -63 -142 -2
0 -17 34 -32 76 -24 67 -26 80 -16 114 18 60 40 110 50 110 4 0 20 -33 35 -72z
m460 -55 l79 -67 -80 -77 c-76 -73 -152 -129 -112 -83 22 25 51 84 43 84 -4 0
0 8 9 18 30 33 29 73 -4 135 -16 31 -27 57 -22 57 4 0 44 -30 87 -67z m2116
-3 l-20 -40 34 -68 c19 -38 48 -92 65 -120 17 -29 28 -52 24 -52 -5 0 -89 74
-186 164 l-39 35 34 30 c78 69 103 90 106 91 1 0 -7 -18 -18 -40z m954 5 l39
-35 -46 -45 c-51 -49 -79 -60 -54 -21 11 16 14 41 12 80 -2 31 0 56 3 56 4 -1
25 -16 46 -35z m-4000 -121 l7 -28 -42 35 c-65 54 -68 63 -34 97 l30 28 16
-52 c9 -28 19 -64 23 -80z m2896 -126 c14 -13 99 -90 190 -170 91 -80 239
-212 330 -293 91 -80 181 -154 200 -164 54 -27 144 -45 605 -116 11 -2 65 -11
120 -20 194 -32 181 -33 418 34 119 33 219 61 222 61 12 0 2 -55 -61 -343 -87
-400 -79 -373 -112 -385 -23 -10 -158 -30 -367 -57 -27 -4 -79 -8 -115 -8 -90
-3 -163 35 -343 176 -78 62 -232 182 -341 267 -371 289 -313 226 -507 550 -95
157 -198 329 -231 383 -72 120 -78 133 -52 119 11 -6 31 -21 44 -34z m-1853 5
c-52 -98 -270 -465 -360 -606 l-121 -189 -180 -142 c-100 -78 -262 -200 -361
-271 -99 -71 -213 -156 -253 -189 -40 -34 -84 -64 -98 -68 -29 -8 -204 5 -222
16 -6 3 -89 11 -184 17 -95 6 -176 14 -180 17 -4 4 -36 138 -72 297 -36 160
-72 321 -81 359 -19 83 -15 100 23 93 26 -5 155 -39 272 -72 139 -39 169 -45
225 -47 58 -3 78 -1 210 23 33 5 101 16 150 24 50 8 184 30 299 50 l208 34 87
78 c47 43 88 80 91 83 5 5 206 188 226 205 84 73 282 255 298 273 19 22 31 29
23 15z m-4106 -255 c178 -127 367 -259 419 -294 155 -103 210 -159 210 -218 0
-34 5 -35 -405 108 -177 62 -164 55 -360 212 -214 170 -215 173 -215 318 0 88
4 106 21 106 3 0 152 -104 330 -232z m5842 169 c145 -255 464 -786 481 -800
11 -9 104 -79 206 -154 102 -75 212 -160 245 -188 33 -28 131 -103 218 -168
86 -65 157 -121 157 -126 0 -18 -315 -201 -346 -201 -11 0 -32 12 -46 28 -36
39 -154 206 -306 434 -95 142 -143 205 -170 222 -678 436 -749 479 -788 483
-32 4 -73 -8 -200 -57 -87 -34 -172 -64 -188 -67 l-28 -6 3 75 c6 101 11 106
179 149 105 27 130 41 207 121 33 35 120 121 192 192 144 142 139 141 184 63z
m-1352 -149 c210 -199 237 -216 373 -244 40 -8 76 -22 84 -31 12 -16 18 -183
7 -183 -3 0 -31 11 -63 24 -134 56 -328 117 -357 113 -42 -7 -135 -62 -465
-275 -177 -114 -307 -205 -343 -240 -73 -71 -161 -189 -267 -356 -85 -136
-190 -285 -212 -303 -10 -8 -55 12 -180 80 -92 51 -172 97 -178 103 -9 9 7 26
62 67 40 30 116 87 168 128 102 79 287 214 385 281 89 61 190 153 238 217 24
31 137 213 252 404 233 387 258 422 284 408 9 -5 105 -92 212 -193z m5893 77
c-5 -71 -11 -106 -23 -119 -9 -10 -95 -87 -192 -171 l-175 -153 -195 -62
c-107 -34 -235 -77 -284 -96 -112 -42 -117 -42 -110 -3 9 53 27 69 175 167 80
52 181 122 225 155 80 60 256 186 370 265 33 23 92 63 130 90 47 33 72 46 78
38 4 -6 4 -56 1 -111z m-8668 -42 c-21 -58 -231 -512 -351 -758 -59 -121 -115
-242 -125 -270 -10 -27 -82 -185 -160 -349 -78 -165 -146 -310 -151 -323 -5
-13 -13 -23 -18 -23 -10 0 -19 60 -56 380 -41 346 -55 457 -76 595 -25 164
-66 405 -80 467 -13 55 -3 80 38 96 63 25 283 75 743 168 124 25 227 47 229
50 15 15 18 -1 7 -33z m6726 17 c51 -12 111 -25 133 -30 22 -5 85 -19 140 -30
55 -12 150 -32 210 -45 61 -13 144 -31 185 -39 150 -29 206 -42 218 -50 20
-12 14 -93 -23 -276 -19 -96 -51 -292 -70 -435 -19 -143 -42 -303 -50 -355 -8
-52 -15 -117 -15 -144 0 -46 -36 -304 -47 -336 -6 -18 -123 215 -123 247 0 12
-55 131 -121 265 -67 134 -132 270 -144 303 -13 33 -60 137 -105 230 -335 693
-344 714 -293 715 6 0 53 -9 105 -20z m-130 -276 c38 -82 119 -259 180 -393
61 -134 136 -296 168 -360 31 -64 72 -150 90 -191 41 -94 138 -303 224 -484
37 -76 69 -150 73 -164 l6 -25 -199 7 c-109 3 -417 13 -683 22 -267 8 -489 18
-494 21 -4 3 -2 12 6 21 7 10 42 64 77 122 35 58 94 150 130 205 82 122 106
177 125 274 7 42 23 117 33 166 11 50 30 137 42 195 12 58 30 140 41 184 11
43 31 138 44 210 33 184 38 216 40 261 1 22 3 51 4 63 2 47 26 13 93 -134z
m-6492 134 c1 -72 40 -311 85 -522 101 -472 107 -500 127 -571 21 -75 87 -205
142 -283 43 -60 196 -311 196 -321 0 -10 -168 -18 -670 -31 -423 -11 -557 -17
-647 -26 -54 -6 -63 -4 -63 9 0 9 35 92 79 184 43 92 92 200 109 238 17 39 59
126 94 195 35 69 77 157 95 195 17 39 53 115 78 170 26 55 70 152 97 215 28
63 97 211 154 327 57 117 104 217 104 223 0 5 5 10 10 10 6 0 10 -6 10 -12z
m2913 -417 c78 -27 162 -56 187 -65 25 -8 72 -18 105 -22 56 -5 72 -1 228 55
235 85 232 84 282 62 38 -17 478 -292 637 -398 60 -40 82 -66 191 -217 68 -94
126 -176 130 -182 4 -7 -108 -85 -291 -203 -163 -106 -387 -251 -497 -322
-287 -186 -688 -444 -703 -453 -12 -7 -99 50 -1052 691 -421 282 -405 270
-387 292 8 9 53 74 101 145 47 70 99 143 114 160 39 45 128 106 337 231 99 60
223 136 275 170 52 33 102 64 110 68 8 4 26 14 40 22 14 8 31 15 38 15 7 0 76
-22 155 -49z m3067 -814 c0 -16 -109 -202 -208 -355 -67 -102 -71 -113 -101
-242 -17 -74 -42 -202 -56 -285 -55 -321 -116 -661 -122 -680 -4 -12 -51 161
-124 450 -127 510 -130 519 -246 695 -35 52 -63 100 -63 106 0 17 28 38 105
79 39 21 127 68 196 105 158 86 173 90 489 124 69 7 126 14 128 15 1 0 2 -5 2
-12z m-5355 -12 c77 -5 206 -19 255 -28 44 -8 107 -38 276 -131 103 -56 189
-107 191 -112 2 -6 -36 -69 -83 -140 -48 -71 -96 -149 -107 -174 -11 -25 -73
-254 -137 -510 -65 -256 -120 -458 -123 -450 -3 8 -20 94 -36 190 -96 547
-129 724 -151 811 -18 72 -36 107 -121 241 -106 167 -169 280 -169 304 0 12
11 14 58 10 31 -3 98 -8 147 -11z m1745 -518 c338 -225 617 -412 620 -414 7
-7 -48 2 -335 54 -137 25 -277 50 -310 55 -117 18 -134 33 -287 243 -345 473
-358 492 -322 478 11 -4 296 -191 634 -416z m2050 59 l-231 -325 -52 -14 c-48
-13 -149 -33 -527 -102 -202 -38 -196 -37 -184 -25 6 6 128 87 270 180 142 92
273 178 289 189 17 12 120 80 230 152 110 72 252 165 315 208 63 42 116 73
118 69 2 -4 -101 -153 -228 -332z m-2598 19 c314 -446 303 -431 350 -453 24
-11 97 -30 163 -41 66 -12 165 -30 220 -41 143 -28 258 -49 350 -65 144 -25
218 -44 226 -57 12 -19 11 -1729 -1 -1748 -7 -12 -27 -14 -86 -12 -88 3 -260
44 -549 133 -110 33 -245 74 -300 91 -160 48 -154 44 -905 576 -173 122 -318
228 -322 236 -4 7 -1 37 8 65 8 29 17 64 20 79 2 15 13 65 24 112 11 47 31
135 44 195 14 61 31 130 40 155 8 25 33 117 55 205 22 88 45 175 50 193 5 17
7 32 3 32 -3 0 -1 5 6 12 7 7 12 21 12 32 0 37 63 148 194 341 156 231 167
245 186 242 8 -1 104 -128 212 -282z m3149 60 c73 -104 147 -219 165 -255 24
-49 64 -194 158 -580 145 -589 144 -584 125 -606 -8 -9 -201 -150 -429 -312
-228 -162 -451 -321 -495 -352 -107 -76 -178 -114 -250 -135 -33 -9 -206 -62
-384 -117 -330 -101 -429 -122 -547 -116 l-59 3 -3 840 c-1 590 1 848 9 867
20 49 48 64 169 86 546 100 780 146 807 157 17 7 43 26 56 42 24 26 232 316
407 567 100 143 98 142 121 119 10 -10 77 -103 150 -208z m-4381 -226 c0 -31
-67 -579 -101 -824 -22 -159 -45 -328 -51 -375 -6 -47 -15 -89 -20 -95 -6 -6
-20 3 -40 25 -17 19 -106 114 -197 210 -91 96 -206 218 -255 270 -50 52 -131
138 -181 190 -108 113 -398 422 -474 503 -29 32 -52 60 -49 62 4 5 400 23 673
31 116 4 212 8 214 10 9 8 481 2 481 -7z m6045 -4 c50 -2 188 -5 307 -6 119
-1 223 -6 230 -10 9 -6 -6 -28 -58 -81 -39 -40 -167 -174 -284 -298 -117 -124
-259 -272 -314 -330 -226 -236 -443 -466 -481 -507 -35 -40 -86 -79 -72 -56 3
4 1 33 -4 63 -5 30 -20 147 -34 260 -14 113 -28 216 -30 230 -2 14 -16 120
-31 235 -14 116 -34 273 -44 350 -12 100 -14 144 -7 153 9 11 76 13 371 8 199
-4 402 -9 451 -11z m-851 -721 c25 -192 55 -425 66 -519 18 -138 20 -173 10
-190 -16 -26 -327 -463 -442 -622 -49 -68 -95 -126 -101 -130 -9 -5 -9 -3 -1
8 11 13 46 78 173 323 l41 78 15 277 c14 258 21 329 45 441 9 44 13 70 30 180
5 30 15 96 24 145 9 50 18 105 21 123 2 18 6 36 9 40 2 4 7 30 10 57 4 28 10
64 16 80 8 27 15 63 20 105 5 40 24 -78 64 -396z m-5074 230 c16 -88 43 -240
60 -339 17 -99 40 -224 51 -279 12 -61 23 -183 29 -320 6 -121 15 -247 21
-279 7 -42 48 -132 145 -324 75 -146 134 -266 132 -268 -2 -2 -32 41 -68 94
-36 53 -112 161 -169 241 -57 80 -147 206 -200 280 -52 74 -114 161 -138 194
-48 64 -51 86 -33 206 6 36 13 97 15 135 3 39 7 81 10 95 3 14 17 111 31 215
14 105 27 200 29 212 2 12 10 70 19 130 25 163 27 175 32 170 3 -2 18 -76 34
-163z m337 -1011 c38 -43 148 -170 245 -283 96 -113 206 -241 244 -285 77 -89
88 -96 369 -225 88 -40 211 -97 274 -126 62 -30 116 -54 120 -54 3 0 22 -8 41
-19 35 -18 199 -60 263 -66 40 -4 292 -40 412 -60 141 -23 211 -25 325 -9 58
8 141 19 185 25 190 25 498 80 542 98 26 10 131 59 233 109 102 49 255 123
341 165 155 75 155 75 240 169 46 51 86 95 89 98 7 6 259 297 325 374 28 33
55 64 60 70 6 6 27 30 48 54 l37 42 0 -82 c0 -46 -7 -111 -15 -145 -27 -115
-577 -1184 -675 -1313 -67 -87 -274 -327 -363 -419 -37 -37 -83 -73 -112 -87
-27 -12 -196 -75 -374 -138 l-325 -116 -383 0 -384 0 -361 131 c-198 72 -375
140 -394 151 -18 10 -77 72 -131 136 -54 64 -145 173 -203 242 -141 166 -133
153 -420 715 -73 143 -136 265 -140 270 -4 6 -49 92 -100 193 l-92 182 -5 140
c-4 94 -3 140 4 140 6 0 42 -35 80 -77z m290 -126 c17 -12 161 -116 320 -231
158 -115 308 -217 333 -227 154 -61 803 -253 925 -273 176 -30 541 -20 695 18
67 17 231 64 405 118 72 22 167 51 213 64 113 33 196 68 267 111 57 36 349
243 455 323 71 54 94 69 98 65 7 -7 -227 -282 -290 -341 -69 -66 -84 -73 -493
-243 l-340 -141 -235 -34 c-129 -20 -280 -42 -335 -51 -55 -8 -123 -15 -152
-15 -29 0 -202 23 -385 50 -363 55 -388 61 -638 167 -413 174 -485 207 -521
232 -31 23 -334 372 -362 419 -12 18 4 14 40 -11z"/>
</g>
</svg>
