<?xml version="1.0" standalone="no"?>
<!DOCTYPE svg PUBLIC "-//W3C//DTD SVG 20010904//EN"
 "http://www.w3.org/TR/2001/REC-SVG-20010904/DTD/svg10.dtd">
<svg version="1.0" xmlns="http://www.w3.org/2000/svg"
 width="572.000000pt" height="801.000000pt" viewBox="0 0 572.000000 801.000000"
 preserveAspectRatio="xMidYMid meet">

<g transform="translate(0.000000,801.000000) scale(0.100000,-0.100000)"
fill="#000000" stroke="none">
<path d="M950 7848 c-51 -84 -95 -156 -96 -159 -2 -3 -91 -599 -199 -1325
l-196 -1319 -100 -255 c-128 -324 -263 -723 -255 -754 3 -13 12 -26 20 -29 8
-3 70 14 137 38 67 25 124 43 126 42 1 -2 -81 -118 -182 -258 -102 -140 -188
-264 -191 -277 -11 -41 11 -52 102 -52 l84 0 0 -315 c0 -207 3 -315 10 -315 6
0 60 25 121 56 61 30 112 54 114 52 2 -2 13 -160 25 -353 24 -398 26 -414 46
-422 8 -3 45 9 83 26 37 17 72 31 77 31 5 0 103 -211 217 -469 115 -258 214
-472 222 -475 8 -3 29 7 46 21 22 19 35 24 45 17 8 -5 130 -162 272 -349 237
-312 260 -340 287 -340 27 0 33 7 66 75 20 41 40 73 45 70 5 -3 123 -126 263
-275 140 -148 260 -274 268 -278 7 -5 22 -5 33 -2 18 6 20 17 22 146 l3 140
199 -272 c159 -216 202 -269 210 -257 6 8 97 131 201 273 l190 259 3 -139 c3
-138 7 -154 39 -155 10 0 412 417 520 540 l31 34 38 -79 c65 -133 46 -147 361
268 263 348 268 355 288 337 30 -26 60 -39 72 -32 6 4 104 216 217 471 113
255 208 466 211 469 2 3 36 -9 75 -27 75 -33 95 -37 105 -21 5 7 54 695 55
763 0 4 49 -18 110 -48 60 -30 116 -55 125 -55 13 0 15 40 15 315 l0 315 76 0
c92 0 118 11 109 47 -3 14 -89 140 -191 280 -102 141 -184 257 -182 259 2 2
60 -17 128 -42 123 -44 124 -44 144 -25 19 20 19 20 -4 98 -40 137 -149 441
-246 687 l-95 239 -196 1321 -196 1321 -89 147 c-103 170 -112 179 -137 152
-11 -10 -243 -266 -517 -569 -273 -302 -506 -551 -517 -553 -10 -2 -50 17 -88
42 l-69 46 -597 0 -598 0 -68 -46 c-38 -25 -77 -44 -87 -42 -10 2 -247 255
-526 563 -485 536 -521 574 -535 575 -3 0 -48 -69 -99 -152z m565 -641 c246
-368 449 -676 451 -685 2 -16 -122 -138 -352 -346 l-66 -60 3 375 3 374 -78
175 c-43 96 -98 215 -123 263 -119 239 -286 477 -334 477 -24 0 -24 4 3 67 18
39 26 49 34 40 7 -7 213 -313 459 -680z m3184 656 c32 -65 35 -83 13 -83 -74
0 -310 -389 -486 -802 l-59 -137 6 -361 5 -361 -21 18 c-60 52 -394 369 -398
377 -3 7 910 1384 918 1386 2 0 11 -17 22 -37z m-2883 -803 c230 -267 425
-493 433 -503 13 -16 6 -17 -101 -17 l-114 0 -214 328 c-118 180 -274 419
-348 532 -74 113 -121 192 -104 175 16 -16 218 -248 448 -515z m2507 441 c-32
-49 -186 -285 -343 -525 l-285 -436 -113 0 c-88 0 -111 3 -106 13 12 18 895
1037 900 1037 2 0 -22 -40 -53 -89z m722 -1422 c80 -530 145 -965 145 -967 0
-1 -34 39 -77 90 -78 95 -397 419 -533 543 -49 44 -63 61 -40 47 221 -127 327
-182 344 -180 21 3 21 4 18 613 -1 336 -5 660 -8 720 -4 61 -3 107 0 104 4 -4
72 -440 151 -970z m-4219 241 l-8 -710 24 0 c13 0 96 41 183 91 195 111 208
117 175 89 -199 -172 -465 -442 -606 -613 -26 -32 -48 -56 -50 -54 -5 5 280
1907 285 1907 2 0 1 -319 -3 -710z m1594 13 c63 -86 118 -162 122 -168 5 -9
-73 -81 -235 -215 -133 -112 -251 -212 -263 -222 -21 -19 -22 -18 -245 147
-123 91 -224 170 -224 174 0 5 104 106 230 225 l230 216 135 0 135 0 115 -157z
m1505 -61 c127 -119 230 -220 230 -223 0 -4 -101 -81 -224 -173 -194 -143
-227 -164 -240 -152 -9 7 -128 106 -264 220 -136 115 -247 211 -245 215 2 4
57 80 123 169 l119 162 136 0 135 0 230 -218z m-893 -101 c174 -117 378 -274
378 -291 0 -6 -45 -142 -101 -303 -56 -160 -105 -309 -110 -330 -11 -46 -8
-68 38 -251 l34 -139 -25 -36 c-94 -133 -373 -505 -381 -507 -5 -2 -100 119
-209 269 l-199 272 37 145 c21 83 36 168 36 200 0 44 -23 120 -109 370 -104
300 -108 316 -91 330 131 109 510 379 532 380 4 0 81 -49 170 -109z m-1273
-336 c121 -90 221 -167 221 -171 0 -3 -37 -69 -82 -146 l-83 -139 -155 5 c-85
3 -294 9 -463 12 -169 4 -306 10 -305 14 5 11 631 590 639 590 3 0 106 -74
228 -165z m2768 -135 l318 -295 -235 -6 c-129 -4 -338 -10 -465 -13 l-230 -7
-86 144 -86 144 221 166 c121 91 226 165 233 164 7 -1 155 -135 330 -297z
m-2159 -160 c76 -212 102 -297 102 -333 0 -38 -54 -273 -65 -285 -2 -2 -48 52
-103 120 l-99 123 -167 99 c-160 95 -166 99 -153 120 8 11 49 81 92 155 75
128 84 138 179 217 56 46 103 80 107 76 3 -4 51 -135 107 -292z m1397 -22 l93
-157 -166 -98 -167 -98 -99 -123 c-54 -67 -101 -121 -103 -118 -13 12 -65 239
-65 282 0 39 22 112 95 315 53 145 100 277 106 292 l11 28 101 -83 c100 -81
104 -86 194 -240z m-2320 -187 c360 -8 415 -12 415 -31 0 -14 -29 -20 -185
-35 l-154 -16 -443 -190 c-250 -108 -454 -201 -469 -215 -14 -14 -100 -141
-190 -284 -90 -143 -167 -260 -171 -260 -5 0 -8 5 -8 12 0 26 245 635 269 670
14 20 89 108 166 196 l140 161 125 0 c69 0 296 -4 505 -8z m3607 -153 c79 -90
154 -176 166 -193 20 -27 272 -653 272 -675 0 -28 -29 13 -182 253 -93 145
-178 273 -190 284 -13 12 -223 107 -467 212 l-445 191 -160 16 c-88 8 -164 18
-168 20 -13 8 -9 21 10 29 16 8 454 19 838 23 l182 2 144 -162z m-3015 11 c48
-22 101 -52 117 -67 26 -25 130 -152 199 -243 l27 -36 -22 -59 c-12 -33 -24
-62 -28 -67 -3 -4 -47 53 -98 126 -51 74 -102 143 -114 155 -13 11 -112 61
-221 110 -109 49 -200 92 -203 95 -3 3 34 8 83 12 48 3 99 7 113 9 14 2 32 4
42 5 9 0 56 -17 105 -40z m1953 22 l55 -6 -208 -94 c-235 -107 -226 -99 -352
-283 -44 -64 -83 -114 -86 -112 -13 8 -50 125 -43 137 17 27 159 205 198 246
27 29 71 58 131 86 88 42 92 43 170 38 44 -3 105 -8 135 -12z m-2246 -113
l191 -73 -206 -3 -206 -2 -229 -212 c-500 -462 -551 -503 -719 -583 -68 -32
-365 -139 -370 -133 -4 5 435 692 453 711 28 28 822 366 861 366 20 1 115 -30
225 -71z m2891 -98 c209 -89 394 -171 411 -181 23 -14 94 -118 254 -370 122
-192 221 -352 218 -354 -9 -9 -301 99 -393 145 -145 73 -215 130 -585 470
l-330 305 -208 5 -207 5 185 72 c151 59 193 72 230 69 31 -2 165 -54 425 -166z
m-2964 -522 l154 -413 129 -44 128 -44 75 -100 c41 -55 72 -105 70 -111 -133
-386 -193 -556 -198 -556 -3 0 -16 39 -29 86 -12 48 -32 96 -44 108 -11 13
-119 81 -239 151 -248 146 -218 110 -262 320 -72 339 -82 612 -29 820 17 65
73 195 84 195 4 0 76 -186 161 -412z m2589 338 c102 -226 100 -586 -6 -1027
l-25 -105 -227 -135 c-252 -149 -244 -142 -283 -279 l-21 -74 -99 284 c-54
157 -99 290 -98 295 0 6 33 53 72 105 l72 95 129 45 129 45 129 345 c182 488
179 481 190 474 6 -4 23 -34 38 -68z m-2884 -93 c-32 -125 -48 -284 -44 -429
l4 -141 -215 -126 c-119 -69 -217 -123 -218 -119 -12 38 -62 397 -56 403 154
145 539 487 541 480 2 -5 -4 -35 -12 -68z m3264 -193 c129 -117 238 -216 242
-219 4 -3 -6 -89 -23 -191 -16 -102 -29 -191 -29 -197 0 -7 -5 -13 -11 -13 -6
0 -104 55 -219 122 l-208 121 5 126 c6 134 -5 255 -37 410 -11 52 -20 99 -20
105 0 5 15 -4 33 -20 17 -17 138 -127 267 -244z m-2854 129 l134 -70 185 -6
c102 -3 185 -10 185 -14 0 -7 -199 -519 -205 -526 -2 -3 -206 55 -211 59 -3 3
-125 332 -199 536 -19 50 -32 92 -28 92 3 0 66 -32 139 -71z m2285 24 c-10
-27 -62 -167 -116 -313 -54 -146 -99 -266 -100 -268 -4 -4 -209 -61 -212 -59
-1 2 -49 122 -106 267 l-105 265 189 7 189 7 128 69 c70 39 133 70 139 71 9 1
7 -13 -6 -46z m-1627 -70 c9 -54 21 -136 26 -183 13 -114 13 -469 0 -567 -15
-111 -42 -243 -49 -243 -12 1 -276 380 -273 392 8 34 268 698 273 698 3 0 14
-44 23 -97z m1006 -258 c72 -187 129 -347 127 -356 -5 -18 -253 -365 -267
-374 -10 -6 -24 56 -47 200 -19 123 -22 477 -5 615 19 148 44 272 52 263 5 -4
67 -161 140 -348z m-766 88 c96 -123 178 -223 180 -223 3 0 87 103 187 230
100 126 183 229 184 227 2 -1 -6 -53 -16 -114 -52 -319 -46 -671 15 -900 l14
-52 -46 7 c-62 9 -613 9 -676 0 -41 -7 -47 -6 -42 8 18 47 46 227 56 354 14
189 -9 511 -47 680 -7 33 -14 41 191 -217z m-1874 -380 c12 -99 21 -186 19
-192 -2 -6 -134 -75 -294 -154 -270 -134 -295 -144 -363 -150 l-73 -7 39 57
c22 32 110 159 196 283 l156 225 142 67 c79 36 146 63 149 60 3 -4 16 -89 29
-189z m4290 128 l135 -62 190 -273 c104 -151 191 -279 193 -285 2 -7 -17 -8
-64 -4 -60 6 -97 21 -353 146 -157 76 -291 143 -296 147 -14 12 35 402 49 396
6 -2 72 -32 146 -65z m-3705 -310 c20 -96 44 -193 54 -216 10 -23 47 -82 83
-131 35 -49 73 -102 84 -119 l19 -30 -31 20 c-317 204 -664 431 -664 435 1 3
92 59 203 126 165 99 203 118 209 105 4 -9 23 -94 43 -190z m3394 -41 c0 -7
-683 -449 -687 -445 -2 2 35 57 81 122 47 66 92 135 100 154 8 20 31 116 51
215 21 98 39 185 41 191 3 8 81 -33 209 -110 113 -67 205 -124 205 -127z
m-3883 -177 l28 -111 -139 -144 c-224 -232 -372 -360 -499 -433 l-48 -28 7
284 c4 156 10 287 14 291 4 4 139 68 301 141 188 85 298 129 302 123 4 -6 19
-61 34 -123z m4259 -4 c160 -72 293 -133 296 -137 4 -4 9 -132 12 -284 4 -220
3 -278 -7 -278 -23 0 -184 114 -281 199 -125 110 -385 384 -385 406 0 34 55
225 65 225 6 0 141 -59 300 -131z m-3955 -64 c141 -94 319 -208 397 -255 124
-74 143 -89 148 -115 9 -50 116 -1127 113 -1136 -2 -5 -110 193 -241 439 -269
506 -318 588 -506 850 -129 179 -135 191 -157 277 -25 96 -28 119 -16 113 4
-2 122 -80 262 -173z m3580 169 c0 -13 -41 -171 -50 -191 -5 -12 -66 -102
-135 -198 -186 -260 -225 -325 -497 -835 -136 -256 -248 -458 -248 -450 -1 8
25 273 57 588 l58 573 183 112 c101 61 281 178 400 259 210 141 232 155 232
142z m-2450 -149 l52 -70 -6 -95 c-4 -52 -9 -129 -12 -171 l-7 -76 -143 -33
c-79 -18 -146 -31 -149 -29 -2 3 15 57 39 120 23 63 69 185 101 272 32 87 61
156 66 155 4 -2 31 -34 59 -73z m1216 -197 c56 -150 97 -274 93 -276 -5 -2
-72 11 -149 29 -106 25 -140 36 -141 48 0 9 -6 84 -12 168 l-12 152 54 76 c30
41 57 75 60 75 4 0 52 -123 107 -272z m-300 130 c13 -12 17 -44 22 -149 l5
-132 -34 26 c-19 14 -61 38 -93 53 -56 26 -63 26 -165 20 -58 -4 -115 -8 -126
-8 -11 0 -68 4 -126 8 -102 6 -109 6 -165 -20 -32 -15 -73 -38 -91 -52 l-33
-25 0 118 c0 152 7 166 80 174 30 4 202 6 382 5 289 -1 329 -3 344 -18z
m-1344 -167 c5 -4 21 -65 37 -135 30 -131 54 -176 91 -176 9 0 86 16 171 35
l154 35 40 -43 c22 -24 113 -125 203 -226 l163 -181 -73 -34 c-40 -18 -127
-59 -192 -90 -96 -45 -122 -54 -131 -44 -20 22 -765 1007 -765 1011 0 5 291
-142 302 -152z m2202 147 c-7 -12 -750 -995 -764 -1011 -6 -7 -382 163 -384
175 0 3 88 106 197 228 144 159 203 219 215 216 39 -12 293 -66 310 -66 38 0
60 42 87 165 15 66 31 126 35 134 6 11 293 170 308 171 2 0 0 -6 -4 -12z
m-3008 -243 l142 -203 -110 -144 c-285 -374 -369 -479 -447 -560 -75 -80 -121
-111 -138 -95 -3 4 -14 172 -24 374 l-18 367 52 56 c147 157 392 410 396 410
3 -1 70 -93 147 -205z m3889 -26 l220 -231 -3 -67 c-5 -143 -22 -501 -28 -588
-6 -88 -7 -93 -28 -93 -43 0 -182 154 -411 456 -71 93 -160 208 -197 257 l-69
87 143 205 c79 113 145 205 148 205 3 0 105 -104 225 -231z m-2768 -651 l348
-467 113 -1 c113 0 113 0 106 -22 -16 -52 -314 -636 -327 -641 -7 -3 -19 -2
-25 2 -6 4 -133 254 -282 556 l-271 550 -25 245 c-13 135 -24 256 -24 270 l0
25 20 -25 c11 -14 176 -235 367 -492z m1638 236 l-25 -259 -266 -540 c-147
-297 -274 -548 -282 -558 -13 -14 -18 -15 -34 -5 -10 7 -90 158 -178 336
l-159 322 115 0 114 0 367 492 c202 270 368 487 370 481 2 -5 -8 -126 -22
-269z m-2646 -643 c-30 -753 -31 -764 -52 -782 -12 -10 -25 -18 -28 -19 -3 0
-95 203 -203 452 l-197 452 71 105 c60 89 431 561 437 557 1 -1 -12 -345 -28
-765z m3707 198 l64 -95 -198 -452 c-108 -249 -199 -452 -202 -452 -3 1 -15 9
-28 20 -22 18 -22 19 -52 767 -17 411 -30 756 -30 766 0 22 359 -424 446 -554z
m-3352 -546 l256 -972 -32 -66 c-18 -36 -35 -64 -39 -63 -4 2 -121 149 -260
328 l-252 325 27 615 c27 620 37 813 41 808 2 -2 118 -440 259 -975z m2876
255 c18 -383 28 -704 23 -711 -25 -44 -499 -646 -507 -644 -5 2 -22 32 -38 68
l-29 65 246 935 c288 1094 268 1018 271 999 2 -8 17 -329 34 -712z m-2920 442
c62 -118 171 -324 242 -457 186 -349 319 -644 483 -1073 37 -96 82 -215 101
-264 34 -89 34 -90 32 -239 l-3 -149 -243 261 c-133 143 -246 271 -252 283
-10 24 -480 1838 -480 1853 0 13 2 10 120 -215z m2549 -716 c-151 -582 -247
-936 -258 -949 -27 -31 -420 -456 -453 -490 l-29 -30 3 165 3 165 103 265
c148 380 272 667 381 885 119 235 484 925 488 921 2 -1 -105 -421 -238 -932z
m-993 734 c117 -57 214 -106 214 -110 0 -5 -39 -62 -87 -128 l-88 -119 -260
-1 -260 0 -92 125 -92 125 212 104 c117 57 218 105 226 105 7 1 110 -45 227
-101z m-918 -688 c148 -304 240 -482 255 -493 22 -17 27 -18 54 -3 25 12 52
56 143 233 205 396 242 465 248 458 3 -3 83 -155 177 -337 183 -356 200 -381
251 -357 23 12 64 89 261 494 129 264 237 483 242 487 4 5 -4 -101 -17 -235
l-23 -242 -241 -610 -241 -610 -190 -270 c-105 -148 -198 -280 -207 -292 -18
-23 -17 -24 -397 516 -20 28 -124 279 -273 655 l-240 610 -20 205 c-11 113
-22 224 -25 246 -4 25 -3 36 3 30 5 -5 113 -224 240 -485z"/>
</g>
</svg>
